G04*
G04 #@! TF.GenerationSoftware,Altium Limited,Altium Designer,24.10.1 (45)*
G04*
G04 Layer_Color=32896*
%FSLAX25Y25*%
%MOIN*%
G70*
G04*
G04 #@! TF.SameCoordinates,F1117688-C2E4-4B3A-BF9F-62EBCE255B8A*
G04*
G04*
G04 #@! TF.FilePolarity,Positive*
G04*
G01*
G75*
%ADD12C,0.00600*%
%ADD80C,0.01000*%
D12*
X264900Y87901D02*
X262901Y89900D01*
X260901Y87901D01*
X262901Y85901D02*
Y83236D01*
Y81903D02*
Y79237D01*
Y77904D02*
Y75238D01*
Y73905D02*
Y71239D01*
Y69906D02*
Y67241D01*
X264900Y65908D02*
X260901D01*
Y63908D01*
X261568Y63242D01*
X262901D01*
X263567Y63908D01*
Y65908D01*
X260901Y61909D02*
Y60576D01*
Y61243D01*
X264900D01*
Y61909D01*
Y60576D01*
Y58577D02*
X260901D01*
X264900Y55911D01*
X260901D01*
X264900Y54578D02*
Y53245D01*
Y53912D01*
X260901D01*
X261568Y54578D01*
X262901Y51246D02*
Y48580D01*
Y47247D02*
Y44581D01*
Y43248D02*
Y40583D01*
Y39250D02*
Y36584D01*
Y35251D02*
Y32585D01*
X264900Y31252D02*
X262901Y29253D01*
X260901Y31252D01*
X164900Y49099D02*
X162234D01*
X163567D01*
Y45100D01*
X160901D02*
Y47766D01*
X159568Y49099D01*
X158236Y47766D01*
Y45100D01*
Y47099D01*
X160901D01*
X156903Y45100D02*
Y49099D01*
X155570Y47766D01*
X154237Y49099D01*
Y45100D01*
X152904Y49099D02*
Y45766D01*
X152237Y45100D01*
X150905D01*
X150238Y45766D01*
Y49099D01*
X120567Y51600D02*
X121900Y52933D01*
Y54266D01*
X120567Y55599D01*
X115902Y54932D02*
X116568Y55599D01*
X117901D01*
X118568Y54932D01*
Y52266D01*
X117901Y51600D01*
X116568D01*
X115902Y52266D01*
X114569Y51600D02*
X113236Y52933D01*
Y54266D01*
X114569Y55599D01*
X104572D02*
X105905D01*
X105239D01*
Y52266D01*
X105905Y51600D01*
X106572D01*
X107238Y52266D01*
X103239Y51600D02*
Y54266D01*
X101906Y55599D01*
X100574Y54266D01*
Y51600D01*
Y53599D01*
X103239D01*
X99241Y55599D02*
X97908D01*
X98574D01*
Y51600D01*
X99241D01*
X97908D01*
X93243Y54932D02*
X93909Y55599D01*
X95242D01*
X95908Y54932D01*
Y54266D01*
X95242Y53599D01*
X93909D01*
X93243Y52933D01*
Y52266D01*
X93909Y51600D01*
X95242D01*
X95908Y52266D01*
X91910Y55599D02*
Y51600D01*
Y53599D01*
X89244D01*
Y55599D01*
Y51600D01*
X87911Y55599D02*
X86578D01*
X87244D01*
Y51600D01*
X87911D01*
X86578D01*
X84579Y55599D02*
Y51600D01*
X81913D01*
X73915Y54932D02*
X74582Y55599D01*
X75915D01*
X76581Y54932D01*
Y54266D01*
X75915Y53599D01*
X74582D01*
X73915Y52933D01*
Y52266D01*
X74582Y51600D01*
X75915D01*
X76581Y52266D01*
X72583Y55599D02*
Y51600D01*
Y53599D01*
X69917D01*
Y55599D01*
Y51600D01*
X68584D02*
Y54266D01*
X67251Y55599D01*
X65918Y54266D01*
Y51600D01*
Y53599D01*
X68584D01*
X64585Y55599D02*
Y51600D01*
Y53599D01*
X61919D01*
Y55599D01*
Y51600D01*
X90401Y25900D02*
Y24567D01*
Y25234D01*
X94400D01*
Y25900D01*
Y24567D01*
X90401Y20568D02*
Y21901D01*
X91068Y22568D01*
X93734D01*
X94400Y21901D01*
Y20568D01*
X93734Y19902D01*
X91068D01*
X90401Y20568D01*
X94400Y15903D02*
Y18569D01*
X91734Y15903D01*
X91068D01*
X90401Y16570D01*
Y17903D01*
X91068Y18569D01*
X90401Y11904D02*
X91068Y13237D01*
X92401Y14570D01*
X93734D01*
X94400Y13904D01*
Y12571D01*
X93734Y11904D01*
X93067D01*
X92401Y12571D01*
Y14570D01*
X100401Y25900D02*
Y24567D01*
Y25234D01*
X104400D01*
Y25900D01*
Y24567D01*
X100401Y20568D02*
Y21901D01*
X101068Y22568D01*
X103734D01*
X104400Y21901D01*
Y20568D01*
X103734Y19902D01*
X101068D01*
X100401Y20568D01*
X101068Y18569D02*
X100401Y17903D01*
Y16570D01*
X101068Y15903D01*
X101734D01*
X102401Y16570D01*
Y17236D01*
Y16570D01*
X103067Y15903D01*
X103734D01*
X104400Y16570D01*
Y17903D01*
X103734Y18569D01*
X101068Y14570D02*
X100401Y13904D01*
Y12571D01*
X101068Y11904D01*
X101734D01*
X102401Y12571D01*
Y13237D01*
Y12571D01*
X103067Y11904D01*
X103734D01*
X104400Y12571D01*
Y13904D01*
X103734Y14570D01*
X230401Y25900D02*
Y24567D01*
Y25234D01*
X234400D01*
Y25900D01*
Y24567D01*
X230401Y20568D02*
Y21901D01*
X231068Y22568D01*
X233734D01*
X234400Y21901D01*
Y20568D01*
X233734Y19902D01*
X231068D01*
X230401Y20568D01*
X234400Y16570D02*
X230401D01*
X232401Y18569D01*
Y15903D01*
X230401Y11904D02*
X231068Y13237D01*
X232401Y14570D01*
X233734D01*
X234400Y13904D01*
Y12571D01*
X233734Y11904D01*
X233067D01*
X232401Y12571D01*
Y14570D01*
X261068Y23400D02*
X260401Y22734D01*
Y21401D01*
X261068Y20734D01*
X261734D01*
X262401Y21401D01*
Y22067D01*
Y21401D01*
X263067Y20734D01*
X263734D01*
X264400Y21401D01*
Y22734D01*
X263734Y23400D01*
X260401Y19401D02*
X263067D01*
X264400Y18068D01*
X263067Y16736D01*
X260401D01*
X261068Y15403D02*
X260401Y14736D01*
Y13403D01*
X261068Y12737D01*
X261734D01*
X262401Y13403D01*
Y14070D01*
Y13403D01*
X263067Y12737D01*
X263734D01*
X264400Y13403D01*
Y14736D01*
X263734Y15403D01*
X251068Y20734D02*
X250401Y21401D01*
Y22734D01*
X251068Y23400D01*
X253734D01*
X254400Y22734D01*
Y21401D01*
X253734Y20734D01*
X252401D01*
Y22067D01*
X254400Y19401D02*
X250401D01*
X254400Y16736D01*
X250401D01*
Y15403D02*
X254400D01*
Y13403D01*
X253734Y12737D01*
X251068D01*
X250401Y13403D01*
Y15403D01*
X50401Y25900D02*
Y24567D01*
Y25234D01*
X54400D01*
Y25900D01*
Y24567D01*
X50401Y20568D02*
Y21901D01*
X51068Y22568D01*
X53734D01*
X54400Y21901D01*
Y20568D01*
X53734Y19902D01*
X51068D01*
X50401Y20568D01*
X54400Y16570D02*
X50401D01*
X52401Y18569D01*
Y15903D01*
X51068Y14570D02*
X50401Y13904D01*
Y12571D01*
X51068Y11904D01*
X51734D01*
X52401Y12571D01*
X53067Y11904D01*
X53734D01*
X54400Y12571D01*
Y13904D01*
X53734Y14570D01*
X53067D01*
X52401Y13904D01*
X51734Y14570D01*
X51068D01*
X52401Y13904D02*
Y12571D01*
X40401Y26400D02*
Y25067D01*
Y25734D01*
X44400D01*
Y26400D01*
Y25067D01*
X40401Y21068D02*
Y22401D01*
X41068Y23068D01*
X43734D01*
X44400Y22401D01*
Y21068D01*
X43734Y20402D01*
X41068D01*
X40401Y21068D01*
X44400Y17070D02*
X40401D01*
X42401Y19069D01*
Y16403D01*
X40401Y15070D02*
Y12404D01*
X41068D01*
X43734Y15070D01*
X44400D01*
X80401Y25900D02*
Y24567D01*
Y25234D01*
X84400D01*
Y25900D01*
Y24567D01*
X80401Y20568D02*
Y21901D01*
X81068Y22568D01*
X83734D01*
X84400Y21901D01*
Y20568D01*
X83734Y19902D01*
X81068D01*
X80401Y20568D01*
X84400Y15903D02*
Y18569D01*
X81734Y15903D01*
X81068D01*
X80401Y16570D01*
Y17903D01*
X81068Y18569D01*
X84400Y14570D02*
Y13237D01*
Y13904D01*
X80401D01*
X81068Y14570D01*
X70401Y26900D02*
X73734D01*
X74400Y26234D01*
Y24901D01*
X73734Y24234D01*
X70401D01*
X71068Y20235D02*
X70401Y20902D01*
Y22235D01*
X71068Y22901D01*
X71734D01*
X72401Y22235D01*
Y20902D01*
X73067Y20235D01*
X73734D01*
X74400Y20902D01*
Y22235D01*
X73734Y22901D01*
X70401Y18903D02*
X74400D01*
Y16903D01*
X73734Y16237D01*
X73067D01*
X72401Y16903D01*
Y18903D01*
Y16903D01*
X71734Y16237D01*
X71068D01*
X70401Y16903D01*
Y18903D01*
X72401Y14904D02*
Y12238D01*
X71068Y13571D02*
X73734D01*
X60401Y26900D02*
X63734D01*
X64400Y26234D01*
Y24901D01*
X63734Y24234D01*
X60401D01*
X61068Y20235D02*
X60401Y20902D01*
Y22235D01*
X61068Y22901D01*
X61734D01*
X62401Y22235D01*
Y20902D01*
X63067Y20235D01*
X63734D01*
X64400Y20902D01*
Y22235D01*
X63734Y22901D01*
X60401Y18903D02*
X64400D01*
Y16903D01*
X63734Y16237D01*
X63067D01*
X62401Y16903D01*
Y18903D01*
Y16903D01*
X61734Y16237D01*
X61068D01*
X60401Y16903D01*
Y18903D01*
X62401Y14904D02*
Y12238D01*
X150401Y25900D02*
Y24567D01*
Y25234D01*
X154400D01*
Y25900D01*
Y24567D01*
X150401Y20568D02*
Y21901D01*
X151068Y22568D01*
X153734D01*
X154400Y21901D01*
Y20568D01*
X153734Y19902D01*
X151068D01*
X150401Y20568D01*
X151068Y18569D02*
X150401Y17903D01*
Y16570D01*
X151068Y15903D01*
X151734D01*
X152401Y16570D01*
Y17236D01*
Y16570D01*
X153067Y15903D01*
X153734D01*
X154400Y16570D01*
Y17903D01*
X153734Y18569D01*
X151068Y14570D02*
X150401Y13904D01*
Y12571D01*
X151068Y11904D01*
X151734D01*
X152401Y12571D01*
X153067Y11904D01*
X153734D01*
X154400Y12571D01*
Y13904D01*
X153734Y14570D01*
X153067D01*
X152401Y13904D01*
X151734Y14570D01*
X151068D01*
X152401Y13904D02*
Y12571D01*
X140401Y25900D02*
Y24567D01*
Y25234D01*
X144400D01*
Y25900D01*
Y24567D01*
X140401Y20568D02*
Y21901D01*
X141068Y22568D01*
X143734D01*
X144400Y21901D01*
Y20568D01*
X143734Y19902D01*
X141068D01*
X140401Y20568D01*
X141068Y18569D02*
X140401Y17903D01*
Y16570D01*
X141068Y15903D01*
X141734D01*
X142401Y16570D01*
Y17236D01*
Y16570D01*
X143067Y15903D01*
X143734D01*
X144400Y16570D01*
Y17903D01*
X143734Y18569D01*
X140401Y14570D02*
Y11904D01*
X141068D01*
X143734Y14570D01*
X144400D01*
X130401Y25900D02*
Y24567D01*
Y25234D01*
X134400D01*
Y25900D01*
Y24567D01*
X130401Y20568D02*
Y21901D01*
X131068Y22568D01*
X133733D01*
X134400Y21901D01*
Y20568D01*
X133733Y19902D01*
X131068D01*
X130401Y20568D01*
X131068Y18569D02*
X130401Y17903D01*
Y16570D01*
X131068Y15903D01*
X131734D01*
X132401Y16570D01*
Y17236D01*
Y16570D01*
X133067Y15903D01*
X133733D01*
X134400Y16570D01*
Y17903D01*
X133733Y18569D01*
X130401Y11904D02*
X131068Y13237D01*
X132401Y14570D01*
X133733D01*
X134400Y13904D01*
Y12571D01*
X133733Y11904D01*
X133067D01*
X132401Y12571D01*
Y14570D01*
X120401Y25900D02*
Y24567D01*
Y25234D01*
X124400D01*
Y25900D01*
Y24567D01*
X120401Y20568D02*
Y21901D01*
X121068Y22568D01*
X123733D01*
X124400Y21901D01*
Y20568D01*
X123733Y19902D01*
X121068D01*
X120401Y20568D01*
X121068Y18569D02*
X120401Y17903D01*
Y16570D01*
X121068Y15903D01*
X121734D01*
X122401Y16570D01*
Y17236D01*
Y16570D01*
X123067Y15903D01*
X123733D01*
X124400Y16570D01*
Y17903D01*
X123733Y18569D01*
X120401Y11904D02*
Y14570D01*
X122401D01*
X121734Y13237D01*
Y12571D01*
X122401Y11904D01*
X123733D01*
X124400Y12571D01*
Y13904D01*
X123733Y14570D01*
X110401Y25900D02*
Y24567D01*
Y25234D01*
X114400D01*
Y25900D01*
Y24567D01*
X110401Y20568D02*
Y21901D01*
X111068Y22568D01*
X113733D01*
X114400Y21901D01*
Y20568D01*
X113733Y19902D01*
X111068D01*
X110401Y20568D01*
X111068Y18569D02*
X110401Y17903D01*
Y16570D01*
X111068Y15903D01*
X111734D01*
X112401Y16570D01*
Y17236D01*
Y16570D01*
X113067Y15903D01*
X113733D01*
X114400Y16570D01*
Y17903D01*
X113733Y18569D01*
X114400Y12571D02*
X110401D01*
X112401Y14570D01*
Y11904D01*
X200401Y25900D02*
Y23234D01*
Y24567D01*
X204400D01*
X200401Y21901D02*
X204400Y19236D01*
X200401D02*
X204400Y21901D01*
X200401Y17903D02*
X204400D01*
Y15903D01*
X203733Y15237D01*
X201068D01*
X200401Y15903D01*
Y17903D01*
X190401Y25900D02*
Y24567D01*
Y25234D01*
X194400D01*
Y25900D01*
Y24567D01*
X190401Y20568D02*
Y21901D01*
X191068Y22568D01*
X193734D01*
X194400Y21901D01*
Y20568D01*
X193734Y19902D01*
X191068D01*
X190401Y20568D01*
X194400Y16570D02*
X190401D01*
X192401Y18569D01*
Y15903D01*
X194400Y11904D02*
Y14570D01*
X191734Y11904D01*
X191068D01*
X190401Y12571D01*
Y13904D01*
X191068Y14570D01*
X180401Y25900D02*
Y24567D01*
Y25234D01*
X184400D01*
Y25900D01*
Y24567D01*
X180401Y20568D02*
Y21901D01*
X181068Y22568D01*
X183733D01*
X184400Y21901D01*
Y20568D01*
X183733Y19902D01*
X181068D01*
X180401Y20568D01*
X184400Y16570D02*
X180401D01*
X182401Y18569D01*
Y15903D01*
X184400Y14570D02*
Y13237D01*
Y13904D01*
X180401D01*
X181068Y14570D01*
X170401Y25900D02*
Y24567D01*
Y25234D01*
X174400D01*
Y25900D01*
Y24567D01*
X170401Y20568D02*
Y21901D01*
X171068Y22568D01*
X173733D01*
X174400Y21901D01*
Y20568D01*
X173733Y19902D01*
X171068D01*
X170401Y20568D01*
X174400Y16570D02*
X170401D01*
X172401Y18569D01*
Y15903D01*
X171068Y14570D02*
X170401Y13904D01*
Y12571D01*
X171068Y11904D01*
X173733D01*
X174400Y12571D01*
Y13904D01*
X173733Y14570D01*
X171068D01*
X160401Y25900D02*
Y24567D01*
Y25234D01*
X164400D01*
Y25900D01*
Y24567D01*
X160401Y20568D02*
Y21901D01*
X161068Y22568D01*
X163733D01*
X164400Y21901D01*
Y20568D01*
X163733Y19902D01*
X161068D01*
X160401Y20568D01*
X161068Y18569D02*
X160401Y17903D01*
Y16570D01*
X161068Y15903D01*
X161734D01*
X162401Y16570D01*
Y17236D01*
Y16570D01*
X163067Y15903D01*
X163733D01*
X164400Y16570D01*
Y17903D01*
X163733Y18569D01*
Y14570D02*
X164400Y13904D01*
Y12571D01*
X163733Y11904D01*
X161068D01*
X160401Y12571D01*
Y13904D01*
X161068Y14570D01*
X161734D01*
X162401Y13904D01*
Y11904D01*
X214400Y25900D02*
X210401D01*
Y23901D01*
X211068Y23234D01*
X212401D01*
X213067Y23901D01*
Y25900D01*
Y24567D02*
X214400Y23234D01*
X210401Y21901D02*
X214400Y19236D01*
X210401D02*
X214400Y21901D01*
X210401Y17903D02*
X214400D01*
Y15903D01*
X213734Y15237D01*
X211068D01*
X210401Y15903D01*
Y17903D01*
X220401Y25900D02*
Y24567D01*
Y25234D01*
X224400D01*
Y25900D01*
Y24567D01*
X220401Y20568D02*
Y21901D01*
X221068Y22568D01*
X223734D01*
X224400Y21901D01*
Y20568D01*
X223734Y19902D01*
X221068D01*
X220401Y20568D01*
X224400Y16570D02*
X220401D01*
X222401Y18569D01*
Y15903D01*
X220401Y11904D02*
Y14570D01*
X222401D01*
X221734Y13237D01*
Y12571D01*
X222401Y11904D01*
X223734D01*
X224400Y12571D01*
Y13904D01*
X223734Y14570D01*
X240401Y20734D02*
Y23400D01*
X244400D01*
Y20734D01*
X242401Y23400D02*
Y22067D01*
X244400Y19401D02*
X240401D01*
X244400Y16736D01*
X240401D01*
X30068Y20234D02*
X29401Y20901D01*
Y22233D01*
X30068Y22900D01*
X32734D01*
X33400Y22233D01*
Y20901D01*
X32734Y20234D01*
X31401D01*
Y21567D01*
X33400Y18901D02*
X29401D01*
X33400Y16236D01*
X29401D01*
Y14903D02*
X33400D01*
Y12903D01*
X32734Y12237D01*
X30068D01*
X29401Y12903D01*
Y14903D01*
X34900Y105400D02*
X30901D01*
X34900Y102734D01*
X30901D01*
X31568Y98735D02*
X30901Y99402D01*
Y100735D01*
X31568Y101401D01*
X34234D01*
X34900Y100735D01*
Y99402D01*
X34234Y98735D01*
X240901Y105400D02*
Y104067D01*
Y104734D01*
X244900D01*
Y105400D01*
Y104067D01*
X240901Y100068D02*
Y101401D01*
X241568Y102068D01*
X244234D01*
X244900Y101401D01*
Y100068D01*
X244234Y99402D01*
X241568D01*
X240901Y100068D01*
X241568Y98069D02*
X240901Y97403D01*
Y96070D01*
X241568Y95403D01*
X244234D01*
X244900Y96070D01*
Y97403D01*
X244234Y98069D01*
X241568D01*
X220901Y105400D02*
Y104067D01*
Y104734D01*
X224900D01*
Y105400D01*
Y104067D01*
X220901Y100068D02*
Y101401D01*
X221568Y102068D01*
X224234D01*
X224900Y101401D01*
Y100068D01*
X224234Y99402D01*
X221568D01*
X220901Y100068D01*
X224900Y95403D02*
Y98069D01*
X222234Y95403D01*
X221568D01*
X220901Y96070D01*
Y97403D01*
X221568Y98069D01*
X210901Y105400D02*
Y104067D01*
Y104734D01*
X214900D01*
Y105400D01*
Y104067D01*
X210901Y100068D02*
Y101401D01*
X211568Y102068D01*
X214234D01*
X214900Y101401D01*
Y100068D01*
X214234Y99402D01*
X211568D01*
X210901Y100068D01*
X211568Y98069D02*
X210901Y97403D01*
Y96070D01*
X211568Y95403D01*
X212234D01*
X212901Y96070D01*
Y96736D01*
Y96070D01*
X213567Y95403D01*
X214234D01*
X214900Y96070D01*
Y97403D01*
X214234Y98069D01*
X160901Y105400D02*
Y104067D01*
Y104734D01*
X164900D01*
Y105400D01*
Y104067D01*
X160901Y100068D02*
Y101401D01*
X161568Y102068D01*
X164234D01*
X164900Y101401D01*
Y100068D01*
X164234Y99402D01*
X161568D01*
X160901Y100068D01*
X161568Y98069D02*
X160901Y97403D01*
Y96070D01*
X161568Y95403D01*
X162234D01*
X162901Y96070D01*
X163567Y95403D01*
X164234D01*
X164900Y96070D01*
Y97403D01*
X164234Y98069D01*
X163567D01*
X162901Y97403D01*
X162234Y98069D01*
X161568D01*
X162901Y97403D02*
Y96070D01*
X170901Y105400D02*
Y104067D01*
Y104734D01*
X174900D01*
Y105400D01*
Y104067D01*
X170901Y100068D02*
Y101401D01*
X171568Y102068D01*
X174233D01*
X174900Y101401D01*
Y100068D01*
X174233Y99402D01*
X171568D01*
X170901Y100068D01*
Y98069D02*
Y95403D01*
X171568D01*
X174233Y98069D01*
X174900D01*
X180901Y105400D02*
Y104067D01*
Y104734D01*
X184900D01*
Y105400D01*
Y104067D01*
X180901Y100068D02*
Y101401D01*
X181568Y102068D01*
X184233D01*
X184900Y101401D01*
Y100068D01*
X184233Y99402D01*
X181568D01*
X180901Y100068D01*
Y95403D02*
X181568Y96736D01*
X182901Y98069D01*
X184233D01*
X184900Y97403D01*
Y96070D01*
X184233Y95403D01*
X183567D01*
X182901Y96070D01*
Y98069D01*
X190901Y105400D02*
Y104067D01*
Y104734D01*
X194900D01*
Y105400D01*
Y104067D01*
X190901Y100068D02*
Y101401D01*
X191568Y102068D01*
X194234D01*
X194900Y101401D01*
Y100068D01*
X194234Y99402D01*
X191568D01*
X190901Y100068D01*
Y95403D02*
Y98069D01*
X192901D01*
X192234Y96736D01*
Y96070D01*
X192901Y95403D01*
X194234D01*
X194900Y96070D01*
Y97403D01*
X194234Y98069D01*
X200901Y105400D02*
Y104067D01*
Y104734D01*
X204900D01*
Y105400D01*
Y104067D01*
X200901Y100068D02*
Y101401D01*
X201568Y102068D01*
X204234D01*
X204900Y101401D01*
Y100068D01*
X204234Y99402D01*
X201568D01*
X200901Y100068D01*
X204900Y96070D02*
X200901D01*
X202901Y98069D01*
Y95403D01*
X110901Y105400D02*
Y104067D01*
Y104734D01*
X114900D01*
Y105400D01*
Y104067D01*
X110901Y100068D02*
Y101401D01*
X111568Y102068D01*
X114234D01*
X114900Y101401D01*
Y100068D01*
X114234Y99402D01*
X111568D01*
X110901Y100068D01*
X114900Y98069D02*
Y96736D01*
Y97403D01*
X110901D01*
X111568Y98069D01*
Y94737D02*
X110901Y94070D01*
Y92737D01*
X111568Y92071D01*
X112234D01*
X112901Y92737D01*
Y93404D01*
Y92737D01*
X113567Y92071D01*
X114234D01*
X114900Y92737D01*
Y94070D01*
X114234Y94737D01*
X120901Y105400D02*
Y104067D01*
Y104734D01*
X124900D01*
Y105400D01*
Y104067D01*
X120901Y100068D02*
Y101401D01*
X121568Y102068D01*
X124233D01*
X124900Y101401D01*
Y100068D01*
X124233Y99402D01*
X121568D01*
X120901Y100068D01*
X124900Y98069D02*
Y96736D01*
Y97403D01*
X120901D01*
X121568Y98069D01*
X124900Y92071D02*
Y94737D01*
X122234Y92071D01*
X121568D01*
X120901Y92737D01*
Y94070D01*
X121568Y94737D01*
X130901Y105400D02*
Y104067D01*
Y104734D01*
X134900D01*
Y105400D01*
Y104067D01*
X130901Y100068D02*
Y101401D01*
X131568Y102068D01*
X134233D01*
X134900Y101401D01*
Y100068D01*
X134233Y99402D01*
X131568D01*
X130901Y100068D01*
X134900Y98069D02*
Y96736D01*
Y97403D01*
X130901D01*
X131568Y98069D01*
X134900Y94737D02*
Y93404D01*
Y94070D01*
X130901D01*
X131568Y94737D01*
X140901Y105400D02*
Y104067D01*
Y104734D01*
X144900D01*
Y105400D01*
Y104067D01*
X140901Y100068D02*
Y101401D01*
X141568Y102068D01*
X144234D01*
X144900Y101401D01*
Y100068D01*
X144234Y99402D01*
X141568D01*
X140901Y100068D01*
X144900Y98069D02*
Y96736D01*
Y97403D01*
X140901D01*
X141568Y98069D01*
Y94737D02*
X140901Y94070D01*
Y92737D01*
X141568Y92071D01*
X144234D01*
X144900Y92737D01*
Y94070D01*
X144234Y94737D01*
X141568D01*
X150901Y105400D02*
Y104067D01*
Y104734D01*
X154900D01*
Y105400D01*
Y104067D01*
X150901Y100068D02*
Y101401D01*
X151568Y102068D01*
X154234D01*
X154900Y101401D01*
Y100068D01*
X154234Y99402D01*
X151568D01*
X150901Y100068D01*
X154234Y98069D02*
X154900Y97403D01*
Y96070D01*
X154234Y95403D01*
X151568D01*
X150901Y96070D01*
Y97403D01*
X151568Y98069D01*
X152234D01*
X152901Y97403D01*
Y95403D01*
X60901Y105400D02*
Y104067D01*
Y104734D01*
X64900D01*
Y105400D01*
Y104067D01*
X60901Y100068D02*
Y101401D01*
X61568Y102068D01*
X64234D01*
X64900Y101401D01*
Y100068D01*
X64234Y99402D01*
X61568D01*
X60901Y100068D01*
X64900Y98069D02*
Y96736D01*
Y97403D01*
X60901D01*
X61568Y98069D01*
Y94737D02*
X60901Y94070D01*
Y92737D01*
X61568Y92071D01*
X62234D01*
X62901Y92737D01*
X63567Y92071D01*
X64234D01*
X64900Y92737D01*
Y94070D01*
X64234Y94737D01*
X63567D01*
X62901Y94070D01*
X62234Y94737D01*
X61568D01*
X62901Y94070D02*
Y92737D01*
X70901Y105400D02*
Y104067D01*
Y104734D01*
X74900D01*
Y105400D01*
Y104067D01*
X70901Y100068D02*
Y101401D01*
X71568Y102068D01*
X74234D01*
X74900Y101401D01*
Y100068D01*
X74234Y99402D01*
X71568D01*
X70901Y100068D01*
X74900Y98069D02*
Y96736D01*
Y97403D01*
X70901D01*
X71568Y98069D01*
X70901Y94737D02*
Y92071D01*
X71568D01*
X74234Y94737D01*
X74900D01*
X80901Y105400D02*
Y104067D01*
Y104734D01*
X84900D01*
Y105400D01*
Y104067D01*
X80901Y100068D02*
Y101401D01*
X81568Y102068D01*
X84234D01*
X84900Y101401D01*
Y100068D01*
X84234Y99402D01*
X81568D01*
X80901Y100068D01*
X84900Y98069D02*
Y96736D01*
Y97403D01*
X80901D01*
X81568Y98069D01*
X80901Y92071D02*
X81568Y93404D01*
X82901Y94737D01*
X84234D01*
X84900Y94070D01*
Y92737D01*
X84234Y92071D01*
X83567D01*
X82901Y92737D01*
Y94737D01*
X90901Y105400D02*
Y104067D01*
Y104734D01*
X94900D01*
Y105400D01*
Y104067D01*
X90901Y100068D02*
Y101401D01*
X91568Y102068D01*
X94234D01*
X94900Y101401D01*
Y100068D01*
X94234Y99402D01*
X91568D01*
X90901Y100068D01*
X94900Y98069D02*
Y96736D01*
Y97403D01*
X90901D01*
X91568Y98069D01*
X90901Y92071D02*
Y94737D01*
X92901D01*
X92234Y93404D01*
Y92737D01*
X92901Y92071D01*
X94234D01*
X94900Y92737D01*
Y94070D01*
X94234Y94737D01*
X100901Y105400D02*
Y104067D01*
Y104734D01*
X104900D01*
Y105400D01*
Y104067D01*
X100901Y100068D02*
Y101401D01*
X101568Y102068D01*
X104234D01*
X104900Y101401D01*
Y100068D01*
X104234Y99402D01*
X101568D01*
X100901Y100068D01*
X104900Y98069D02*
Y96736D01*
Y97403D01*
X100901D01*
X101568Y98069D01*
X104900Y92737D02*
X100901D01*
X102901Y94737D01*
Y92071D01*
X41568Y102734D02*
X40901Y103401D01*
Y104734D01*
X41568Y105400D01*
X44234D01*
X44900Y104734D01*
Y103401D01*
X44234Y102734D01*
X42901D01*
Y104067D01*
X44900Y101401D02*
X40901D01*
X44900Y98735D01*
X40901D01*
Y97403D02*
X44900D01*
Y95403D01*
X44234Y94737D01*
X41568D01*
X40901Y95403D01*
Y97403D01*
X50901Y102734D02*
Y105400D01*
X52901D01*
X52234Y104067D01*
Y103401D01*
X52901Y102734D01*
X54234D01*
X54900Y103401D01*
Y104734D01*
X54234Y105400D01*
X50901Y101401D02*
X53567D01*
X54900Y100068D01*
X53567Y98735D01*
X50901D01*
X230901Y105400D02*
Y104067D01*
Y104734D01*
X234900D01*
Y105400D01*
Y104067D01*
X230901Y100068D02*
Y101401D01*
X231568Y102068D01*
X234234D01*
X234900Y101401D01*
Y100068D01*
X234234Y99402D01*
X231568D01*
X230901Y100068D01*
X234900Y98069D02*
Y96736D01*
Y97403D01*
X230901D01*
X231568Y98069D01*
X251568Y105400D02*
X250901Y104734D01*
Y103401D01*
X251568Y102734D01*
X252234D01*
X252901Y103401D01*
Y104067D01*
Y103401D01*
X253567Y102734D01*
X254234D01*
X254900Y103401D01*
Y104734D01*
X254234Y105400D01*
X250901Y101401D02*
X253567D01*
X254900Y100068D01*
X253567Y98735D01*
X250901D01*
X251568Y97403D02*
X250901Y96736D01*
Y95403D01*
X251568Y94737D01*
X252234D01*
X252901Y95403D01*
Y96070D01*
Y95403D01*
X253567Y94737D01*
X254234D01*
X254900Y95403D01*
Y96736D01*
X254234Y97403D01*
X261568Y102734D02*
X260901Y103401D01*
Y104734D01*
X261568Y105400D01*
X264234D01*
X264900Y104734D01*
Y103401D01*
X264234Y102734D01*
X262901D01*
Y104067D01*
X264900Y101401D02*
X260901D01*
X264900Y98735D01*
X260901D01*
Y97403D02*
X264900D01*
Y95403D01*
X264234Y94737D01*
X261568D01*
X260901Y95403D01*
Y97403D01*
X260500Y-3400D02*
Y-2067D01*
Y-2733D01*
X264499D01*
X263832Y-3400D01*
X260600Y120100D02*
Y121433D01*
Y120766D01*
X264599D01*
X263932Y120100D01*
D80*
X27500Y0D02*
X267500D01*
X27500D02*
Y10000D01*
X267500D01*
Y0D02*
Y10000D01*
X27500Y107500D02*
X267500D01*
X27500D02*
Y117500D01*
X267500D01*
Y107500D02*
Y117500D01*
M02*
