G04*
G04 #@! TF.GenerationSoftware,Altium Limited,Altium Designer,24.9.1 (31)*
G04*
G04 Layer_Color=65535*
%FSLAX44Y44*%
%MOMM*%
G71*
G04*
G04 #@! TF.SameCoordinates,469D3FAF-4634-46EC-B0C0-F224D0B9B898*
G04*
G04*
G04 #@! TF.FilePolarity,Positive*
G04*
G01*
G75*
%ADD10C,0.2540*%
%ADD11C,0.2000*%
%ADD12C,0.1778*%
D10*
X213458Y195580D02*
G03*
X229722Y195580I8132J0D01*
G01*
X236830Y146050D02*
Y195580D01*
X206350Y146050D02*
X236830D01*
X206350D02*
Y195580D01*
X213458D01*
X229722D02*
X236830D01*
D11*
X204080Y124830D02*
X205580D01*
X204080Y139330D02*
X205580D01*
X206586Y232761D02*
X239648D01*
X206586Y209199D02*
X239648D01*
X171801Y171429D02*
Y204491D01*
X148239Y171429D02*
Y204491D01*
X133360Y13220D02*
Y218720D01*
X13360Y13220D02*
X133360D01*
X13360Y218720D02*
X133360D01*
X13360Y13220D02*
Y218720D01*
X282100Y170550D02*
X283600D01*
X282100Y185050D02*
X283600D01*
D12*
X180188Y187198D02*
X182727D01*
X181458D01*
Y194816D01*
X180188Y193546D01*
X180086Y214881D02*
Y208534D01*
X181356Y207264D01*
X183895D01*
X185164Y208534D01*
Y214881D01*
X187703Y207264D02*
X190243D01*
X188973D01*
Y214881D01*
X187703Y213612D01*
X190500Y119379D02*
X189230Y120649D01*
X186691D01*
X185422Y119379D01*
Y114301D01*
X186691Y113031D01*
X189230D01*
X190500Y114301D01*
X193039Y113031D02*
X195578D01*
X194309D01*
Y120649D01*
X193039Y119379D01*
X202438Y241554D02*
Y249172D01*
X206247D01*
X207516Y247902D01*
Y245363D01*
X206247Y244093D01*
X202438D01*
X204977D02*
X207516Y241554D01*
X215134D02*
X210056D01*
X215134Y246632D01*
Y247902D01*
X213864Y249172D01*
X211325D01*
X210056Y247902D01*
X148082Y217424D02*
Y225042D01*
X151891D01*
X153160Y223772D01*
Y221233D01*
X151891Y219963D01*
X148082D01*
X150621D02*
X153160Y217424D01*
X155700D02*
X158239D01*
X156969D01*
Y225042D01*
X155700Y223772D01*
X18032Y235455D02*
X15493D01*
X16763D01*
Y229108D01*
X15493Y227838D01*
X14224D01*
X12954Y229108D01*
X20571Y227838D02*
X23111D01*
X21841D01*
Y235455D01*
X20571Y234186D01*
X272794Y202436D02*
X271525Y203706D01*
X268986D01*
X267716Y202436D01*
Y197358D01*
X268986Y196088D01*
X271525D01*
X272794Y197358D01*
X280412Y196088D02*
X275333D01*
X280412Y201166D01*
Y202436D01*
X279142Y203706D01*
X276603D01*
X275333Y202436D01*
M02*
