G04*
G04 #@! TF.GenerationSoftware,Altium Limited,Altium Designer,24.10.1 (45)*
G04*
G04 Layer_Physical_Order=2*
G04 Layer_Color=36540*
%FSLAX25Y25*%
%MOIN*%
G70*
G04*
G04 #@! TF.SameCoordinates,F1117688-C2E4-4B3A-BF9F-62EBCE255B8A*
G04*
G04*
G04 #@! TF.FilePolarity,Positive*
G04*
G01*
G75*
G04:AMPARAMS|DCode=53|XSize=39.37mil|YSize=70.87mil|CornerRadius=19.68mil|HoleSize=0mil|Usage=FLASHONLY|Rotation=270.000|XOffset=0mil|YOffset=0mil|HoleType=Round|Shape=RoundedRectangle|*
%AMROUNDEDRECTD53*
21,1,0.03937,0.03150,0,0,270.0*
21,1,0.00000,0.07087,0,0,270.0*
1,1,0.03937,-0.01575,0.00000*
1,1,0.03937,-0.01575,0.00000*
1,1,0.03937,0.01575,0.00000*
1,1,0.03937,0.01575,0.00000*
%
%ADD53ROUNDEDRECTD53*%
G04:AMPARAMS|DCode=54|XSize=39.37mil|YSize=86.61mil|CornerRadius=19.68mil|HoleSize=0mil|Usage=FLASHONLY|Rotation=270.000|XOffset=0mil|YOffset=0mil|HoleType=Round|Shape=RoundedRectangle|*
%AMROUNDEDRECTD54*
21,1,0.03937,0.04724,0,0,270.0*
21,1,0.00000,0.08661,0,0,270.0*
1,1,0.03937,-0.02362,0.00000*
1,1,0.03937,-0.02362,0.00000*
1,1,0.03937,0.02362,0.00000*
1,1,0.03937,0.02362,0.00000*
%
%ADD54ROUNDEDRECTD54*%
%ADD63C,0.04000*%
%ADD67C,0.06400*%
%ADD68R,0.06400X0.06400*%
%ADD69C,0.04000*%
%ADD70R,0.04000X0.04000*%
%ADD71R,0.04000X0.04000*%
%ADD72C,0.02400*%
%ADD73C,0.03000*%
G36*
X267400Y115500D02*
Y109556D01*
X266800Y109235D01*
X266790Y109242D01*
X266400Y109320D01*
X259320D01*
Y116300D01*
X259769Y116900D01*
X266000D01*
X267400Y115500D01*
D02*
G37*
G36*
X258300Y109320D02*
Y108300D01*
X266300D01*
X266400Y108280D01*
Y27872D01*
X265800Y27410D01*
X265646Y27450D01*
X265565Y27646D01*
X264946Y28265D01*
X264325Y28522D01*
X264325Y28522D01*
X264138Y28600D01*
X263262D01*
X262454Y28265D01*
X261835Y27646D01*
X261500Y26838D01*
Y25962D01*
X261835Y25154D01*
X262454Y24535D01*
X263075Y24278D01*
X263075Y24278D01*
X263262Y24200D01*
X264138D01*
X264946Y24535D01*
X265565Y25154D01*
X265646Y25350D01*
X265800Y25390D01*
X266400Y24928D01*
Y1341D01*
X266300Y1300D01*
X255535Y1272D01*
X255514Y1383D01*
X255511Y1387D01*
X255510Y1391D01*
X255349Y1779D01*
X255332Y1867D01*
X255381Y1942D01*
X255861Y2421D01*
X256414Y3379D01*
X256700Y4447D01*
Y5553D01*
X256414Y6621D01*
X255861Y7579D01*
X255079Y8361D01*
X254121Y8914D01*
X253053Y9200D01*
X251947D01*
X250879Y8914D01*
X249921Y8361D01*
X249139Y7579D01*
X248586Y6621D01*
X248300Y5553D01*
Y4447D01*
X248586Y3379D01*
X249139Y2421D01*
X249633Y1927D01*
X249683Y1852D01*
X249666Y1764D01*
X249511Y1389D01*
X249509Y1380D01*
X249504Y1372D01*
X249483Y1256D01*
X245534Y1245D01*
X245284Y1845D01*
X245861Y2421D01*
X246414Y3379D01*
X246700Y4447D01*
Y5553D01*
X246414Y6621D01*
X245861Y7579D01*
X245079Y8361D01*
X244121Y8914D01*
X243053Y9200D01*
X241947D01*
X240879Y8914D01*
X239921Y8361D01*
X239139Y7579D01*
X238586Y6621D01*
X238300Y5553D01*
Y4447D01*
X238586Y3379D01*
X239139Y2421D01*
X239730Y1830D01*
X239482Y1229D01*
X235507Y1219D01*
X235258Y1818D01*
X235861Y2421D01*
X236414Y3379D01*
X236700Y4447D01*
Y5553D01*
X236414Y6621D01*
X235861Y7579D01*
X235079Y8361D01*
X234121Y8914D01*
X233053Y9200D01*
X231947D01*
X230879Y8914D01*
X229921Y8361D01*
X229139Y7579D01*
X228520Y7707D01*
X228300Y7902D01*
Y8300D01*
X227650Y16017D01*
X227504Y17754D01*
X227506Y17796D01*
X227543Y17815D01*
X247400Y24900D01*
X248817Y25885D01*
X257825Y32148D01*
X257825Y32148D01*
X257900Y32200D01*
X260047Y34347D01*
X260126Y34400D01*
X260219Y34418D01*
X260442D01*
X260629Y34496D01*
X260629Y34496D01*
X261250Y34753D01*
X261869Y35372D01*
X262204Y36181D01*
Y37056D01*
X261869Y37864D01*
X261833Y37901D01*
X261821Y37930D01*
X261800Y38034D01*
Y38549D01*
X261821Y38653D01*
X261833Y38682D01*
X261869Y38718D01*
X262204Y39527D01*
Y40402D01*
X261869Y41211D01*
X261833Y41247D01*
X261821Y41276D01*
X261800Y41380D01*
Y41895D01*
X261821Y41999D01*
X261833Y42029D01*
X261869Y42065D01*
X262204Y42873D01*
Y43749D01*
X261869Y44557D01*
X261833Y44593D01*
X261821Y44623D01*
X261800Y44727D01*
Y45242D01*
X261821Y45346D01*
X261833Y45375D01*
X261869Y45411D01*
X262204Y46220D01*
Y47095D01*
X261869Y47904D01*
X261833Y47940D01*
X261821Y47969D01*
X261800Y48073D01*
Y48588D01*
X261821Y48692D01*
X261833Y48722D01*
X261869Y48758D01*
X262204Y49566D01*
Y50442D01*
X261869Y51250D01*
X261833Y51286D01*
X261821Y51316D01*
X261800Y51420D01*
Y51800D01*
X261825Y51925D01*
X262000Y52100D01*
X261920Y52180D01*
X261926Y52193D01*
Y52193D01*
X261945Y52287D01*
X262204Y52913D01*
Y53788D01*
X261938Y54429D01*
X261900Y54622D01*
Y55425D01*
X261938Y55618D01*
X262204Y56259D01*
Y57134D01*
X261938Y57776D01*
X261900Y57969D01*
Y58772D01*
X261938Y58965D01*
X262204Y59606D01*
Y60481D01*
X261938Y61122D01*
X261900Y61315D01*
Y62118D01*
X261938Y62311D01*
X262204Y62952D01*
Y63827D01*
X261938Y64469D01*
X261900Y64662D01*
Y65464D01*
X261938Y65657D01*
X262204Y66299D01*
Y67174D01*
X261938Y67815D01*
X261900Y68008D01*
Y68811D01*
X261938Y69004D01*
X262204Y69645D01*
Y70520D01*
X261938Y71161D01*
X261900Y71355D01*
Y72157D01*
X261938Y72350D01*
X262204Y72992D01*
Y73867D01*
X261938Y74508D01*
X261900Y74701D01*
Y75504D01*
X261938Y75697D01*
X262204Y76338D01*
Y77213D01*
X261938Y77854D01*
X261900Y78048D01*
Y78850D01*
X261938Y79043D01*
X262204Y79684D01*
Y80560D01*
X261938Y81201D01*
X261900Y81394D01*
Y82197D01*
X261938Y82390D01*
X262204Y83031D01*
Y83906D01*
X261938Y84547D01*
X261900Y84741D01*
Y88800D01*
X259500Y91200D01*
X259335D01*
X259318Y91212D01*
X259300Y91300D01*
Y91700D01*
X255200Y95800D01*
X254900D01*
X254808Y95818D01*
X254729Y95871D01*
X253071Y97529D01*
X253018Y97608D01*
X253005Y97673D01*
X253000Y97686D01*
Y97738D01*
X252665Y98546D01*
X252046Y99165D01*
X251238Y99500D01*
X250362D01*
X249554Y99165D01*
X249519Y99131D01*
X249502Y99127D01*
X249502Y99127D01*
X249502D01*
X249499Y99126D01*
X249423Y99177D01*
X247400Y101200D01*
X245300D01*
X240700Y96600D01*
Y95100D01*
X240683Y95017D01*
X240600Y95000D01*
X217100D01*
X216571Y94471D01*
X216500Y94424D01*
X216429Y94471D01*
X215900Y95000D01*
X202500D01*
X196000Y88500D01*
Y87901D01*
X196000Y87900D01*
X196000Y87900D01*
X194000Y87500D01*
X192900Y86900D01*
X187100D01*
X183271Y83071D01*
X183200Y83024D01*
X183129Y83071D01*
X182900Y83300D01*
X151900D01*
X151500Y82900D01*
Y82280D01*
Y63300D01*
X151481Y63208D01*
X151429Y63129D01*
X145900Y57600D01*
Y57300D01*
X145883Y57217D01*
X145800Y57200D01*
X141600D01*
X141508Y57218D01*
X141429Y57271D01*
X141000Y57700D01*
Y59803D01*
X141026Y60000D01*
X141000Y60197D01*
Y62000D01*
X144800Y65800D01*
Y70100D01*
X144571Y70329D01*
X144518Y70408D01*
X144500Y70500D01*
Y81480D01*
Y82500D01*
X128300D01*
X127671Y81871D01*
X127600Y81824D01*
X127529Y81871D01*
X111599Y97801D01*
X111300Y98100D01*
X95685D01*
X95592Y98118D01*
X95571Y98133D01*
X95565Y98146D01*
X94946Y98765D01*
X94340Y99016D01*
X94340Y99016D01*
X94138Y99100D01*
X93262D01*
X92454Y98765D01*
X91835Y98146D01*
X91829Y98133D01*
X91808Y98118D01*
X91772Y98111D01*
X91772Y98111D01*
X91772D01*
X91715Y98100D01*
X89900D01*
X89808Y98118D01*
X89729Y98171D01*
X88200Y99700D01*
Y110299D01*
X88206Y110343D01*
X88208Y110344D01*
X88248Y110361D01*
X88391Y110399D01*
X88411Y110409D01*
X88433Y110411D01*
X88731Y110505D01*
X88785Y110534D01*
X89139Y109921D01*
X89921Y109139D01*
X90879Y108586D01*
X91947Y108300D01*
X93053D01*
X94121Y108586D01*
X95079Y109139D01*
X95861Y109921D01*
X96414Y110879D01*
X96700Y111947D01*
Y113053D01*
X96414Y114121D01*
X95861Y115079D01*
X95240Y115700D01*
X95467Y116300D01*
X99533D01*
X99760Y115700D01*
X99139Y115079D01*
X98586Y114121D01*
X98300Y113053D01*
Y111947D01*
X98586Y110879D01*
X99139Y109921D01*
X99921Y109139D01*
X100879Y108586D01*
X101947Y108300D01*
X103053D01*
X104121Y108586D01*
X105079Y109139D01*
X105861Y109921D01*
X106414Y110879D01*
X106700Y111947D01*
Y113053D01*
X106414Y114121D01*
X105861Y115079D01*
X105240Y115700D01*
X105467Y116300D01*
X109533D01*
X109760Y115700D01*
X109139Y115079D01*
X108586Y114121D01*
X108300Y113053D01*
Y111947D01*
X108586Y110879D01*
X109139Y109921D01*
X109921Y109139D01*
X110879Y108586D01*
X111947Y108300D01*
X113053D01*
X114121Y108586D01*
X115079Y109139D01*
X115861Y109921D01*
X116414Y110879D01*
X116700Y111947D01*
Y113053D01*
X116414Y114121D01*
X115861Y115079D01*
X115240Y115700D01*
X115467Y116300D01*
X119533D01*
X119760Y115700D01*
X119139Y115079D01*
X118586Y114121D01*
X118300Y113053D01*
Y111947D01*
X118586Y110879D01*
X119139Y109921D01*
X119921Y109139D01*
X120879Y108586D01*
X121947Y108300D01*
X123053D01*
X124121Y108586D01*
X125079Y109139D01*
X125861Y109921D01*
X126414Y110879D01*
X126700Y111947D01*
Y113053D01*
X126414Y114121D01*
X125861Y115079D01*
X125240Y115700D01*
X125467Y116300D01*
X129533D01*
X129760Y115700D01*
X129139Y115079D01*
X128586Y114121D01*
X128300Y113053D01*
Y111947D01*
X128586Y110879D01*
X129139Y109921D01*
X129921Y109139D01*
X130879Y108586D01*
X131947Y108300D01*
X133053D01*
X134121Y108586D01*
X135079Y109139D01*
X135861Y109921D01*
X136414Y110879D01*
X136700Y111947D01*
Y113053D01*
X136414Y114121D01*
X135861Y115079D01*
X135240Y115700D01*
X135467Y116300D01*
X139533D01*
X139760Y115700D01*
X139139Y115079D01*
X138586Y114121D01*
X138300Y113053D01*
Y111947D01*
X138586Y110879D01*
X139139Y109921D01*
X139921Y109139D01*
X140879Y108586D01*
X141947Y108300D01*
X143053D01*
X144121Y108586D01*
X145079Y109139D01*
X145861Y109921D01*
X146414Y110879D01*
X146700Y111947D01*
Y113053D01*
X146414Y114121D01*
X145861Y115079D01*
X145240Y115700D01*
X145467Y116300D01*
X149533D01*
X149760Y115700D01*
X149139Y115079D01*
X148586Y114121D01*
X148300Y113053D01*
Y111947D01*
X148586Y110879D01*
X149139Y109921D01*
X149921Y109139D01*
X150879Y108586D01*
X151947Y108300D01*
X153053D01*
X154121Y108586D01*
X155079Y109139D01*
X155861Y109921D01*
X156414Y110879D01*
X156700Y111947D01*
Y113053D01*
X156414Y114121D01*
X155861Y115079D01*
X155240Y115700D01*
X155467Y116300D01*
X159533D01*
X159760Y115700D01*
X159139Y115079D01*
X158586Y114121D01*
X158300Y113053D01*
Y111947D01*
X158586Y110879D01*
X159139Y109921D01*
X159921Y109139D01*
X160879Y108586D01*
X161947Y108300D01*
X163053D01*
X164121Y108586D01*
X165079Y109139D01*
X165861Y109921D01*
X166414Y110879D01*
X166700Y111947D01*
Y113053D01*
X166414Y114121D01*
X165861Y115079D01*
X165240Y115700D01*
X165467Y116300D01*
X169533D01*
X169760Y115700D01*
X169139Y115079D01*
X168586Y114121D01*
X168300Y113053D01*
Y111947D01*
X168586Y110879D01*
X169139Y109921D01*
X169921Y109139D01*
X170879Y108586D01*
X171947Y108300D01*
X173053D01*
X174121Y108586D01*
X175079Y109139D01*
X175861Y109921D01*
X176414Y110879D01*
X176700Y111947D01*
Y113053D01*
X176414Y114121D01*
X175861Y115079D01*
X175240Y115700D01*
X175467Y116300D01*
X179533D01*
X179760Y115700D01*
X179139Y115079D01*
X178586Y114121D01*
X178300Y113053D01*
Y111947D01*
X178586Y110879D01*
X179139Y109921D01*
X179921Y109139D01*
X180879Y108586D01*
X181947Y108300D01*
X183053D01*
X184121Y108586D01*
X185079Y109139D01*
X185861Y109921D01*
X186414Y110879D01*
X186700Y111947D01*
Y113053D01*
X186414Y114121D01*
X185861Y115079D01*
X185240Y115700D01*
X185467Y116300D01*
X189533D01*
X189760Y115700D01*
X189139Y115079D01*
X188586Y114121D01*
X188300Y113053D01*
Y111947D01*
X188586Y110879D01*
X189139Y109921D01*
X189921Y109139D01*
X190879Y108586D01*
X191947Y108300D01*
X193053D01*
X194121Y108586D01*
X195079Y109139D01*
X195861Y109921D01*
X196414Y110879D01*
X196700Y111947D01*
Y113053D01*
X196414Y114121D01*
X195861Y115079D01*
X195240Y115700D01*
X195467Y116300D01*
X199533D01*
X199760Y115700D01*
X199139Y115079D01*
X198586Y114121D01*
X198300Y113053D01*
Y111947D01*
X198586Y110879D01*
X199139Y109921D01*
X199921Y109139D01*
X200879Y108586D01*
X201947Y108300D01*
X203053D01*
X204121Y108586D01*
X205079Y109139D01*
X205861Y109921D01*
X206414Y110879D01*
X206700Y111947D01*
Y113053D01*
X206414Y114121D01*
X205861Y115079D01*
X205240Y115700D01*
X205467Y116300D01*
X209533D01*
X209760Y115700D01*
X209139Y115079D01*
X208586Y114121D01*
X208300Y113053D01*
Y111947D01*
X208586Y110879D01*
X209139Y109921D01*
X209921Y109139D01*
X210879Y108586D01*
X211947Y108300D01*
X213053D01*
X214121Y108586D01*
X215079Y109139D01*
X215861Y109921D01*
X216414Y110879D01*
X216700Y111947D01*
Y113053D01*
X216414Y114121D01*
X215861Y115079D01*
X215240Y115700D01*
X215467Y116300D01*
X219533D01*
X219760Y115700D01*
X219139Y115079D01*
X218586Y114121D01*
X218300Y113053D01*
Y111947D01*
X218586Y110879D01*
X219139Y109921D01*
X219921Y109139D01*
X220879Y108586D01*
X221947Y108300D01*
X223053D01*
X224121Y108586D01*
X225079Y109139D01*
X225861Y109921D01*
X226414Y110879D01*
X226700Y111947D01*
Y113053D01*
X226414Y114121D01*
X225861Y115079D01*
X225240Y115700D01*
X225467Y116300D01*
X229533D01*
X229760Y115700D01*
X229139Y115079D01*
X228586Y114121D01*
X228300Y113053D01*
Y111947D01*
X228586Y110879D01*
X229139Y109921D01*
X229921Y109139D01*
X230879Y108586D01*
X231947Y108300D01*
X233053D01*
X234121Y108586D01*
X235079Y109139D01*
X235861Y109921D01*
X236414Y110879D01*
X236700Y111947D01*
Y113053D01*
X236414Y114121D01*
X235861Y115079D01*
X235240Y115700D01*
X235467Y116300D01*
X239533D01*
X239760Y115700D01*
X239139Y115079D01*
X238586Y114121D01*
X238300Y113053D01*
Y111947D01*
X238586Y110879D01*
X239139Y109921D01*
X239921Y109139D01*
X240879Y108586D01*
X241947Y108300D01*
X243053D01*
X244121Y108586D01*
X245079Y109139D01*
X245861Y109921D01*
X246414Y110879D01*
X246700Y111947D01*
Y113053D01*
X246414Y114121D01*
X245861Y115079D01*
X245240Y115700D01*
X245467Y116300D01*
X258300D01*
Y109320D01*
D02*
G37*
G36*
X87180Y116300D02*
Y114652D01*
X87194Y114586D01*
X87189Y114519D01*
X87232Y114393D01*
X87258Y114262D01*
X87295Y114206D01*
X87317Y114142D01*
X87405Y114042D01*
X87479Y113931D01*
X87535Y113894D01*
X87579Y113843D01*
X87699Y113784D01*
X87810Y113710D01*
X87858Y113701D01*
X87888Y113691D01*
X87936Y113667D01*
X88128Y113616D01*
X88426Y113523D01*
X88300Y113053D01*
Y111947D01*
X88426Y111477D01*
X88128Y111384D01*
X87936Y111333D01*
X87888Y111309D01*
X87858Y111299D01*
X87810Y111290D01*
X87699Y111216D01*
X87579Y111157D01*
X87535Y111106D01*
X87479Y111069D01*
X87405Y110958D01*
X87317Y110858D01*
X87295Y110794D01*
X87258Y110738D01*
X87232Y110607D01*
X87189Y110481D01*
X87194Y110414D01*
X87180Y110348D01*
Y104052D01*
X86957Y104023D01*
X86227Y103720D01*
X85600Y103240D01*
X85452Y103092D01*
X84864Y103209D01*
X84765Y103446D01*
X84146Y104065D01*
X83338Y104400D01*
X82462D01*
X81654Y104065D01*
X81035Y103446D01*
X80700Y102638D01*
Y101762D01*
X80823Y101466D01*
X80523Y100946D01*
X80347Y100923D01*
X79617Y100620D01*
X78991Y100140D01*
X78991Y100140D01*
X76647Y97796D01*
X76166Y97170D01*
X75864Y96440D01*
X75761Y95657D01*
Y88793D01*
X75864Y88010D01*
X76166Y87280D01*
X76647Y86654D01*
X78274Y85027D01*
Y72114D01*
X76918Y70758D01*
X76587Y70621D01*
X75960Y70140D01*
X75960Y70140D01*
X74060Y68240D01*
X73580Y67613D01*
X73277Y66883D01*
X73174Y66100D01*
X73277Y65317D01*
X73580Y64587D01*
X74060Y63960D01*
X74687Y63480D01*
X75417Y63177D01*
X76200Y63074D01*
X76983Y63177D01*
X77713Y63480D01*
X78340Y63960D01*
X79622Y65242D01*
X79953Y65380D01*
X80579Y65860D01*
X83440Y68721D01*
X83921Y69347D01*
X84223Y70077D01*
X84326Y70860D01*
Y86280D01*
X84223Y87063D01*
X83921Y87793D01*
X83440Y88420D01*
X81813Y90047D01*
Y94403D01*
X82384Y94974D01*
X84640D01*
X85423Y95077D01*
X86153Y95380D01*
X86779Y95860D01*
X88688Y97770D01*
X89079Y97379D01*
X89410Y97158D01*
X89800Y97080D01*
X91816D01*
X91971Y97111D01*
X92206Y97158D01*
X92206Y97158D01*
X92206D01*
X92306Y97225D01*
X92537Y97379D01*
X92537Y97379D01*
X92591Y97461D01*
X93031Y97901D01*
X93450Y98074D01*
X93950D01*
X94369Y97901D01*
X94809Y97461D01*
X94863Y97379D01*
X94863Y97379D01*
X94863Y97379D01*
X94995Y97291D01*
X95194Y97158D01*
X95194Y97158D01*
X95194Y97158D01*
X95584Y97080D01*
X110878D01*
X126879Y81079D01*
X127210Y80858D01*
X127600Y80780D01*
X127990Y80858D01*
X128321Y81079D01*
X128722Y81480D01*
X143480D01*
Y70400D01*
X143558Y70010D01*
X143779Y69679D01*
X143780Y69678D01*
Y66222D01*
X140558Y63000D01*
X138197D01*
X138000Y63026D01*
X137803Y63000D01*
X135000D01*
Y61279D01*
X128941Y55221D01*
X127956D01*
X127173Y55117D01*
X126443Y54815D01*
X125816Y54334D01*
X118011Y46529D01*
X117530Y45902D01*
X117228Y45172D01*
X117124Y44389D01*
Y34664D01*
X110866Y28406D01*
X110285Y28673D01*
X110242Y28890D01*
X110021Y29221D01*
X109690Y29442D01*
X109300Y29520D01*
X88000D01*
X87610Y29442D01*
X87279Y29221D01*
X81078Y23020D01*
X46463D01*
X46375Y23002D01*
X46285Y23004D01*
X45722Y22904D01*
X45688Y22891D01*
X45653Y22889D01*
X45504Y22819D01*
X45351Y22759D01*
X45325Y22734D01*
X45293Y22719D01*
X45183Y22598D01*
X45064Y22484D01*
X45050Y22451D01*
X45026Y22424D01*
X44726Y21924D01*
X44275Y21836D01*
X44061Y21862D01*
X44000Y21898D01*
X43696Y22633D01*
X43361Y22967D01*
X43336Y23546D01*
X43420Y23692D01*
X43896Y24167D01*
X44200Y24902D01*
Y25698D01*
X43896Y26433D01*
X43333Y26996D01*
X42598Y27300D01*
X41802D01*
X41067Y26996D01*
X40505Y26433D01*
X40200Y25698D01*
Y24902D01*
X40505Y24167D01*
X40839Y23833D01*
X40864Y23255D01*
X40780Y23108D01*
X40304Y22633D01*
X40000Y21898D01*
Y21102D01*
X40304Y20367D01*
X40867Y19805D01*
X41602Y19500D01*
X42398D01*
X43133Y19805D01*
X43696Y20367D01*
X43941Y20960D01*
X44000Y21102D01*
X44196Y21086D01*
Y21086D01*
X44580Y21055D01*
X44580Y20992D01*
Y12200D01*
X44658Y11810D01*
X44879Y11479D01*
X45210Y11258D01*
X45600Y11180D01*
X110600D01*
X110990Y11258D01*
X111321Y11479D01*
X111921Y12079D01*
X112142Y12410D01*
X112220Y12800D01*
X112142Y13190D01*
X111921Y13521D01*
X110320Y15122D01*
Y19301D01*
X122290Y31271D01*
X122771Y31898D01*
X123073Y32628D01*
X123176Y33411D01*
Y43136D01*
X129209Y49169D01*
X130195D01*
X130978Y49272D01*
X131708Y49574D01*
X132334Y50055D01*
X139279Y57000D01*
X140265D01*
X140279Y56979D01*
X140779Y56479D01*
X141110Y56258D01*
X141500Y56180D01*
X145900D01*
X146290Y56258D01*
X146621Y56479D01*
X146842Y56810D01*
X146914Y57172D01*
X152221Y62479D01*
X152442Y62810D01*
X152520Y63200D01*
Y82280D01*
X182478D01*
X182479Y82279D01*
X182810Y82058D01*
X183200Y81980D01*
X183590Y82058D01*
X183921Y82279D01*
X187522Y85880D01*
X192900D01*
X193183Y85678D01*
X193351Y85477D01*
X193400Y85368D01*
Y85084D01*
X193735Y84275D01*
X194354Y83656D01*
X195162Y83321D01*
X196038D01*
X196846Y83656D01*
X197465Y84275D01*
X197800Y85084D01*
Y85959D01*
X197465Y86767D01*
X196863Y87370D01*
X196887Y87427D01*
X196942Y87510D01*
X196962Y87609D01*
X197000Y87702D01*
X197000Y87802D01*
X197020Y87900D01*
Y88078D01*
X202922Y93980D01*
X215478D01*
X215779Y93679D01*
X216110Y93458D01*
X216500Y93380D01*
X216890Y93458D01*
X217221Y93679D01*
X217522Y93980D01*
X240700D01*
X241090Y94058D01*
X241421Y94279D01*
X241642Y94610D01*
X241720Y95000D01*
Y96178D01*
X245722Y100180D01*
X246978D01*
X248773Y98385D01*
X248971Y98253D01*
X249104Y98164D01*
X249104Y98164D01*
X249104Y98164D01*
X249339Y98117D01*
X249494Y98086D01*
X249494Y98086D01*
X249494Y98086D01*
X249701Y98127D01*
X249885Y98164D01*
X249885Y98164D01*
X249885Y98164D01*
X250022Y98255D01*
X250494Y98451D01*
X251106D01*
X251398Y98330D01*
X251830Y97898D01*
X252005Y97475D01*
X252058Y97210D01*
X252279Y96879D01*
X254079Y95079D01*
X254410Y94858D01*
X254772Y94786D01*
X258280Y91278D01*
Y91200D01*
X258358Y90810D01*
X258579Y90479D01*
X258910Y90258D01*
X259022Y90236D01*
X260880Y88378D01*
Y84640D01*
X260958Y84250D01*
X261155Y83774D01*
Y83163D01*
X260958Y82687D01*
X260880Y82297D01*
Y81293D01*
X260958Y80903D01*
X261155Y80428D01*
Y79816D01*
X260958Y79341D01*
X260880Y78951D01*
Y77947D01*
X260958Y77557D01*
X261155Y77081D01*
Y76470D01*
X260958Y75994D01*
X260880Y75604D01*
Y74601D01*
X260958Y74211D01*
X261155Y73735D01*
Y73124D01*
X260958Y72648D01*
X260880Y72258D01*
Y71254D01*
X260958Y70864D01*
X261155Y70388D01*
Y69777D01*
X260958Y69301D01*
X260880Y68911D01*
Y67908D01*
X260958Y67518D01*
X261155Y67042D01*
Y66430D01*
X260958Y65955D01*
X260880Y65565D01*
Y64561D01*
X260958Y64171D01*
X261155Y63696D01*
Y63084D01*
X260958Y62608D01*
X260880Y62218D01*
Y61215D01*
X260958Y60825D01*
X261155Y60349D01*
Y59738D01*
X260958Y59262D01*
X260880Y58872D01*
Y57868D01*
X260958Y57478D01*
X261155Y57003D01*
Y56391D01*
X260958Y55915D01*
X260880Y55525D01*
Y54522D01*
X260958Y54132D01*
X261155Y53656D01*
Y53045D01*
X260964Y52584D01*
X260926Y52392D01*
X260858Y52290D01*
X260780Y51900D01*
Y51319D01*
X260858Y50929D01*
X260964Y50770D01*
X261155Y50310D01*
Y49698D01*
X260964Y49238D01*
X260858Y49079D01*
X260780Y48689D01*
Y47973D01*
X260858Y47583D01*
X260964Y47423D01*
X261155Y46963D01*
Y46352D01*
X260964Y45892D01*
X260858Y45732D01*
X260780Y45342D01*
Y44626D01*
X260858Y44236D01*
X260964Y44077D01*
X261155Y43617D01*
Y43005D01*
X260964Y42545D01*
X260858Y42386D01*
X260780Y41996D01*
Y41280D01*
X260858Y40890D01*
X260964Y40730D01*
X261155Y40270D01*
Y39659D01*
X260964Y39199D01*
X260858Y39039D01*
X260780Y38649D01*
Y37933D01*
X260858Y37543D01*
X260964Y37384D01*
X261155Y36924D01*
Y36312D01*
X261034Y36020D01*
X260602Y35588D01*
X260239Y35438D01*
X260118D01*
X259728Y35360D01*
X259397Y35139D01*
X257243Y32985D01*
X246930Y25815D01*
X227157Y18760D01*
X227098Y18725D01*
X227032Y18706D01*
X226929Y18624D01*
X226816Y18556D01*
X226775Y18501D01*
X226721Y18458D01*
X226657Y18343D01*
X226579Y18237D01*
X226562Y18170D01*
X226529Y18110D01*
X226514Y17979D01*
X226482Y17851D01*
X226492Y17783D01*
X226484Y17714D01*
X227280Y8257D01*
Y7325D01*
X227293Y7259D01*
X227289Y7192D01*
X227332Y7066D01*
X227358Y6935D01*
X227395Y6879D01*
X227417Y6816D01*
X227505Y6715D01*
X227579Y6604D01*
X227635Y6567D01*
X227679Y6516D01*
X227799Y6458D01*
X227910Y6383D01*
X228436Y6062D01*
X228300Y5553D01*
Y4447D01*
X228436Y3938D01*
X227910Y3617D01*
X227799Y3542D01*
X227679Y3483D01*
X227635Y3433D01*
X227579Y3396D01*
X227505Y3285D01*
X227417Y3184D01*
X227395Y3121D01*
X227358Y3065D01*
X227332Y2934D01*
X227289Y2808D01*
X227293Y2741D01*
X227280Y2675D01*
Y1800D01*
X227316Y1622D01*
X227345Y1442D01*
X227355Y1427D01*
X227358Y1410D01*
X227459Y1259D01*
X227555Y1104D01*
X227652Y1000D01*
X227392Y400D01*
X223878D01*
X223799Y1000D01*
X224121Y1086D01*
X225079Y1639D01*
X225861Y2421D01*
X226414Y3379D01*
X226700Y4447D01*
Y5553D01*
X226414Y6621D01*
X225861Y7579D01*
X225079Y8361D01*
X224121Y8914D01*
X223053Y9200D01*
X221947D01*
X220879Y8914D01*
X219921Y8361D01*
X219139Y7579D01*
X218586Y6621D01*
X218300Y5553D01*
Y4447D01*
X218586Y3379D01*
X219139Y2421D01*
X219921Y1639D01*
X220879Y1086D01*
X221201Y1000D01*
X221122Y400D01*
X213878D01*
X213799Y1000D01*
X214121Y1086D01*
X215079Y1639D01*
X215861Y2421D01*
X216414Y3379D01*
X216700Y4447D01*
Y5553D01*
X216414Y6621D01*
X215861Y7579D01*
X215079Y8361D01*
X214121Y8914D01*
X213053Y9200D01*
X211947D01*
X210879Y8914D01*
X209921Y8361D01*
X209139Y7579D01*
X208586Y6621D01*
X208300Y5553D01*
Y4447D01*
X208586Y3379D01*
X209139Y2421D01*
X209921Y1639D01*
X210879Y1086D01*
X211201Y1000D01*
X211122Y400D01*
X203878D01*
X203799Y1000D01*
X204121Y1086D01*
X205079Y1639D01*
X205861Y2421D01*
X206414Y3379D01*
X206700Y4447D01*
Y5553D01*
X206414Y6621D01*
X205861Y7579D01*
X205079Y8361D01*
X204121Y8914D01*
X203053Y9200D01*
X201947D01*
X200879Y8914D01*
X199921Y8361D01*
X199139Y7579D01*
X198586Y6621D01*
X198300Y5553D01*
Y4447D01*
X198586Y3379D01*
X199139Y2421D01*
X199921Y1639D01*
X200879Y1086D01*
X201201Y1000D01*
X201122Y400D01*
X193878D01*
X193799Y1000D01*
X194121Y1086D01*
X195079Y1639D01*
X195861Y2421D01*
X196414Y3379D01*
X196700Y4447D01*
Y5553D01*
X196414Y6621D01*
X195861Y7579D01*
X195079Y8361D01*
X194121Y8914D01*
X193053Y9200D01*
X191947D01*
X190879Y8914D01*
X189921Y8361D01*
X189139Y7579D01*
X188586Y6621D01*
X188300Y5553D01*
Y4447D01*
X188586Y3379D01*
X189139Y2421D01*
X189921Y1639D01*
X190879Y1086D01*
X191201Y1000D01*
X191122Y400D01*
X183878D01*
X183799Y1000D01*
X184121Y1086D01*
X185079Y1639D01*
X185861Y2421D01*
X186414Y3379D01*
X186700Y4447D01*
Y5553D01*
X186414Y6621D01*
X185861Y7579D01*
X185079Y8361D01*
X184121Y8914D01*
X183053Y9200D01*
X181947D01*
X180879Y8914D01*
X179921Y8361D01*
X179139Y7579D01*
X178586Y6621D01*
X178300Y5553D01*
Y4447D01*
X178586Y3379D01*
X179139Y2421D01*
X179921Y1639D01*
X180879Y1086D01*
X181201Y1000D01*
X181122Y400D01*
X173878D01*
X173799Y1000D01*
X174121Y1086D01*
X175079Y1639D01*
X175861Y2421D01*
X176414Y3379D01*
X176700Y4447D01*
Y5553D01*
X176414Y6621D01*
X175861Y7579D01*
X175079Y8361D01*
X174121Y8914D01*
X173053Y9200D01*
X171947D01*
X170879Y8914D01*
X169921Y8361D01*
X169139Y7579D01*
X168586Y6621D01*
X168300Y5553D01*
Y4447D01*
X168586Y3379D01*
X169139Y2421D01*
X169921Y1639D01*
X170879Y1086D01*
X171201Y1000D01*
X171122Y400D01*
X163878D01*
X163799Y1000D01*
X164121Y1086D01*
X165079Y1639D01*
X165861Y2421D01*
X166414Y3379D01*
X166700Y4447D01*
Y5553D01*
X166414Y6621D01*
X165861Y7579D01*
X165079Y8361D01*
X164121Y8914D01*
X163053Y9200D01*
X161947D01*
X160879Y8914D01*
X159921Y8361D01*
X159139Y7579D01*
X158586Y6621D01*
X158300Y5553D01*
Y4447D01*
X158586Y3379D01*
X159139Y2421D01*
X159921Y1639D01*
X160879Y1086D01*
X161201Y1000D01*
X161122Y400D01*
X153878D01*
X153799Y1000D01*
X154121Y1086D01*
X155079Y1639D01*
X155861Y2421D01*
X156414Y3379D01*
X156700Y4447D01*
Y5553D01*
X156414Y6621D01*
X155861Y7579D01*
X155079Y8361D01*
X154121Y8914D01*
X153053Y9200D01*
X151947D01*
X150879Y8914D01*
X149921Y8361D01*
X149139Y7579D01*
X148586Y6621D01*
X148300Y5553D01*
Y4447D01*
X148586Y3379D01*
X149139Y2421D01*
X149921Y1639D01*
X150879Y1086D01*
X151201Y1000D01*
X151122Y400D01*
X143878D01*
X143799Y1000D01*
X144121Y1086D01*
X145079Y1639D01*
X145861Y2421D01*
X146414Y3379D01*
X146700Y4447D01*
Y5553D01*
X146414Y6621D01*
X145861Y7579D01*
X145079Y8361D01*
X144121Y8914D01*
X143053Y9200D01*
X141947D01*
X140879Y8914D01*
X139921Y8361D01*
X139139Y7579D01*
X138586Y6621D01*
X138300Y5553D01*
Y4447D01*
X138586Y3379D01*
X139139Y2421D01*
X139921Y1639D01*
X140879Y1086D01*
X141201Y1000D01*
X141122Y400D01*
X133878D01*
X133799Y1000D01*
X134121Y1086D01*
X135079Y1639D01*
X135861Y2421D01*
X136414Y3379D01*
X136700Y4447D01*
Y5553D01*
X136414Y6621D01*
X135861Y7579D01*
X135079Y8361D01*
X134121Y8914D01*
X133053Y9200D01*
X131947D01*
X130879Y8914D01*
X129921Y8361D01*
X129139Y7579D01*
X128586Y6621D01*
X128300Y5553D01*
Y4447D01*
X128586Y3379D01*
X129139Y2421D01*
X129921Y1639D01*
X130879Y1086D01*
X131201Y1000D01*
X131122Y400D01*
X123878D01*
X123799Y1000D01*
X124121Y1086D01*
X125079Y1639D01*
X125861Y2421D01*
X126414Y3379D01*
X126700Y4447D01*
Y5553D01*
X126414Y6621D01*
X125861Y7579D01*
X125079Y8361D01*
X124121Y8914D01*
X123053Y9200D01*
X121947D01*
X120879Y8914D01*
X119921Y8361D01*
X119139Y7579D01*
X118586Y6621D01*
X118300Y5553D01*
Y4447D01*
X118586Y3379D01*
X119139Y2421D01*
X119921Y1639D01*
X120879Y1086D01*
X121201Y1000D01*
X121122Y400D01*
X113878D01*
X113799Y1000D01*
X114121Y1086D01*
X115079Y1639D01*
X115861Y2421D01*
X116414Y3379D01*
X116700Y4447D01*
Y5553D01*
X116414Y6621D01*
X115861Y7579D01*
X115079Y8361D01*
X114121Y8914D01*
X113053Y9200D01*
X111947D01*
X110879Y8914D01*
X109921Y8361D01*
X109139Y7579D01*
X108586Y6621D01*
X108300Y5553D01*
Y4447D01*
X108586Y3379D01*
X109139Y2421D01*
X109921Y1639D01*
X110879Y1086D01*
X111201Y1000D01*
X111122Y400D01*
X103878D01*
X103799Y1000D01*
X104121Y1086D01*
X105079Y1639D01*
X105861Y2421D01*
X106414Y3379D01*
X106700Y4447D01*
Y5553D01*
X106414Y6621D01*
X105861Y7579D01*
X105079Y8361D01*
X104121Y8914D01*
X103053Y9200D01*
X101947D01*
X100879Y8914D01*
X99921Y8361D01*
X99139Y7579D01*
X98586Y6621D01*
X98300Y5553D01*
Y4447D01*
X98586Y3379D01*
X99139Y2421D01*
X99921Y1639D01*
X100879Y1086D01*
X101201Y1000D01*
X101122Y400D01*
X93878D01*
X93799Y1000D01*
X94121Y1086D01*
X95079Y1639D01*
X95861Y2421D01*
X96414Y3379D01*
X96700Y4447D01*
Y5553D01*
X96414Y6621D01*
X95861Y7579D01*
X95079Y8361D01*
X94121Y8914D01*
X93053Y9200D01*
X91947D01*
X90879Y8914D01*
X89921Y8361D01*
X89139Y7579D01*
X88586Y6621D01*
X88300Y5553D01*
Y4447D01*
X88586Y3379D01*
X89139Y2421D01*
X89921Y1639D01*
X90879Y1086D01*
X91201Y1000D01*
X91122Y400D01*
X83878D01*
X83799Y1000D01*
X84121Y1086D01*
X85079Y1639D01*
X85861Y2421D01*
X86414Y3379D01*
X86700Y4447D01*
Y5553D01*
X86414Y6621D01*
X85861Y7579D01*
X85079Y8361D01*
X84121Y8914D01*
X83053Y9200D01*
X81947D01*
X80879Y8914D01*
X79921Y8361D01*
X79139Y7579D01*
X78586Y6621D01*
X78300Y5553D01*
Y4447D01*
X78586Y3379D01*
X79139Y2421D01*
X79921Y1639D01*
X80879Y1086D01*
X81201Y1000D01*
X81122Y400D01*
X53878D01*
X53799Y1000D01*
X54121Y1086D01*
X55079Y1639D01*
X55861Y2421D01*
X56414Y3379D01*
X56700Y4447D01*
Y5553D01*
X56414Y6621D01*
X55861Y7579D01*
X55079Y8361D01*
X54121Y8914D01*
X53053Y9200D01*
X51947D01*
X50879Y8914D01*
X49921Y8361D01*
X49139Y7579D01*
X48586Y6621D01*
X48300Y5553D01*
Y4447D01*
X48586Y3379D01*
X49139Y2421D01*
X49921Y1639D01*
X50879Y1086D01*
X51201Y1000D01*
X51122Y400D01*
X43878D01*
X43799Y1000D01*
X44121Y1086D01*
X45079Y1639D01*
X45861Y2421D01*
X46414Y3379D01*
X46700Y4447D01*
Y5553D01*
X46414Y6621D01*
X45861Y7579D01*
X45079Y8361D01*
X44121Y8914D01*
X43053Y9200D01*
X41947D01*
X40879Y8914D01*
X39921Y8361D01*
X39139Y7579D01*
X38586Y6621D01*
X38300Y5553D01*
Y4447D01*
X38586Y3379D01*
X39139Y2421D01*
X39921Y1639D01*
X40879Y1086D01*
X41201Y1000D01*
X41122Y400D01*
X4000D01*
X600Y3800D01*
Y116400D01*
X599Y116403D01*
X935Y116900D01*
X30521D01*
X30682Y116300D01*
X29921Y115861D01*
X29139Y115079D01*
X28586Y114121D01*
X28300Y113053D01*
Y111947D01*
X28586Y110879D01*
X29139Y109921D01*
X29921Y109139D01*
X30879Y108586D01*
X31947Y108300D01*
X33053D01*
X34121Y108586D01*
X35079Y109139D01*
X35861Y109921D01*
X36414Y110879D01*
X36700Y111947D01*
Y113053D01*
X36414Y114121D01*
X35861Y115079D01*
X35079Y115861D01*
X34318Y116300D01*
X34479Y116900D01*
X50521D01*
X50682Y116300D01*
X49921Y115861D01*
X49139Y115079D01*
X48586Y114121D01*
X48300Y113053D01*
Y111947D01*
X48586Y110879D01*
X49139Y109921D01*
X49921Y109139D01*
X50879Y108586D01*
X51947Y108300D01*
X53053D01*
X54121Y108586D01*
X55079Y109139D01*
X55861Y109921D01*
X56414Y110879D01*
X56700Y111947D01*
Y113053D01*
X56414Y114121D01*
X55861Y115079D01*
X55079Y115861D01*
X54318Y116300D01*
X54479Y116900D01*
X60521D01*
X60682Y116300D01*
X59921Y115861D01*
X59139Y115079D01*
X58586Y114121D01*
X58300Y113053D01*
Y111947D01*
X58586Y110879D01*
X59139Y109921D01*
X59921Y109139D01*
X60879Y108586D01*
X61947Y108300D01*
X63053D01*
X64121Y108586D01*
X65079Y109139D01*
X65861Y109921D01*
X66414Y110879D01*
X66700Y111947D01*
Y113053D01*
X66414Y114121D01*
X65861Y115079D01*
X65079Y115861D01*
X64318Y116300D01*
X64479Y116900D01*
X70521D01*
X70682Y116300D01*
X69921Y115861D01*
X69139Y115079D01*
X68586Y114121D01*
X68300Y113053D01*
Y111947D01*
X68586Y110879D01*
X69139Y109921D01*
X69921Y109139D01*
X70879Y108586D01*
X71947Y108300D01*
X73053D01*
X74121Y108586D01*
X75079Y109139D01*
X75861Y109921D01*
X76414Y110879D01*
X76700Y111947D01*
Y113053D01*
X76414Y114121D01*
X75861Y115079D01*
X75079Y115861D01*
X74318Y116300D01*
X74479Y116900D01*
X80521D01*
X80682Y116300D01*
X79921Y115861D01*
X79139Y115079D01*
X78586Y114121D01*
X78300Y113053D01*
Y111947D01*
X78586Y110879D01*
X79139Y109921D01*
X79921Y109139D01*
X80879Y108586D01*
X81947Y108300D01*
X83053D01*
X84121Y108586D01*
X85079Y109139D01*
X85861Y109921D01*
X86414Y110879D01*
X86700Y111947D01*
Y113053D01*
X86414Y114121D01*
X85861Y115079D01*
X85079Y115861D01*
X84318Y116300D01*
X84479Y116900D01*
X86731D01*
X87180Y116300D01*
D02*
G37*
G36*
X264369Y27401D02*
X264701Y27069D01*
X264858Y26689D01*
X264914Y26605D01*
X264952Y26513D01*
X265023Y26442D01*
X265051Y26400D01*
X265023Y26358D01*
X264952Y26287D01*
X264914Y26195D01*
X264858Y26111D01*
X264701Y25731D01*
X264369Y25399D01*
X263935Y25220D01*
X263465D01*
X263031Y25399D01*
X262699Y25731D01*
X262549Y26094D01*
Y26706D01*
X262699Y27069D01*
X263031Y27401D01*
X263465Y27580D01*
X263935D01*
X264369Y27401D01*
D02*
G37*
G36*
X109300Y14700D02*
X111200Y12800D01*
X110600Y12200D01*
X45600D01*
Y21400D01*
X45900Y21900D01*
X46463Y22000D01*
X81500D01*
X88000Y28500D01*
X109300D01*
Y14700D01*
D02*
G37*
G36*
X253728Y7964D02*
X254453Y7545D01*
X255045Y6953D01*
X255464Y6228D01*
X255680Y5419D01*
Y4581D01*
X255464Y3772D01*
X255045Y3047D01*
X254590Y2592D01*
X254589Y2592D01*
X254589Y2591D01*
X254481Y2429D01*
X254369Y2261D01*
X254369Y2261D01*
X254368Y2260D01*
X254330Y2066D01*
X254291Y1871D01*
X254291Y1870D01*
X254291Y1870D01*
X254330Y1677D01*
X254369Y1481D01*
X254369Y1480D01*
X254369Y1480D01*
X254569Y1000D01*
X254414Y634D01*
X254218Y400D01*
X250809D01*
X250624Y610D01*
X250454Y1000D01*
X250646Y1467D01*
X250685Y1662D01*
X250724Y1856D01*
X250723Y1857D01*
X250724Y1858D01*
X250684Y2053D01*
X250646Y2246D01*
X250646Y2247D01*
X250645Y2248D01*
X250536Y2410D01*
X250425Y2577D01*
X249955Y3047D01*
X249536Y3772D01*
X249320Y4581D01*
Y5419D01*
X249536Y6228D01*
X249955Y6953D01*
X250547Y7545D01*
X251272Y7964D01*
X252081Y8180D01*
X252919D01*
X253728Y7964D01*
D02*
G37*
%LPC*%
G36*
X234738Y107100D02*
X233862D01*
X233054Y106765D01*
X232435Y106146D01*
X232178Y105525D01*
X232178Y105525D01*
X232100Y105338D01*
Y104462D01*
X232435Y103654D01*
X233054Y103035D01*
X233675Y102778D01*
X233675Y102778D01*
X233862Y102700D01*
X234738D01*
X235546Y103035D01*
X236165Y103654D01*
X236422Y104275D01*
X236422Y104275D01*
X236500Y104462D01*
Y105338D01*
X236165Y106146D01*
X235546Y106765D01*
X234925Y107022D01*
X234925Y107022D01*
X234738Y107100D01*
D02*
G37*
G36*
X126438Y96900D02*
X125562D01*
X124754Y96565D01*
X124135Y95946D01*
X123878Y95325D01*
X123878Y95325D01*
X123800Y95138D01*
Y94262D01*
X124135Y93454D01*
X124754Y92835D01*
X125375Y92578D01*
X125375Y92578D01*
X125562Y92500D01*
X126438D01*
X127246Y92835D01*
X127865Y93454D01*
X128122Y94075D01*
X128122Y94075D01*
X128200Y94262D01*
Y95138D01*
X127865Y95946D01*
X127246Y96565D01*
X126625Y96822D01*
X126625Y96822D01*
X126438Y96900D01*
D02*
G37*
G36*
X166938Y96700D02*
X166062D01*
X165254Y96365D01*
X164635Y95746D01*
X164300Y94938D01*
Y94062D01*
X164635Y93254D01*
X165254Y92635D01*
X166062Y92300D01*
X166938D01*
X167746Y92635D01*
X168365Y93254D01*
X168700Y94062D01*
Y94938D01*
X168365Y95746D01*
X167746Y96365D01*
X166938Y96700D01*
D02*
G37*
G36*
X147338Y92400D02*
X146462D01*
X145654Y92065D01*
X145035Y91446D01*
X144778Y90825D01*
X144778Y90825D01*
X144700Y90638D01*
Y89762D01*
X145035Y88954D01*
X145654Y88335D01*
X146260Y88084D01*
X146260Y88084D01*
X146462Y88000D01*
X147338D01*
X148146Y88335D01*
X148765Y88954D01*
X149022Y89575D01*
X149022Y89575D01*
X149100Y89762D01*
Y90638D01*
X148765Y91446D01*
X148146Y92065D01*
X147525Y92322D01*
X147525Y92322D01*
X147338Y92400D01*
D02*
G37*
%LPD*%
G36*
X234969Y105901D02*
X235301Y105569D01*
X235480Y105135D01*
Y104665D01*
X235301Y104231D01*
X234969Y103899D01*
X234535Y103720D01*
X234065D01*
X233631Y103899D01*
X233299Y104231D01*
X233120Y104665D01*
Y105135D01*
X233299Y105569D01*
X233631Y105901D01*
X234065Y106080D01*
X234535D01*
X234969Y105901D01*
D02*
G37*
G36*
X126669Y95701D02*
X127001Y95369D01*
X127180Y94935D01*
Y94465D01*
X127001Y94031D01*
X126669Y93699D01*
X126235Y93520D01*
X125765D01*
X125331Y93699D01*
X124999Y94031D01*
X124820Y94465D01*
Y94935D01*
X124999Y95369D01*
X125331Y95701D01*
X125765Y95880D01*
X126235D01*
X126669Y95701D01*
D02*
G37*
G36*
X147569Y91201D02*
X147901Y90869D01*
X148080Y90435D01*
Y89965D01*
X147901Y89531D01*
X147569Y89199D01*
X147150Y89026D01*
X146650D01*
X146231Y89199D01*
X145899Y89531D01*
X145720Y89965D01*
Y90435D01*
X145899Y90869D01*
X146231Y91201D01*
X146665Y91380D01*
X147135D01*
X147569Y91201D01*
D02*
G37*
%LPC*%
G36*
X75538Y108100D02*
X74662D01*
X73854Y107765D01*
X73235Y107146D01*
X72900Y106338D01*
Y105462D01*
X73235Y104654D01*
X73854Y104035D01*
X74662Y103700D01*
X75538D01*
X76346Y104035D01*
X76965Y104654D01*
X77300Y105462D01*
Y106338D01*
X76965Y107146D01*
X76346Y107765D01*
X75538Y108100D01*
D02*
G37*
G36*
X47898Y99000D02*
X47102D01*
X46367Y98695D01*
X45805Y98133D01*
X45500Y97398D01*
Y96602D01*
X45805Y95867D01*
X46367Y95305D01*
X47102Y95000D01*
X47898D01*
X48633Y95305D01*
X49196Y95867D01*
X49500Y96602D01*
Y97398D01*
X49196Y98133D01*
X48633Y98695D01*
X47898Y99000D01*
D02*
G37*
G36*
X37698Y100200D02*
X36902D01*
X36167Y99896D01*
X35605Y99333D01*
X35300Y98598D01*
Y97802D01*
X35605Y97067D01*
X35972Y96700D01*
X35723Y96100D01*
X35402D01*
X34667Y95796D01*
X34104Y95233D01*
X33800Y94498D01*
Y93702D01*
X34104Y92967D01*
X34667Y92405D01*
X35402Y92100D01*
X36198D01*
X36933Y92405D01*
X37495Y92967D01*
X37800Y93702D01*
Y94498D01*
X37495Y95233D01*
X37128Y95600D01*
X37377Y96200D01*
X37698D01*
X38433Y96504D01*
X38996Y97067D01*
X39300Y97802D01*
Y98598D01*
X38996Y99333D01*
X38433Y99896D01*
X37698Y100200D01*
D02*
G37*
G36*
X47898Y94000D02*
X47102D01*
X46367Y93695D01*
X45805Y93133D01*
X45500Y92398D01*
Y91602D01*
X45805Y90867D01*
X46367Y90304D01*
X47102Y90000D01*
X47898D01*
X48633Y90304D01*
X49196Y90867D01*
X49500Y91602D01*
Y92398D01*
X49196Y93133D01*
X48633Y93695D01*
X47898Y94000D01*
D02*
G37*
G36*
X254338Y93600D02*
X253462D01*
X252654Y93265D01*
X252035Y92646D01*
X251700Y91838D01*
Y90962D01*
X252035Y90154D01*
X252654Y89535D01*
X253462Y89200D01*
X254338D01*
X255146Y89535D01*
X255765Y90154D01*
X256100Y90962D01*
Y91838D01*
X255765Y92646D01*
X255146Y93265D01*
X254338Y93600D01*
D02*
G37*
G36*
X93638Y91300D02*
X92762D01*
X91954Y90965D01*
X91335Y90346D01*
X91000Y89538D01*
Y88662D01*
X91335Y87854D01*
X91954Y87235D01*
X92762Y86900D01*
X93638D01*
X94446Y87235D01*
X95065Y87854D01*
X95400Y88662D01*
Y89538D01*
X95065Y90346D01*
X94446Y90965D01*
X93638Y91300D01*
D02*
G37*
G36*
X61038Y89600D02*
X60162D01*
X59354Y89265D01*
X58735Y88646D01*
X58400Y87838D01*
Y86962D01*
X58735Y86154D01*
X59354Y85535D01*
X60162Y85200D01*
X61038D01*
X61846Y85535D01*
X62465Y86154D01*
X62800Y86962D01*
Y87838D01*
X62465Y88646D01*
X61846Y89265D01*
X61038Y89600D01*
D02*
G37*
G36*
X247938Y84700D02*
X247062D01*
X246254Y84365D01*
X245635Y83746D01*
X245300Y82938D01*
Y82062D01*
X245542Y81477D01*
X245089Y81016D01*
X244634Y81204D01*
X243759D01*
X243157Y80954D01*
X242747Y81434D01*
X243007Y82062D01*
Y82938D01*
X242672Y83746D01*
X242053Y84365D01*
X241245Y84700D01*
X240369D01*
X239561Y84365D01*
X238942Y83746D01*
X238607Y82938D01*
Y82663D01*
X238108Y82329D01*
X237938Y82400D01*
X237062D01*
X236813Y82297D01*
X236314Y82630D01*
Y82938D01*
X235979Y83746D01*
X235360Y84365D01*
X234552Y84700D01*
X233677D01*
X232868Y84365D01*
X232249Y83746D01*
X231914Y82938D01*
Y82062D01*
X232156Y81477D01*
X231703Y81016D01*
X231249Y81204D01*
X230373D01*
X229771Y80954D01*
X229361Y81434D01*
X229621Y82062D01*
Y82938D01*
X229286Y83746D01*
X228667Y84365D01*
X227859Y84700D01*
X226984D01*
X226175Y84365D01*
X225556Y83746D01*
X225221Y82938D01*
Y82062D01*
X225464Y81477D01*
X225010Y81016D01*
X224556Y81204D01*
X223681D01*
X223078Y80954D01*
X222668Y81434D01*
X222928Y82062D01*
Y82938D01*
X222593Y83746D01*
X221975Y84365D01*
X221166Y84700D01*
X220291D01*
X219482Y84365D01*
X218863Y83746D01*
X218528Y82938D01*
Y82062D01*
X218771Y81477D01*
X218318Y81016D01*
X217863Y81204D01*
X216988D01*
X216385Y80954D01*
X215975Y81434D01*
X216235Y82062D01*
Y82938D01*
X215900Y83746D01*
X215282Y84365D01*
X214473Y84700D01*
X213598D01*
X212789Y84365D01*
X212170Y83746D01*
X211835Y82938D01*
Y82062D01*
X212170Y81254D01*
X212789Y80635D01*
X213598Y80300D01*
X214473D01*
X215076Y80550D01*
X215486Y80070D01*
X215225Y79442D01*
Y78566D01*
X215560Y77758D01*
X216179Y77139D01*
X216988Y76804D01*
X217863D01*
X218671Y77139D01*
X219290Y77758D01*
X219625Y78566D01*
Y79442D01*
X219383Y80027D01*
X219836Y80488D01*
X220291Y80300D01*
X221166D01*
X221769Y80550D01*
X222179Y80070D01*
X221918Y79442D01*
Y78566D01*
X222253Y77758D01*
X222872Y77139D01*
X223681Y76804D01*
X224556D01*
X225364Y77139D01*
X225983Y77758D01*
X226318Y78566D01*
Y79442D01*
X226076Y80027D01*
X226529Y80488D01*
X226984Y80300D01*
X227859D01*
X228461Y80550D01*
X228871Y80070D01*
X228611Y79442D01*
Y78566D01*
X228946Y77758D01*
X229565Y77139D01*
X230373Y76804D01*
X231249D01*
X232057Y77139D01*
X232676Y77758D01*
X233011Y78566D01*
Y79442D01*
X232769Y80027D01*
X233222Y80488D01*
X233677Y80300D01*
X234552D01*
X234801Y80403D01*
X235300Y80070D01*
Y79762D01*
X235635Y78954D01*
X236254Y78335D01*
X237062Y78000D01*
X237938D01*
X238746Y78335D01*
X239365Y78954D01*
X239700Y79762D01*
Y80037D01*
X240199Y80371D01*
X240369Y80300D01*
X241245D01*
X241847Y80550D01*
X242257Y80070D01*
X241997Y79442D01*
Y78566D01*
X242332Y77758D01*
X242951Y77139D01*
X243759Y76804D01*
X244634D01*
X245443Y77139D01*
X246062Y77758D01*
X246397Y78566D01*
Y79442D01*
X246154Y80027D01*
X246608Y80488D01*
X247062Y80300D01*
X247938D01*
X248746Y80635D01*
X249365Y81254D01*
X249700Y82062D01*
Y82938D01*
X249365Y83746D01*
X248746Y84365D01*
X247938Y84700D01*
D02*
G37*
G36*
X201538Y85400D02*
X200662D01*
X199854Y85065D01*
X199235Y84446D01*
X198900Y83638D01*
Y82762D01*
X199235Y81954D01*
X199854Y81335D01*
X200662Y81000D01*
X201538D01*
X202346Y81335D01*
X202965Y81954D01*
X203300Y82762D01*
Y83638D01*
X202965Y84446D01*
X202346Y85065D01*
X201538Y85400D01*
D02*
G37*
G36*
X170838Y81200D02*
X169962D01*
X169154Y80865D01*
X168535Y80246D01*
X168200Y79438D01*
Y78562D01*
X168535Y77754D01*
X169154Y77135D01*
X169962Y76800D01*
X170838D01*
X171646Y77135D01*
X172265Y77754D01*
X172600Y78562D01*
Y79438D01*
X172265Y80246D01*
X171646Y80865D01*
X170838Y81200D01*
D02*
G37*
G36*
X198338Y79300D02*
X197462D01*
X196654Y78965D01*
X196035Y78346D01*
X195700Y77538D01*
Y76662D01*
X196035Y75854D01*
X196654Y75235D01*
X197462Y74900D01*
X198338D01*
X199146Y75235D01*
X199765Y75854D01*
X200100Y76662D01*
Y77538D01*
X199765Y78346D01*
X199146Y78965D01*
X198338Y79300D01*
D02*
G37*
G36*
X203938Y78300D02*
X203062D01*
X202254Y77965D01*
X201635Y77346D01*
X201300Y76538D01*
Y75662D01*
X201635Y74854D01*
X202254Y74235D01*
X203062Y73900D01*
X203938D01*
X204746Y74235D01*
X205365Y74854D01*
X205700Y75662D01*
Y76538D01*
X205365Y77346D01*
X204746Y77965D01*
X203938Y78300D01*
D02*
G37*
G36*
X163538Y78200D02*
X162662D01*
X161854Y77865D01*
X161235Y77246D01*
X160900Y76438D01*
Y75562D01*
X161235Y74754D01*
X161854Y74135D01*
X162662Y73800D01*
X163538D01*
X164346Y74135D01*
X164965Y74754D01*
X165300Y75562D01*
Y76438D01*
X164965Y77246D01*
X164346Y77865D01*
X163538Y78200D01*
D02*
G37*
G36*
X187238Y77500D02*
X186362D01*
X185554Y77165D01*
X184935Y76546D01*
X184600Y75738D01*
Y74862D01*
X184935Y74054D01*
X185554Y73435D01*
X186362Y73100D01*
X187238D01*
X188046Y73435D01*
X188367Y73756D01*
X188861Y73928D01*
X189142Y73747D01*
X189554Y73335D01*
X190362Y73000D01*
X191238D01*
X192046Y73335D01*
X192665Y73954D01*
X193000Y74762D01*
Y75638D01*
X192665Y76446D01*
X192046Y77065D01*
X191238Y77400D01*
X190362D01*
X189554Y77065D01*
X189233Y76744D01*
X188739Y76572D01*
X188458Y76753D01*
X188046Y77165D01*
X187238Y77500D01*
D02*
G37*
G36*
X57838Y70300D02*
X56962D01*
X56154Y69965D01*
X55535Y69346D01*
X55200Y68538D01*
Y67662D01*
X55535Y66854D01*
X56154Y66235D01*
X56962Y65900D01*
X57838D01*
X58646Y66235D01*
X59265Y66854D01*
X59600Y67662D01*
Y68538D01*
X59265Y69346D01*
X58646Y69965D01*
X57838Y70300D01*
D02*
G37*
G36*
X190538Y70100D02*
X189662D01*
X188854Y69765D01*
X188235Y69146D01*
X187900Y68338D01*
Y67462D01*
X188235Y66654D01*
X188854Y66035D01*
X189662Y65700D01*
X190538D01*
X191346Y66035D01*
X191965Y66654D01*
X192300Y67462D01*
Y68338D01*
X191965Y69146D01*
X191346Y69765D01*
X190538Y70100D01*
D02*
G37*
G36*
X191298Y63700D02*
X190502D01*
X189767Y63396D01*
X189205Y62833D01*
X189063Y62490D01*
X188413D01*
X188396Y62533D01*
X187833Y63095D01*
X187098Y63400D01*
X186302D01*
X185567Y63095D01*
X185004Y62533D01*
X184700Y61798D01*
Y61002D01*
X185004Y60267D01*
X185567Y59705D01*
X186302Y59400D01*
X187098D01*
X187833Y59705D01*
X188396Y60267D01*
X188537Y60610D01*
X189187D01*
X189205Y60567D01*
X189767Y60005D01*
X190502Y59700D01*
X191298D01*
X192033Y60005D01*
X192596Y60567D01*
X192900Y61302D01*
Y62098D01*
X192596Y62833D01*
X192033Y63396D01*
X191298Y63700D01*
D02*
G37*
G36*
X40000Y68000D02*
X34000D01*
Y62000D01*
X34000D01*
X34344Y61400D01*
X34204Y61158D01*
X34000Y60395D01*
Y59605D01*
X34204Y58842D01*
X34599Y58158D01*
X34849Y57908D01*
X35097Y57500D01*
X34849Y57092D01*
X34599Y56842D01*
X34204Y56158D01*
X34000Y55395D01*
Y54605D01*
X34204Y53842D01*
X34599Y53158D01*
X35158Y52599D01*
X35842Y52204D01*
X36605Y52000D01*
X37395D01*
X38158Y52204D01*
X38842Y52599D01*
X39401Y53158D01*
X39796Y53842D01*
X40000Y54605D01*
Y55395D01*
X39796Y56158D01*
X39401Y56842D01*
X39151Y57092D01*
X38903Y57500D01*
X39151Y57908D01*
X39401Y58158D01*
X39796Y58842D01*
X40000Y59605D01*
Y60395D01*
X39796Y61158D01*
X39656Y61400D01*
X40000Y62000D01*
X40000D01*
Y68000D01*
D02*
G37*
G36*
X206398Y63500D02*
X205602D01*
X204867Y63196D01*
X204305Y62633D01*
X204000Y61898D01*
Y61102D01*
X204305Y60367D01*
X204867Y59804D01*
X205602Y59500D01*
X206398D01*
X207133Y59804D01*
X207696Y60367D01*
X208000Y61102D01*
Y61898D01*
X207696Y62633D01*
X207133Y63196D01*
X206398Y63500D01*
D02*
G37*
G36*
X149138Y56300D02*
X148262D01*
X147454Y55965D01*
X146835Y55346D01*
X146500Y54538D01*
Y53662D01*
X146835Y52854D01*
X147454Y52235D01*
X148262Y51900D01*
X149138D01*
X149946Y52235D01*
X150565Y52854D01*
X150900Y53662D01*
Y54538D01*
X150565Y55346D01*
X149946Y55965D01*
X149138Y56300D01*
D02*
G37*
G36*
X205998Y56900D02*
X205202D01*
X204467Y56595D01*
X203905Y56033D01*
X203600Y55298D01*
Y54502D01*
X203905Y53767D01*
X204230Y53441D01*
X203635Y52846D01*
X203300Y52038D01*
Y51162D01*
X203635Y50354D01*
X204254Y49735D01*
X205062Y49400D01*
X205938D01*
X206746Y49735D01*
X207365Y50354D01*
X207700Y51162D01*
Y52038D01*
X207365Y52846D01*
X206870Y53341D01*
X207295Y53767D01*
X207600Y54502D01*
Y55298D01*
X207295Y56033D01*
X206733Y56595D01*
X205998Y56900D01*
D02*
G37*
G36*
X191638Y55100D02*
X190762D01*
X189954Y54765D01*
X189335Y54146D01*
X189000Y53338D01*
Y52462D01*
X189053Y52335D01*
X188962Y52200D01*
X188154Y51865D01*
X187535Y51246D01*
X187200Y50438D01*
Y49562D01*
X187535Y48754D01*
X188154Y48135D01*
X188962Y47800D01*
X189838D01*
X190646Y48135D01*
X191265Y48754D01*
X191600Y49562D01*
Y50438D01*
X191547Y50565D01*
X191638Y50700D01*
X192446Y51035D01*
X193065Y51654D01*
X193400Y52462D01*
Y53338D01*
X193065Y54146D01*
X192446Y54765D01*
X191638Y55100D01*
D02*
G37*
G36*
X198138Y52000D02*
X197262D01*
X196454Y51665D01*
X195835Y51046D01*
X195500Y50238D01*
Y49362D01*
X195835Y48554D01*
X196454Y47935D01*
X197262Y47600D01*
X198138D01*
X198946Y47935D01*
X199565Y48554D01*
X199900Y49362D01*
Y50238D01*
X199565Y51046D01*
X198946Y51665D01*
X198138Y52000D01*
D02*
G37*
G36*
X200338Y45500D02*
X199462D01*
X198654Y45165D01*
X198035Y44546D01*
X197700Y43738D01*
Y42862D01*
X197894Y42395D01*
X197434Y41936D01*
X197038Y42100D01*
X196162D01*
X195354Y41765D01*
X194735Y41146D01*
X194400Y40338D01*
Y39462D01*
X194735Y38654D01*
X195354Y38035D01*
X196162Y37700D01*
X197038D01*
X197846Y38035D01*
X198465Y38654D01*
X198800Y39462D01*
Y40338D01*
X198606Y40805D01*
X199066Y41264D01*
X199462Y41100D01*
X200338D01*
X201146Y41435D01*
X201765Y42054D01*
X202100Y42862D01*
Y43738D01*
X201765Y44546D01*
X201146Y45165D01*
X200338Y45500D01*
D02*
G37*
G36*
X247981Y43196D02*
X247106D01*
X246297Y42861D01*
X245678Y42242D01*
X245343Y41434D01*
Y40558D01*
X245586Y39973D01*
X245132Y39512D01*
X244678Y39700D01*
X243803D01*
X243200Y39450D01*
X242790Y39930D01*
X243050Y40558D01*
Y41434D01*
X242716Y42242D01*
X242097Y42861D01*
X241288Y43196D01*
X240413D01*
X239604Y42861D01*
X238985Y42242D01*
X238650Y41434D01*
Y40558D01*
X238893Y39973D01*
X238440Y39512D01*
X237985Y39700D01*
X237110D01*
X236507Y39450D01*
X236097Y39930D01*
X236357Y40558D01*
Y41434D01*
X236022Y42242D01*
X235404Y42861D01*
X234595Y43196D01*
X233720D01*
X232911Y42861D01*
X232292Y42242D01*
X231957Y41434D01*
Y40558D01*
X232200Y39974D01*
X231746Y39512D01*
X231292Y39700D01*
X230417D01*
X229814Y39450D01*
X229404Y39930D01*
X229665Y40558D01*
Y41434D01*
X229330Y42242D01*
X228711Y42861D01*
X227902Y43196D01*
X227027D01*
X226218Y42861D01*
X225600Y42242D01*
X225265Y41434D01*
Y40558D01*
X225507Y39973D01*
X225054Y39512D01*
X224599Y39700D01*
X223724D01*
X223121Y39450D01*
X222711Y39930D01*
X222972Y40558D01*
Y41434D01*
X222637Y42242D01*
X222018Y42861D01*
X221209Y43196D01*
X220334D01*
X219525Y42861D01*
X218906Y42242D01*
X218572Y41434D01*
Y40558D01*
X218814Y39974D01*
X218361Y39512D01*
X217906Y39700D01*
X217031D01*
X216428Y39450D01*
X216019Y39930D01*
X216279Y40558D01*
Y41434D01*
X215944Y42242D01*
X215325Y42861D01*
X214516Y43196D01*
X213641D01*
X212833Y42861D01*
X212214Y42242D01*
X211879Y41434D01*
Y40558D01*
X212214Y39750D01*
X212833Y39131D01*
X213641Y38796D01*
X214516D01*
X215119Y39046D01*
X215529Y38566D01*
X215269Y37938D01*
Y37062D01*
X215603Y36254D01*
X216222Y35635D01*
X217031Y35300D01*
X217906D01*
X218715Y35635D01*
X219334Y36254D01*
X219669Y37062D01*
Y37938D01*
X219426Y38522D01*
X219880Y38984D01*
X220334Y38796D01*
X221209D01*
X221812Y39046D01*
X222222Y38566D01*
X221961Y37938D01*
Y37062D01*
X222296Y36254D01*
X222915Y35635D01*
X223724Y35300D01*
X224599D01*
X225408Y35635D01*
X226027Y36254D01*
X226361Y37062D01*
Y37938D01*
X226119Y38523D01*
X226572Y38984D01*
X227027Y38796D01*
X227902D01*
X228505Y39046D01*
X228915Y38566D01*
X228654Y37938D01*
Y37062D01*
X228989Y36254D01*
X229608Y35635D01*
X230417Y35300D01*
X231292D01*
X232101Y35635D01*
X232719Y36254D01*
X233054Y37062D01*
Y37938D01*
X232812Y38522D01*
X233265Y38984D01*
X233720Y38796D01*
X234595D01*
X235198Y39046D01*
X235608Y38566D01*
X235347Y37938D01*
Y37062D01*
X235682Y36254D01*
X236301Y35635D01*
X237110Y35300D01*
X237985D01*
X238793Y35635D01*
X239412Y36254D01*
X239747Y37062D01*
Y37938D01*
X239505Y38523D01*
X239958Y38984D01*
X240413Y38796D01*
X241288D01*
X241891Y39046D01*
X242301Y38566D01*
X242040Y37938D01*
Y37062D01*
X242375Y36254D01*
X242994Y35635D01*
X243803Y35300D01*
X244678D01*
X245486Y35635D01*
X246105Y36254D01*
X246440Y37062D01*
Y37938D01*
X246198Y38523D01*
X246651Y38984D01*
X247106Y38796D01*
X247981D01*
X248790Y39131D01*
X249409Y39750D01*
X249743Y40558D01*
Y41434D01*
X249409Y42242D01*
X248790Y42861D01*
X247981Y43196D01*
D02*
G37*
G36*
X79498Y31300D02*
X78702D01*
X77967Y30996D01*
X77404Y30433D01*
X77363Y30332D01*
X77177Y30266D01*
X76679Y30249D01*
X76233Y30696D01*
X75498Y31000D01*
X74702D01*
X73967Y30696D01*
X73405Y30133D01*
X73100Y29398D01*
Y28602D01*
X73405Y27867D01*
X73967Y27305D01*
X74702Y27000D01*
X75498D01*
X76233Y27305D01*
X76796Y27867D01*
X76837Y27968D01*
X77023Y28034D01*
X77521Y28051D01*
X77967Y27604D01*
X78702Y27300D01*
X79498D01*
X80233Y27604D01*
X80796Y28167D01*
X81100Y28902D01*
Y29698D01*
X80796Y30433D01*
X80233Y30996D01*
X79498Y31300D01*
D02*
G37*
G36*
X188638Y23300D02*
X187762D01*
X186954Y22965D01*
X186335Y22346D01*
X186000Y21538D01*
Y20662D01*
X186335Y19854D01*
X186954Y19235D01*
X187762Y18900D01*
X188638D01*
X189446Y19235D01*
X190065Y19854D01*
X190400Y20662D01*
Y21538D01*
X190065Y22346D01*
X189446Y22965D01*
X188638Y23300D01*
D02*
G37*
G36*
X73027Y9000D02*
X71973D01*
X70956Y8727D01*
X70044Y8201D01*
X69299Y7456D01*
X68773Y6544D01*
X68500Y5527D01*
Y4473D01*
X68773Y3456D01*
X69299Y2544D01*
X70044Y1799D01*
X70956Y1273D01*
X71973Y1000D01*
X73027D01*
X74044Y1273D01*
X74956Y1799D01*
X75701Y2544D01*
X76227Y3456D01*
X76500Y4473D01*
Y5527D01*
X76227Y6544D01*
X75701Y7456D01*
X74956Y8201D01*
X74044Y8727D01*
X73027Y9000D01*
D02*
G37*
G36*
X63027D02*
X61973D01*
X60956Y8727D01*
X60044Y8201D01*
X59299Y7456D01*
X58773Y6544D01*
X58500Y5527D01*
Y4473D01*
X58773Y3456D01*
X59299Y2544D01*
X60044Y1799D01*
X60956Y1273D01*
X61973Y1000D01*
X63027D01*
X64044Y1273D01*
X64956Y1799D01*
X65701Y2544D01*
X66227Y3456D01*
X66500Y4473D01*
Y5527D01*
X66227Y6544D01*
X65701Y7456D01*
X64956Y8201D01*
X64044Y8727D01*
X63027Y9000D01*
D02*
G37*
%LPD*%
D53*
X22220Y113008D02*
D03*
Y39008D02*
D03*
Y78992D02*
D03*
Y4992D02*
D03*
D54*
X6472Y113008D02*
D03*
Y78992D02*
D03*
Y39008D02*
D03*
Y4992D02*
D03*
D63*
X245600Y105600D02*
X252500Y112500D01*
X237050Y97750D02*
X243300Y104000D01*
Y105600D01*
X245600D01*
X201510Y97750D02*
X237050D01*
X193760Y90000D02*
X201510Y97750D01*
X184500Y90000D02*
X193760D01*
X147600Y86000D02*
X180500D01*
X128520D02*
X147600D01*
Y64600D02*
Y86000D01*
X143000Y60000D02*
X147600Y64600D01*
X180500Y86000D02*
X184500Y90000D01*
X113420Y101100D02*
X128520Y86000D01*
X93300Y101100D02*
X113420D01*
X78787Y95657D02*
X81130Y98000D01*
X84640D01*
X87740Y101100D01*
X93300D01*
X78787Y88793D02*
Y95657D01*
Y88793D02*
X81300Y86280D01*
Y70860D02*
Y86280D01*
X78440Y68000D02*
X81300Y70860D01*
X78100Y68000D02*
X78440D01*
X76200Y66100D02*
X78100Y68000D01*
X55800Y16800D02*
X103540D01*
X120150Y33411D01*
Y44389D01*
X127956Y52195D01*
X130195D01*
X138000Y60000D01*
D67*
X202500Y5000D02*
D03*
X212500D02*
D03*
X52500D02*
D03*
X42500D02*
D03*
X232500D02*
D03*
X222500D02*
D03*
X192500D02*
D03*
X182500D02*
D03*
X172500D02*
D03*
X162500D02*
D03*
X152500D02*
D03*
X142500D02*
D03*
X132500D02*
D03*
X122500D02*
D03*
X112500D02*
D03*
X102500D02*
D03*
X92500D02*
D03*
X82500D02*
D03*
X62500Y112500D02*
D03*
X72500D02*
D03*
X82500D02*
D03*
X92500D02*
D03*
X102500D02*
D03*
X112500D02*
D03*
X122500D02*
D03*
X132500D02*
D03*
X142500D02*
D03*
X152500D02*
D03*
X162500D02*
D03*
X172500D02*
D03*
X182500D02*
D03*
X192500D02*
D03*
X202500D02*
D03*
X212500D02*
D03*
X222500D02*
D03*
X232500D02*
D03*
X252500Y5000D02*
D03*
X42500Y112500D02*
D03*
X32500Y5000D02*
D03*
X242500Y112500D02*
D03*
X72500Y5000D02*
D03*
X62500D02*
D03*
X242500D02*
D03*
X52500Y112500D02*
D03*
X252500D02*
D03*
X32500D02*
D03*
D68*
X262500D02*
D03*
Y5000D02*
D03*
D69*
X37000Y60000D02*
D03*
Y55000D02*
D03*
X143000Y60000D02*
D03*
D70*
X37000Y65000D02*
D03*
D71*
X138000Y60000D02*
D03*
D72*
X37000Y13500D02*
D03*
X38000Y20000D02*
D03*
X45200Y38200D02*
D03*
X38900Y30141D02*
D03*
X196300Y73800D02*
D03*
X197900Y77100D02*
D03*
X203500Y76100D02*
D03*
X201100Y83200D02*
D03*
X195600Y85521D02*
D03*
X190800Y75200D02*
D03*
X57400Y68100D02*
D03*
X243300Y105600D02*
D03*
X148700Y54100D02*
D03*
X188200Y21100D02*
D03*
X253900Y91400D02*
D03*
X93300Y101100D02*
D03*
X82900Y102200D02*
D03*
X60600Y87400D02*
D03*
X67500Y106600D02*
D03*
X70500Y97100D02*
D03*
X70700Y92700D02*
D03*
X75100Y105900D02*
D03*
X66100Y97200D02*
D03*
X65800Y92900D02*
D03*
X29800Y82600D02*
D03*
X40300Y77800D02*
D03*
X31300Y103300D02*
D03*
X27900Y108500D02*
D03*
X28700Y75300D02*
D03*
X38400Y88600D02*
D03*
X41000Y97200D02*
D03*
X35800Y94100D02*
D03*
X37300Y98200D02*
D03*
X31100Y96600D02*
D03*
X47500Y92000D02*
D03*
Y97000D02*
D03*
X179200Y62300D02*
D03*
X179400Y66400D02*
D03*
X190900Y61700D02*
D03*
X186700Y61400D02*
D03*
X42200Y25300D02*
D03*
X42000Y21500D02*
D03*
X35100Y48000D02*
D03*
X50400Y40800D02*
D03*
X76200Y66100D02*
D03*
X75100Y29000D02*
D03*
X79100Y29300D02*
D03*
X197700Y49800D02*
D03*
X205600Y54900D02*
D03*
X205500Y51600D02*
D03*
X206000Y61500D02*
D03*
X191200Y52900D02*
D03*
X28200Y37900D02*
D03*
X29100Y9300D02*
D03*
X94200Y44500D02*
D03*
X98700D02*
D03*
X103600Y44300D02*
D03*
X114000D02*
D03*
X108400Y44200D02*
D03*
X94200Y39100D02*
D03*
X98700D02*
D03*
X103600Y38900D02*
D03*
X114000D02*
D03*
X108400Y38800D02*
D03*
Y33100D02*
D03*
X114000Y33200D02*
D03*
X103600D02*
D03*
X98700Y33400D02*
D03*
X94200D02*
D03*
X124350Y42650D02*
D03*
X93200Y89100D02*
D03*
X234300Y104900D02*
D03*
X190100Y67900D02*
D03*
X45800Y103100D02*
D03*
X45900Y86100D02*
D03*
X60800Y72200D02*
D03*
X76700D02*
D03*
X77100Y77300D02*
D03*
X70600Y82700D02*
D03*
X89600Y76700D02*
D03*
Y81800D02*
D03*
X163100Y76000D02*
D03*
X170400Y79000D02*
D03*
X93700Y96900D02*
D03*
X126000Y94700D02*
D03*
X146900Y90200D02*
D03*
X166000Y78400D02*
D03*
X186800Y75300D02*
D03*
X200500Y88800D02*
D03*
X237500Y80200D02*
D03*
X166500Y94500D02*
D03*
X189400Y50000D02*
D03*
X199900Y43300D02*
D03*
X196600Y39900D02*
D03*
X155800Y41300D02*
D03*
X161400Y15000D02*
D03*
X169300Y21000D02*
D03*
X202900Y31300D02*
D03*
X263700Y26400D02*
D03*
X239000Y105800D02*
D03*
X250800Y97300D02*
D03*
X257539Y82500D02*
D03*
X260004Y83469D02*
D03*
Y80122D02*
D03*
Y76776D02*
D03*
Y73429D02*
D03*
Y70083D02*
D03*
Y66736D02*
D03*
Y63390D02*
D03*
Y60043D02*
D03*
Y56697D02*
D03*
Y53350D02*
D03*
Y50004D02*
D03*
Y46657D02*
D03*
Y43311D02*
D03*
Y39965D02*
D03*
Y36618D02*
D03*
X184500Y90000D02*
D03*
X244197Y79004D02*
D03*
X254280Y37500D02*
D03*
X250933D02*
D03*
X214035Y82500D02*
D03*
X214079Y40996D02*
D03*
X244240Y37500D02*
D03*
X247543Y40996D02*
D03*
X237547Y37500D02*
D03*
X240850Y40996D02*
D03*
X230854Y37500D02*
D03*
X234157Y40996D02*
D03*
X224161Y37500D02*
D03*
X227465Y40996D02*
D03*
X217469Y37500D02*
D03*
X220772Y40996D02*
D03*
X220728Y82500D02*
D03*
X217425Y79004D02*
D03*
X227421Y82500D02*
D03*
X224118Y79004D02*
D03*
X234114Y82500D02*
D03*
X230811Y79004D02*
D03*
X240807Y82500D02*
D03*
X247500D02*
D03*
X251508Y66492D02*
D03*
X237508Y74004D02*
D03*
X240800Y63100D02*
D03*
X234200D02*
D03*
X223500Y66500D02*
D03*
X251508Y59996D02*
D03*
X240700Y56700D02*
D03*
X234100D02*
D03*
X251508Y53500D02*
D03*
X214400Y62100D02*
D03*
X223500Y60004D02*
D03*
X213800Y54300D02*
D03*
X223500Y53508D02*
D03*
X237500Y45996D02*
D03*
X75300Y34400D02*
D03*
X72900Y25000D02*
D03*
X55400Y28900D02*
D03*
X50400Y28800D02*
D03*
X45800Y28700D02*
D03*
X55800Y16800D02*
D03*
X51700Y16600D02*
D03*
X47400D02*
D03*
D73*
X250200Y101000D02*
X252333D01*
X245600Y105600D02*
X250200Y101000D01*
X252333D02*
X263704Y89629D01*
Y35086D02*
Y89629D01*
X260000Y31382D02*
X263704Y35086D01*
X260000Y20291D02*
Y31382D01*
Y20291D02*
X262500Y17791D01*
Y5000D02*
Y17791D01*
M02*
