G04*
G04 #@! TF.GenerationSoftware,Altium Limited,Altium Designer,24.10.1 (45)*
G04*
G04 Layer_Physical_Order=1*
G04 Layer_Color=255*
%FSLAX25Y25*%
%MOIN*%
G70*
G04*
G04 #@! TF.SameCoordinates,F1117688-C2E4-4B3A-BF9F-62EBCE255B8A*
G04*
G04*
G04 #@! TF.FilePolarity,Positive*
G04*
G01*
G75*
%ADD12C,0.00600*%
%ADD16R,0.02126X0.02362*%
%ADD17R,0.02362X0.02126*%
%ADD18R,0.02362X0.01378*%
G04:AMPARAMS|DCode=19|XSize=23.62mil|YSize=21.26mil|CornerRadius=5.63mil|HoleSize=0mil|Usage=FLASHONLY|Rotation=90.000|XOffset=0mil|YOffset=0mil|HoleType=Round|Shape=RoundedRectangle|*
%AMROUNDEDRECTD19*
21,1,0.02362,0.00999,0,0,90.0*
21,1,0.01235,0.02126,0,0,90.0*
1,1,0.01127,0.00500,0.00618*
1,1,0.01127,0.00500,-0.00618*
1,1,0.01127,-0.00500,-0.00618*
1,1,0.01127,-0.00500,0.00618*
%
%ADD19ROUNDEDRECTD19*%
G04:AMPARAMS|DCode=20|XSize=9.55mil|YSize=33.06mil|CornerRadius=4.77mil|HoleSize=0mil|Usage=FLASHONLY|Rotation=270.000|XOffset=0mil|YOffset=0mil|HoleType=Round|Shape=RoundedRectangle|*
%AMROUNDEDRECTD20*
21,1,0.00955,0.02351,0,0,270.0*
21,1,0.00000,0.03306,0,0,270.0*
1,1,0.00955,-0.01176,0.00000*
1,1,0.00955,-0.01176,0.00000*
1,1,0.00955,0.01176,0.00000*
1,1,0.00955,0.01176,0.00000*
%
%ADD20ROUNDEDRECTD20*%
%ADD21R,0.01575X0.03150*%
%ADD22R,0.00955X0.03306*%
G04:AMPARAMS|DCode=23|XSize=53.43mil|YSize=22.53mil|CornerRadius=11.26mil|HoleSize=0mil|Usage=FLASHONLY|Rotation=0.000|XOffset=0mil|YOffset=0mil|HoleType=Round|Shape=RoundedRectangle|*
%AMROUNDEDRECTD23*
21,1,0.05343,0.00000,0,0,0.0*
21,1,0.03091,0.02253,0,0,0.0*
1,1,0.02253,0.01545,0.00000*
1,1,0.02253,-0.01545,0.00000*
1,1,0.02253,-0.01545,0.00000*
1,1,0.02253,0.01545,0.00000*
%
%ADD23ROUNDEDRECTD23*%
G04:AMPARAMS|DCode=24|XSize=33.06mil|YSize=9.55mil|CornerRadius=4.77mil|HoleSize=0mil|Usage=FLASHONLY|Rotation=270.000|XOffset=0mil|YOffset=0mil|HoleType=Round|Shape=RoundedRectangle|*
%AMROUNDEDRECTD24*
21,1,0.03306,0.00000,0,0,270.0*
21,1,0.02351,0.00955,0,0,270.0*
1,1,0.00955,0.00000,-0.01176*
1,1,0.00955,0.00000,0.01176*
1,1,0.00955,0.00000,0.01176*
1,1,0.00955,0.00000,-0.01176*
%
%ADD24ROUNDEDRECTD24*%
%ADD25R,0.05343X0.02253*%
%ADD26R,0.04528X0.01181*%
%ADD27R,0.02756X0.02362*%
G04:AMPARAMS|DCode=28|XSize=23.62mil|YSize=21.26mil|CornerRadius=5.63mil|HoleSize=0mil|Usage=FLASHONLY|Rotation=0.000|XOffset=0mil|YOffset=0mil|HoleType=Round|Shape=RoundedRectangle|*
%AMROUNDEDRECTD28*
21,1,0.02362,0.00999,0,0,0.0*
21,1,0.01235,0.02126,0,0,0.0*
1,1,0.01127,0.00618,-0.00500*
1,1,0.01127,-0.00618,-0.00500*
1,1,0.01127,-0.00618,0.00500*
1,1,0.01127,0.00618,0.00500*
%
%ADD28ROUNDEDRECTD28*%
%ADD29R,0.03150X0.01575*%
%ADD30R,0.03150X0.03150*%
%ADD31R,0.04724X0.04724*%
%ADD32R,0.06102X0.05118*%
%ADD33R,0.04528X0.02362*%
%ADD34R,0.01378X0.02362*%
G04:AMPARAMS|DCode=35|XSize=125.98mil|YSize=68.9mil|CornerRadius=2.07mil|HoleSize=0mil|Usage=FLASHONLY|Rotation=90.000|XOffset=0mil|YOffset=0mil|HoleType=Round|Shape=RoundedRectangle|*
%AMROUNDEDRECTD35*
21,1,0.12598,0.06476,0,0,90.0*
21,1,0.12185,0.06890,0,0,90.0*
1,1,0.00413,0.03238,0.06093*
1,1,0.00413,0.03238,-0.06093*
1,1,0.00413,-0.03238,-0.06093*
1,1,0.00413,-0.03238,0.06093*
%
%ADD35ROUNDEDRECTD35*%
G04:AMPARAMS|DCode=36|XSize=35.43mil|YSize=68.9mil|CornerRadius=1.95mil|HoleSize=0mil|Usage=FLASHONLY|Rotation=90.000|XOffset=0mil|YOffset=0mil|HoleType=Round|Shape=RoundedRectangle|*
%AMROUNDEDRECTD36*
21,1,0.03543,0.06500,0,0,90.0*
21,1,0.03154,0.06890,0,0,90.0*
1,1,0.00390,0.03250,0.01577*
1,1,0.00390,0.03250,-0.01577*
1,1,0.00390,-0.03250,-0.01577*
1,1,0.00390,-0.03250,0.01577*
%
%ADD36ROUNDEDRECTD36*%
%ADD47R,0.08071X0.08071*%
G04:AMPARAMS|DCode=53|XSize=39.37mil|YSize=70.87mil|CornerRadius=19.68mil|HoleSize=0mil|Usage=FLASHONLY|Rotation=270.000|XOffset=0mil|YOffset=0mil|HoleType=Round|Shape=RoundedRectangle|*
%AMROUNDEDRECTD53*
21,1,0.03937,0.03150,0,0,270.0*
21,1,0.00000,0.07087,0,0,270.0*
1,1,0.03937,-0.01575,0.00000*
1,1,0.03937,-0.01575,0.00000*
1,1,0.03937,0.01575,0.00000*
1,1,0.03937,0.01575,0.00000*
%
%ADD53ROUNDEDRECTD53*%
G04:AMPARAMS|DCode=54|XSize=39.37mil|YSize=86.61mil|CornerRadius=19.68mil|HoleSize=0mil|Usage=FLASHONLY|Rotation=270.000|XOffset=0mil|YOffset=0mil|HoleType=Round|Shape=RoundedRectangle|*
%AMROUNDEDRECTD54*
21,1,0.03937,0.04724,0,0,270.0*
21,1,0.00000,0.08661,0,0,270.0*
1,1,0.03937,-0.02362,0.00000*
1,1,0.03937,-0.02362,0.00000*
1,1,0.03937,0.02362,0.00000*
1,1,0.03937,0.02362,0.00000*
%
%ADD54ROUNDEDRECTD54*%
%ADD58R,0.01575X0.01575*%
%ADD59C,0.01500*%
%ADD60C,0.01200*%
%ADD61C,0.00603*%
%ADD62C,0.02000*%
%ADD63C,0.04000*%
%ADD64C,0.02500*%
%ADD65C,0.01001*%
%ADD66C,0.00623*%
%ADD67C,0.06400*%
%ADD68R,0.06400X0.06400*%
%ADD69C,0.04000*%
%ADD70R,0.04000X0.04000*%
%ADD71R,0.04000X0.04000*%
%ADD72C,0.02400*%
G36*
X244500Y106700D02*
Y103600D01*
Y100645D01*
X242097D01*
X241690Y100725D01*
X238800D01*
X238393Y100645D01*
X236400D01*
Y101379D01*
X236401Y101382D01*
Y101884D01*
X236443Y102096D01*
X236416Y102232D01*
Y104259D01*
X236500Y104462D01*
Y105338D01*
X236400Y105579D01*
Y106274D01*
X236982D01*
X237489Y106375D01*
X237919Y106663D01*
X238190Y106934D01*
X244500Y106700D01*
D02*
G37*
G36*
X87500Y95500D02*
X83762D01*
X81356Y97906D01*
X80926Y98193D01*
X80777Y98223D01*
X80300Y98700D01*
X80000D01*
Y100800D01*
X80600Y101400D01*
Y103800D01*
X87500D01*
Y95500D01*
D02*
G37*
G36*
X58500Y89800D02*
X59500Y88800D01*
X59600Y88900D01*
X61750Y88550D01*
X61950Y86850D01*
X59000Y83600D01*
X55400D01*
X55200Y83400D01*
X54300Y81750D01*
X54141Y81459D01*
X53921Y81079D01*
X53350Y79650D01*
X53128Y78824D01*
Y77166D01*
X53600Y76900D01*
X53819D01*
Y76638D01*
X56362D01*
X56500Y76500D01*
X57500D01*
Y76100D01*
X57600Y76000D01*
Y73900D01*
X53080Y73900D01*
X51757Y74873D01*
X50850Y76546D01*
Y81750D01*
X51350Y82250D01*
X51700Y82800D01*
X52400Y83200D01*
Y85200D01*
X52385Y85304D01*
X52401Y85382D01*
Y86336D01*
X52600Y87200D01*
X53400Y87600D01*
X53500Y87500D01*
X57800Y91800D01*
X58500D01*
Y89800D01*
D02*
G37*
G36*
X34500Y84900D02*
X39755D01*
X40105Y84343D01*
X40028Y84228D01*
X39906Y83618D01*
Y82382D01*
X40028Y81772D01*
X40046Y81746D01*
X38900Y80600D01*
X39000Y80500D01*
Y79611D01*
X38435Y79046D01*
X38100Y78238D01*
Y77362D01*
X38435Y76554D01*
X39000Y75989D01*
Y68800D01*
X42351D01*
X42700Y68300D01*
Y59800D01*
X40800D01*
X40240Y60360D01*
X40197Y60717D01*
X40154Y60849D01*
X40126Y60986D01*
X40092Y61037D01*
X40073Y61095D01*
X39983Y61201D01*
X39906Y61316D01*
X39429Y61793D01*
X39401Y61842D01*
X38842Y62401D01*
X38793Y62429D01*
X38501Y62721D01*
X38170Y62942D01*
X37780Y63020D01*
X35367D01*
X35279Y63002D01*
X35190Y63004D01*
X34878Y62949D01*
X34774Y62909D01*
X34665Y62887D01*
X34590Y62837D01*
X34507Y62805D01*
X34427Y62728D01*
X34334Y62666D01*
X34068Y62400D01*
X31100D01*
Y75235D01*
X31369Y75638D01*
X31505Y76320D01*
Y79000D01*
X31409Y79479D01*
Y81098D01*
X31665Y81354D01*
X32000Y82162D01*
Y83038D01*
X31665Y83846D01*
X31100Y84411D01*
Y85384D01*
X31473Y87186D01*
X32108Y87292D01*
X34500Y84900D01*
D02*
G37*
G36*
X254700Y75800D02*
Y44200D01*
X221859D01*
X221300Y44759D01*
Y75900D01*
X221341Y76000D01*
X253900D01*
X254200Y76300D01*
X254700Y75800D01*
D02*
G37*
G36*
X36218Y56947D02*
X36249Y56947D01*
X36278Y56937D01*
X36447Y56948D01*
X36616Y56949D01*
X36644Y56961D01*
X36675Y56963D01*
X36739Y56980D01*
X37261D01*
X37608Y56887D01*
X37648Y56885D01*
X37684Y56867D01*
X37764Y56845D01*
X38177Y56608D01*
X38607Y56177D01*
X38788Y55864D01*
X38810Y55839D01*
X38823Y55808D01*
X38940Y55690D01*
X39050Y55565D01*
X39080Y55550D01*
X39104Y55526D01*
X39189Y55470D01*
X42870Y51789D01*
X43117Y51420D01*
X43134Y51334D01*
X43189Y51251D01*
X43228Y51158D01*
X43299Y51087D01*
X43354Y51004D01*
X43608Y50749D01*
X43950Y44732D01*
X43813Y44528D01*
X43692Y43918D01*
Y42682D01*
X43813Y42072D01*
X43997Y41797D01*
X41700Y39500D01*
X38200D01*
X37354Y38654D01*
X36800Y38884D01*
Y41119D01*
X36809D01*
Y43447D01*
X36889Y43566D01*
X37025Y44249D01*
X36889Y44932D01*
X36884Y44939D01*
Y46673D01*
X36965Y46754D01*
X37300Y47562D01*
Y48200D01*
X37900Y48800D01*
X35800Y50900D01*
X35100D01*
Y56551D01*
X35589Y57068D01*
X36218Y56947D01*
D02*
G37*
G36*
X39185Y60595D02*
X39400Y58800D01*
X55100Y43100D01*
Y39100D01*
X58300D01*
X58400Y39100D01*
X58500Y39000D01*
X58900Y39000D01*
X58900Y39876D01*
X59324Y40300D01*
X66000D01*
X66500Y39800D01*
Y36200D01*
X58400D01*
X57500Y36600D01*
X54300D01*
X54101Y36401D01*
X53382D01*
X53379Y36400D01*
X52500D01*
Y39100D01*
X52900Y39500D01*
X52800Y39600D01*
Y43000D01*
X44075Y51725D01*
X44049Y51860D01*
X43662Y52439D01*
X43662Y52439D01*
X39839Y56262D01*
X39671Y56374D01*
X39401Y56842D01*
X38842Y57401D01*
X38158Y57796D01*
X37948Y57852D01*
X37900Y57900D01*
X37872Y57872D01*
X37395Y58000D01*
X36605D01*
X36411Y57948D01*
X35100Y58200D01*
X34755Y61645D01*
X35055Y61945D01*
X35367Y62000D01*
X37780D01*
X39185Y60595D01*
D02*
G37*
G36*
X68400Y21572D02*
Y15200D01*
X67883Y15000D01*
X45400D01*
Y21600D01*
X48140Y21648D01*
X48382Y21599D01*
X49618D01*
X50025Y21680D01*
X52761Y21728D01*
X52772Y21721D01*
X53382Y21599D01*
X54618D01*
X55228Y21721D01*
X55305Y21772D01*
X67972Y21993D01*
X68400Y21572D01*
D02*
G37*
G36*
X118700Y30000D02*
X119000Y29700D01*
X118000Y28700D01*
X100100D01*
X91874Y20474D01*
X85134D01*
X84601Y19941D01*
X83267Y21275D01*
Y23449D01*
X83402Y23584D01*
X83645Y23948D01*
X83731Y24378D01*
Y30753D01*
X83645Y31183D01*
X83402Y31547D01*
X83267Y31682D01*
Y32212D01*
X78821Y36658D01*
X73485D01*
Y32657D01*
X63767Y22939D01*
X55287Y22792D01*
X55198Y22772D01*
X55106D01*
X55005Y22730D01*
X54898Y22707D01*
X54873Y22690D01*
X54517Y22619D01*
X53483D01*
X52984Y22718D01*
X52960Y22728D01*
X52851Y22728D01*
X52744Y22748D01*
X50007Y22700D01*
X49918Y22680D01*
X49826D01*
X49517Y22619D01*
X48483D01*
X48339Y22648D01*
X48229Y22648D01*
X48122Y22667D01*
X47721Y22660D01*
X47595Y22786D01*
X46986D01*
Y24387D01*
X43429Y27944D01*
Y29400D01*
X45300Y30400D01*
X51889Y35606D01*
X52110Y35458D01*
X52500Y35380D01*
X53379D01*
X53382Y35381D01*
D01*
X54101D01*
X54491Y35459D01*
X54673Y35580D01*
X56720D01*
X58800Y33500D01*
X67700D01*
X71300Y38700D01*
X80800D01*
X90600Y48500D01*
X118700D01*
Y30000D01*
D02*
G37*
D12*
X24484Y15110D02*
X33020D01*
X35110Y17201D01*
X42000D01*
X35457Y35500D02*
X36720Y34238D01*
X40443D01*
X34629Y35500D02*
X35457D01*
X40443Y34238D02*
X41282Y33399D01*
X41400D01*
X28000Y28871D02*
X34629Y35500D01*
X28000Y27996D02*
Y28871D01*
X27204Y27199D02*
X28000Y27996D01*
X26646Y27012D02*
X26834Y27199D01*
X24575Y27012D02*
X26646D01*
X26834Y27199D02*
X27204D01*
X194138Y103542D02*
Y103802D01*
X228300Y104600D02*
X231300Y107600D01*
X193862Y103267D02*
X194138Y103542D01*
Y103802D02*
X195017Y104681D01*
X198385D02*
X198466Y104600D01*
X228300D01*
X193862Y102563D02*
Y103267D01*
X193299Y102000D02*
X193862Y102563D01*
X195017Y104681D02*
X198385D01*
X197900Y77100D02*
X201614Y73386D01*
X209945D01*
X204511Y76732D02*
X209945D01*
X203879Y76100D02*
X204511Y76732D01*
X203500Y76100D02*
X203879D01*
X201100Y83200D02*
X201213Y83313D01*
X209832D01*
X209945Y83425D01*
X190800Y75200D02*
X195961Y70039D01*
X147900Y41861D02*
X148700Y42661D01*
Y54100D01*
X147900Y30800D02*
Y41861D01*
X72396Y102541D02*
Y104496D01*
X73800Y105900D01*
X75100D01*
X77806Y92663D02*
X80788Y89681D01*
X77499Y92663D02*
X77806D01*
X76000Y95000D02*
X79559D01*
X77130Y91063D02*
X80512Y87681D01*
X77130Y93032D02*
X77499Y92663D01*
X76041Y87459D02*
X79736Y83764D01*
X64522Y86828D02*
Y87459D01*
X76000Y96969D02*
X80419D01*
X76000Y91063D02*
X77130D01*
X76000Y93032D02*
X77130D01*
X72396Y87459D02*
X76041D01*
X33078Y89110D02*
X33310D01*
X29280Y88752D02*
X32720D01*
X28922Y89110D02*
X29280Y88752D01*
X32720D02*
X33078Y89110D01*
X33310D02*
X35800Y91600D01*
X36836D02*
X38736Y93501D01*
X35800Y91600D02*
X36836D01*
X38736Y93501D02*
X41100D01*
X24484Y89110D02*
X28922D01*
X28200Y104100D02*
X30100Y106000D01*
X28200Y101883D02*
Y104100D01*
X27328Y101012D02*
X28200Y101883D01*
X24484Y100921D02*
X24575Y101012D01*
X27328D01*
X37912Y102335D02*
Y102352D01*
X36438Y100862D02*
X37912Y102335D01*
X38498Y102938D02*
X40337D01*
X37912Y102352D02*
X38498Y102938D01*
X40337D02*
X40900Y103501D01*
X34586Y100862D02*
X36438D01*
X34000Y101447D02*
X34586Y100862D01*
X34000Y101447D02*
Y104418D01*
X32418Y106000D02*
X34000Y104418D01*
X30100Y106000D02*
X32418D01*
X24484Y26921D02*
X24575Y27012D01*
X203299Y19000D02*
X203400Y19101D01*
X202814Y26600D02*
X203400Y26014D01*
X200953Y26600D02*
X202814D01*
X203400Y19101D02*
Y26014D01*
X197353Y30200D02*
X200953Y26600D01*
X192843Y30200D02*
X197353D01*
X182100Y40943D02*
X192843Y30200D01*
X182100Y40943D02*
Y72300D01*
X180800Y73600D02*
X182100Y72300D01*
X165500Y73600D02*
X180800D01*
X163100Y76000D02*
X165500Y73600D01*
X214299Y19000D02*
Y27501D01*
X198182Y32200D02*
X201782Y28600D01*
X213200D01*
X214299Y27501D01*
X193672Y32200D02*
X198182D01*
X184100Y41772D02*
X193672Y32200D01*
X184100Y41772D02*
Y74814D01*
X182514Y76400D02*
X184100Y74814D01*
X173000Y76400D02*
X182514D01*
X170400Y79000D02*
X173000Y76400D01*
X196963Y82737D02*
X199621Y80079D01*
X196963Y82737D02*
Y84158D01*
X195600Y85521D02*
X196963Y84158D01*
X207461Y48614D02*
X207749Y48902D01*
X197800Y49800D02*
X198986Y48614D01*
X207461D01*
X207749Y48902D02*
X208284D01*
X197700Y49800D02*
X197800D01*
X208284Y48902D02*
X208870Y49487D01*
Y49673D01*
X205500Y51600D02*
X206300Y52400D01*
X208870Y49673D02*
X209157Y49961D01*
X209945D01*
X206300Y52400D02*
X206700D01*
X190100Y67900D02*
X193594Y64406D01*
X207794D01*
X208566Y63634D01*
X209657D01*
X209945Y63346D01*
X209941Y53304D02*
X209945Y53307D01*
X206700Y52400D02*
X207604Y53304D01*
X209941D01*
X191200Y52900D02*
X191468Y52632D01*
Y51751D02*
Y52632D01*
Y51751D02*
X191668Y51550D01*
X192100Y51118D01*
Y47200D02*
Y51118D01*
Y47200D02*
X192686Y46614D01*
X209945D01*
X151401Y27299D02*
X165000D01*
X147900Y30800D02*
X151401Y27299D01*
X165000Y22693D02*
Y27299D01*
X158500Y18992D02*
Y22614D01*
X164493Y23200D02*
X165000Y22693D01*
X159086Y23200D02*
X164493D01*
X158500Y22614D02*
X159086Y23200D01*
X156142Y16142D02*
X158201Y18201D01*
Y18693D02*
X158500Y18992D01*
X155650Y16142D02*
X156142D01*
X158201Y18201D02*
Y18693D01*
X124843Y16142D02*
X155650D01*
X124350D02*
X124843D01*
X126902Y18201D01*
Y18693D02*
X134200Y25991D01*
X126902Y18201D02*
Y18693D01*
X134200Y25991D02*
Y74100D01*
X130900Y77400D02*
X134200Y74100D01*
X122861Y77400D02*
X130900D01*
X114742Y84000D02*
X116261D01*
X122861Y77400D01*
X190886Y97000D02*
X193299D01*
X190300Y91600D02*
Y96414D01*
X190886Y97000D01*
X186000Y87300D02*
X190300Y91600D01*
X174150Y87300D02*
X186000D01*
X171757Y89693D02*
X174150Y87300D01*
X166000Y89693D02*
X171757D01*
X165476Y89169D02*
X166000Y89693D01*
X164827Y89169D02*
X165476D01*
X162484Y86827D02*
X164827Y89169D01*
X162484Y85984D02*
Y86827D01*
X160142Y83642D02*
X162484Y85984D01*
X155650Y83642D02*
X160142D01*
X124350D02*
X155650D01*
X124014Y83978D02*
Y87600D01*
X116486D02*
X124014D01*
Y83978D02*
X124350Y83642D01*
X115900Y88186D02*
Y95128D01*
Y88186D02*
X116486Y87600D01*
X114742Y96286D02*
X115900Y95128D01*
X114742Y96286D02*
Y99000D01*
X102786Y87740D02*
X107258D01*
X102200Y87154D02*
X102786Y87740D01*
X102200Y84535D02*
Y87154D01*
X99527Y81862D02*
X102200Y84535D01*
X98563Y81862D02*
X99527D01*
X98000Y81299D02*
X98563Y81862D01*
X98000Y92272D02*
X100988Y95260D01*
X107258D01*
X98000Y84701D02*
Y92272D01*
X94259Y92100D02*
X95900Y90459D01*
X82459Y92100D02*
X94259D01*
X95900Y86801D02*
Y90459D01*
X97319Y85264D02*
Y85382D01*
X95900Y86801D02*
X97319Y85382D01*
X97882Y84701D02*
X98000D01*
X97319Y85264D02*
X97882Y84701D01*
X80788Y89681D02*
X88263D01*
X90718Y89900D02*
X91251Y89368D01*
X88263Y89681D02*
X88482Y89900D01*
X90718D01*
X92932Y89368D02*
X93200Y89100D01*
X91251Y89368D02*
X92932D01*
X79559Y95000D02*
X82459Y92100D01*
X98000Y98299D02*
X109901D01*
X83287Y94100D02*
X97000D01*
X98000Y96100D02*
X98086Y96014D01*
X97000Y94100D02*
X98086Y95186D01*
X98000Y96100D02*
Y98299D01*
X98086Y95186D02*
Y96014D01*
X80419Y96969D02*
X83287Y94100D01*
X108323Y82886D02*
X112800Y87363D01*
X107744Y80260D02*
X108323Y80838D01*
Y82886D01*
X112800Y87363D02*
Y95400D01*
X107258Y80260D02*
X107744D01*
X109901Y98299D02*
X112800Y95400D01*
X104673Y101701D02*
X105712Y102740D01*
X98000Y101701D02*
X104673D01*
X105712Y102740D02*
X107258D01*
X250890Y87559D02*
Y93010D01*
X249300Y94600D02*
X250890Y93010D01*
X249300Y94600D02*
Y94838D01*
X244819Y99319D02*
X249300Y94838D01*
X241771Y99319D02*
X244819D01*
X238800Y99400D02*
X241690D01*
X241771Y99319D01*
X232953D02*
X238719D01*
X231734Y100538D02*
X232953Y99319D01*
X231734Y100538D02*
Y101366D01*
X230514Y102586D02*
X231734Y101366D01*
X238719Y99319D02*
X238800Y99400D01*
X229686Y102586D02*
X230514D01*
X229100Y102000D02*
X229686Y102586D01*
X196701Y102000D02*
X229100D01*
X196701Y97000D02*
Y102000D01*
X236982Y107600D02*
X241882Y112500D01*
X231300Y107600D02*
X236982D01*
X241882Y112500D02*
X242500D01*
X174197Y95870D02*
X186013Y107686D01*
X221914D01*
X222500Y108272D01*
Y112500D01*
X60996Y78697D02*
X61000Y78693D01*
X56004Y78697D02*
X60996D01*
X56000Y78701D02*
X56004Y78697D01*
X61000Y83307D02*
X64522Y86828D01*
X61000Y78693D02*
Y83307D01*
X82299Y77000D02*
Y77118D01*
X79736Y79681D02*
X82299Y77118D01*
X79736Y79681D02*
Y83764D01*
X82299Y82000D02*
Y87000D01*
X80512Y87681D02*
X81736D01*
X82299Y87118D01*
Y87000D02*
Y87118D01*
X212500Y5000D02*
Y11700D01*
X217701Y16901D01*
Y19000D01*
X202100Y5400D02*
X202500Y5000D01*
X202100Y5400D02*
Y10600D01*
X206701Y15201D01*
Y19000D01*
X89701Y102000D02*
X89801Y102100D01*
X195961Y70039D02*
X209945D01*
X195407Y66693D02*
X209945D01*
X186800Y75300D02*
X195407Y66693D01*
X199621Y80079D02*
X209945D01*
X174000Y95870D02*
X174197D01*
X180437Y95138D02*
X181000Y95701D01*
X179473Y95138D02*
X180437D01*
X177914Y93578D02*
X179473Y95138D01*
X177914Y93414D02*
Y93578D01*
X176630Y92130D02*
X177914Y93414D01*
X174000Y92130D02*
X176630D01*
X237502Y87557D02*
X237504Y87559D01*
X237500Y80200D02*
X237502Y80202D01*
Y87557D01*
X166500Y94500D02*
X167870Y95870D01*
X174000D01*
X189400Y39300D02*
Y50000D01*
Y39300D02*
X192125Y36575D01*
X209945D01*
X199900Y43300D02*
X199932Y43268D01*
X209945D01*
X196621Y39921D02*
X209945D01*
X196600Y39900D02*
X196621Y39921D01*
X232500Y5000D02*
X233800D01*
X257583Y28783D01*
Y32441D01*
X243000Y5500D02*
Y9700D01*
X242500Y5000D02*
X243000Y5500D01*
Y9700D02*
X260929Y27629D01*
Y32441D01*
X244197Y79004D02*
Y87559D01*
X214079Y82543D02*
Y87559D01*
Y32441D02*
Y40996D01*
X244197Y32441D02*
Y37457D01*
X247543Y32441D02*
Y40996D01*
X237504Y32441D02*
Y37457D01*
X240850Y32441D02*
Y40996D01*
X230811Y32441D02*
Y37457D01*
X234157Y32441D02*
Y40996D01*
X224118Y32441D02*
Y37457D01*
X227465Y32441D02*
Y40996D01*
X217425Y32441D02*
Y37457D01*
X220772Y32441D02*
Y40996D01*
Y82543D02*
Y87559D01*
X217425Y79004D02*
Y87559D01*
X227465Y82543D02*
Y87559D01*
X224118Y79004D02*
Y87559D01*
X234157Y82543D02*
Y87559D01*
X230811Y79004D02*
Y87559D01*
X240850Y82543D02*
Y87559D01*
X247543Y82543D02*
Y87559D01*
X247500Y82500D02*
X247543Y82543D01*
D16*
X194998Y61800D02*
D03*
X198400D02*
D03*
X86299Y102000D02*
D03*
X89701D02*
D03*
X82299Y87000D02*
D03*
Y82000D02*
D03*
X206701Y19000D02*
D03*
X217701D02*
D03*
X214299D02*
D03*
X203299D02*
D03*
X82299Y77000D02*
D03*
X196701Y102000D02*
D03*
Y97000D02*
D03*
X85701Y82000D02*
D03*
Y77000D02*
D03*
X53701Y97000D02*
D03*
Y92000D02*
D03*
X198300Y54900D02*
D03*
D03*
X198400Y61800D02*
D03*
X193299Y102000D02*
D03*
X201702Y54900D02*
D03*
X201802Y61800D02*
D03*
X194898Y54900D02*
D03*
X50299Y97000D02*
D03*
Y92000D02*
D03*
X193299Y97000D02*
D03*
X70201Y67700D02*
D03*
D03*
X66799D02*
D03*
X85701Y87000D02*
D03*
X73602Y67700D02*
D03*
D17*
X42000Y13799D02*
D03*
Y17201D02*
D03*
X41400Y36801D02*
D03*
Y33399D02*
D03*
X98000Y98299D02*
D03*
Y101701D02*
D03*
Y81299D02*
D03*
X41100Y93501D02*
D03*
X40900Y103501D02*
D03*
X181000Y95701D02*
D03*
Y19299D02*
D03*
X56000Y78701D02*
D03*
X40900Y100099D02*
D03*
X41100Y90099D02*
D03*
X98000Y84701D02*
D03*
X165000Y27299D02*
D03*
X181000Y92299D02*
D03*
X165000Y30701D02*
D03*
X181000Y22701D02*
D03*
X56000Y75299D02*
D03*
D18*
X34900Y27341D02*
D03*
Y29900D02*
D03*
X31000Y101880D02*
D03*
Y99320D02*
D03*
Y93300D02*
D03*
X33400Y19441D02*
D03*
Y22000D02*
D03*
X31000Y90741D02*
D03*
D19*
X42000Y83000D02*
D03*
X38614D02*
D03*
X255693Y102000D02*
D03*
X246693D02*
D03*
X234307D02*
D03*
X257307Y19000D02*
D03*
X89693Y97000D02*
D03*
X50307Y103000D02*
D03*
Y86000D02*
D03*
X73693Y74000D02*
D03*
Y79000D02*
D03*
X45786Y43300D02*
D03*
X70307Y79000D02*
D03*
Y74000D02*
D03*
X53693Y103000D02*
D03*
X42400Y43300D02*
D03*
X252307Y102000D02*
D03*
X243307D02*
D03*
X237693D02*
D03*
X260693Y19000D02*
D03*
X86307Y97000D02*
D03*
X53693Y86000D02*
D03*
D20*
X76000Y91063D02*
D03*
Y93032D02*
D03*
Y96969D02*
D03*
X60917Y95000D02*
D03*
Y93032D02*
D03*
X76000Y95000D02*
D03*
Y98937D02*
D03*
X60917Y91063D02*
D03*
Y96969D02*
D03*
Y98937D02*
D03*
D21*
X240850Y32441D02*
D03*
X244197D02*
D03*
X257583D02*
D03*
X247543D02*
D03*
X237504D02*
D03*
X234157D02*
D03*
X230811D02*
D03*
X227465D02*
D03*
X224118D02*
D03*
X220772D02*
D03*
X217425D02*
D03*
X214079D02*
D03*
Y87559D02*
D03*
X217425D02*
D03*
X220772D02*
D03*
X224118D02*
D03*
X227465D02*
D03*
X230811D02*
D03*
X234157D02*
D03*
X237504D02*
D03*
X240850D02*
D03*
X244197D02*
D03*
X247543D02*
D03*
X250890D02*
D03*
X260929D02*
D03*
X257583D02*
D03*
X254236Y32441D02*
D03*
X250890D02*
D03*
X260929D02*
D03*
X254236Y87559D02*
D03*
D22*
X72396Y102541D02*
D03*
D23*
X107258Y80260D02*
D03*
Y95260D02*
D03*
X114742Y84000D02*
D03*
Y99000D02*
D03*
D24*
X72396Y87459D02*
D03*
X64522D02*
D03*
X68459Y102541D02*
D03*
Y87459D02*
D03*
X66490D02*
D03*
X70427D02*
D03*
X64522Y102541D02*
D03*
X66490D02*
D03*
X70427D02*
D03*
D25*
X107258Y102740D02*
D03*
Y87740D02*
D03*
D26*
X24484Y15110D02*
D03*
Y26921D02*
D03*
Y89110D02*
D03*
Y100921D02*
D03*
Y22984D02*
D03*
Y19047D02*
D03*
Y24953D02*
D03*
Y21016D02*
D03*
Y96984D02*
D03*
Y93047D02*
D03*
Y98953D02*
D03*
Y95016D02*
D03*
Y102890D02*
D03*
Y91079D02*
D03*
Y17079D02*
D03*
Y28890D02*
D03*
D27*
X174000Y92130D02*
D03*
Y22870D02*
D03*
Y95870D02*
D03*
Y19130D02*
D03*
D28*
X61000Y78693D02*
D03*
X166000Y86307D02*
D03*
X165000Y19307D02*
D03*
X61000Y75307D02*
D03*
X54000Y34307D02*
D03*
Y23693D02*
D03*
X49000D02*
D03*
X165000Y22693D02*
D03*
X166000Y89693D02*
D03*
X54000Y37693D02*
D03*
Y20307D02*
D03*
X49000D02*
D03*
D29*
X209945Y36575D02*
D03*
Y46614D02*
D03*
Y39921D02*
D03*
Y43268D02*
D03*
Y49961D02*
D03*
Y53307D02*
D03*
Y63346D02*
D03*
Y66693D02*
D03*
Y70039D02*
D03*
Y73386D02*
D03*
Y76732D02*
D03*
Y80079D02*
D03*
Y83425D02*
D03*
X265063D02*
D03*
Y80079D02*
D03*
Y63346D02*
D03*
Y76732D02*
D03*
Y70039D02*
D03*
Y73386D02*
D03*
Y66693D02*
D03*
Y46614D02*
D03*
Y43268D02*
D03*
Y56654D02*
D03*
Y60000D02*
D03*
Y53307D02*
D03*
Y49961D02*
D03*
Y36575D02*
D03*
Y39921D02*
D03*
X209945Y56654D02*
D03*
Y60000D02*
D03*
D30*
X265063Y87559D02*
D03*
X209945D02*
D03*
X265063Y32441D02*
D03*
X209945D02*
D03*
D31*
X237504Y66496D02*
D03*
X231008D02*
D03*
X244000Y60000D02*
D03*
X237504D02*
D03*
X244000Y53504D02*
D03*
X237504D02*
D03*
X231008Y60000D02*
D03*
Y53504D02*
D03*
D32*
X155650Y101358D02*
D03*
X124350D02*
D03*
X155650Y33858D02*
D03*
X124350D02*
D03*
X155650Y16142D02*
D03*
X124350D02*
D03*
Y83642D02*
D03*
X155650D02*
D03*
D33*
X24484Y108598D02*
D03*
Y83402D02*
D03*
Y34598D02*
D03*
Y9402D02*
D03*
Y31449D02*
D03*
Y12551D02*
D03*
Y105449D02*
D03*
Y86551D02*
D03*
D34*
X35120Y43300D02*
D03*
X29720Y79000D02*
D03*
X37680Y43300D02*
D03*
X32280Y79000D02*
D03*
D35*
X87303Y29000D02*
D03*
D36*
X62697D02*
D03*
Y38055D02*
D03*
Y19945D02*
D03*
D47*
X68459Y95000D02*
D03*
D53*
X22220Y113008D02*
D03*
Y39008D02*
D03*
Y78992D02*
D03*
Y4992D02*
D03*
D54*
X6472Y113008D02*
D03*
Y78992D02*
D03*
Y39008D02*
D03*
Y4992D02*
D03*
D58*
X244000Y66496D02*
D03*
D59*
X24727Y83158D02*
X28998D01*
X37000Y13500D02*
X37299Y13799D01*
X42000D01*
X44114Y37114D02*
X45200Y38200D01*
X41713Y37114D02*
X44114D01*
X51950Y76603D02*
X53254Y75299D01*
X51950Y76603D02*
Y79731D01*
X53254Y75299D02*
X56000D01*
X51950Y79731D02*
X52706Y80487D01*
Y82194D02*
X54006Y83494D01*
X52706Y80487D02*
Y82194D01*
X54006Y83494D02*
Y84591D01*
X57790D01*
X70307Y74000D02*
Y79000D01*
X47400Y16600D02*
X51700D01*
X51800Y16700D01*
X55700D01*
X55800Y16800D01*
X181000Y22701D02*
X186356D01*
X175725Y22439D02*
X178552Y19612D01*
X174431Y22439D02*
X175725D01*
X180687Y19612D02*
X181000Y19299D01*
X174000Y22870D02*
X174431Y22439D01*
X178552Y19612D02*
X180687D01*
X186356Y22701D02*
X187957Y21100D01*
X188200D01*
X89801Y101782D02*
Y102100D01*
X73302Y67582D02*
Y67700D01*
Y67582D02*
X74784Y66100D01*
X254236Y87559D02*
Y91064D01*
X253900Y91400D02*
X254236Y91064D01*
X58365Y90790D02*
X60645D01*
X53693Y86000D02*
Y86118D01*
X60645Y90790D02*
X60917Y91063D01*
X53693Y86118D02*
X58365Y90790D01*
X57790Y84591D02*
X60600Y87400D01*
X89801Y101782D02*
X90014Y101569D01*
X92588D01*
X93056Y101100D01*
X93300D01*
X86199Y102100D02*
X86299Y102000D01*
X83000Y102100D02*
X86199D01*
X82900Y102200D02*
X83000Y102100D01*
X86299Y97431D02*
Y102000D01*
X29557Y82600D02*
X29800D01*
X24484Y83402D02*
X24727Y83158D01*
X28998D02*
X29557Y82600D01*
X40300Y77869D02*
X42000Y79569D01*
Y83000D01*
X40300Y77800D02*
Y77869D01*
X38553Y63750D02*
X41003Y61300D01*
X38250Y63750D02*
X38553D01*
X37000Y65000D02*
X38250Y63750D01*
X75572Y61300D02*
X79650Y65378D01*
X41003Y61300D02*
X75572D01*
X79650Y65378D02*
Y71421D01*
X80529Y72300D01*
X87600D01*
X89000Y73700D01*
X90772D01*
X92550Y75478D01*
Y83022D01*
X88572Y87000D02*
X92550Y83022D01*
X85701Y87000D02*
X88572D01*
X31000Y101880D02*
X31089D01*
X31150Y101941D01*
Y103150D02*
X31300Y103300D01*
X31150Y101941D02*
Y103150D01*
X27851Y108549D02*
X27900Y108500D01*
X24484Y108598D02*
X24533Y108549D01*
X27851D01*
X28700Y75300D02*
X29720Y76320D01*
Y79000D01*
X39655Y88772D02*
X40669Y89786D01*
X40787D02*
X41100Y90099D01*
X38572Y88772D02*
X39655D01*
X40669Y89786D02*
X40787D01*
X38400Y88600D02*
X38572Y88772D01*
X41000Y97200D02*
Y99999D01*
X40900Y100099D02*
X41000Y99999D01*
X31050Y93350D02*
Y96550D01*
X31000Y93300D02*
X31050Y93350D01*
Y96550D02*
X31100Y96600D01*
X41400Y36801D02*
X41713Y37114D01*
X35100Y44390D02*
Y48000D01*
Y44390D02*
X35241Y44249D01*
X37000Y55000D02*
X38577D01*
X45786Y43182D02*
Y43300D01*
Y43182D02*
X47995Y40972D01*
X50228D01*
X50400Y40800D01*
X254236Y32441D02*
Y37457D01*
X69901Y67700D02*
X70214Y68013D01*
X70307Y67806D02*
Y74000D01*
X74784Y66100D02*
X76200D01*
X40040Y43300D02*
X42400D01*
X37680D02*
X40040D01*
X42400D02*
Y51177D01*
X38577Y55000D02*
X42400Y51177D01*
X28100Y37132D02*
Y37800D01*
X28200Y37900D01*
X24484Y34598D02*
X25567D01*
X28100Y37132D01*
X28998Y9402D02*
X29100Y9300D01*
X24484Y9402D02*
X28998D01*
X49118Y20307D02*
X54000D01*
X49118D02*
X51528Y17897D01*
X49000Y20307D02*
X49118D01*
X54118D02*
X54480Y19945D01*
X54000Y20307D02*
X54118D01*
X54480Y19945D02*
X62697D01*
X50400Y28556D02*
Y28800D01*
X49000Y23693D02*
Y27156D01*
X50400Y28556D01*
X45850Y28750D02*
X50350D01*
X50400Y28800D01*
X45800Y28700D02*
X45850Y28750D01*
X55350Y28850D02*
X55400Y28900D01*
X50450Y28850D02*
X55350D01*
X50400Y28800D02*
X50450Y28850D01*
X54000Y27256D02*
X55400Y28656D01*
X54000Y23693D02*
Y27256D01*
X55400Y28656D02*
Y28900D01*
X54000Y30544D02*
X55400Y29144D01*
X54000Y30544D02*
Y34307D01*
X55400Y28900D02*
Y29144D01*
X62647Y28950D02*
X62697Y29000D01*
X55450Y28950D02*
X62647D01*
X55400Y28900D02*
X55450Y28950D01*
X87303Y29000D02*
Y30705D01*
X89998Y33400D01*
X94200D01*
X124350Y33858D02*
Y42650D01*
X80900Y99551D02*
X81018D01*
X83138Y97431D01*
X86299D01*
X53380Y103313D02*
Y111620D01*
X52500Y112500D02*
X53380Y111620D01*
Y103313D02*
X53693Y103000D01*
X45900D02*
X50307D01*
X45800Y103100D02*
X45900Y103000D01*
X46000Y86000D02*
X50307D01*
X45900Y86100D02*
X46000Y86000D01*
X70201Y67700D02*
X70307Y67806D01*
X69378Y79750D02*
X69675D01*
X66458Y82670D02*
X69378Y79750D01*
X66458Y82670D02*
Y83800D01*
X60800Y72200D02*
X61000Y72400D01*
Y75307D01*
X73693Y73882D02*
X75375Y72200D01*
X73693Y73882D02*
Y74000D01*
X75375Y72200D02*
X76700D01*
X73693Y78882D02*
X74006Y78569D01*
X73693Y78882D02*
Y79000D01*
X74006Y78569D02*
X75831D01*
X77100Y77300D01*
X89300Y77000D02*
X89600Y76700D01*
X85701Y77000D02*
X89300D01*
X89400Y82000D02*
X89600Y81800D01*
X85701Y82000D02*
X89400D01*
X89743Y96950D02*
X93650D01*
X89693Y97000D02*
X89743Y96950D01*
X93650D02*
X93700Y96900D01*
X124350Y96350D02*
Y101358D01*
Y96350D02*
X126000Y94700D01*
X146900Y93101D02*
X155157Y101358D01*
X155650D01*
X146900Y90200D02*
Y93101D01*
X166000Y78400D02*
Y86307D01*
X246693Y102000D02*
X247301Y101392D01*
X155800Y41200D02*
Y41300D01*
X155650Y41050D02*
X155800Y41200D01*
X155650Y33858D02*
Y41050D01*
X161600Y16025D02*
X164882Y19307D01*
X161400Y15000D02*
X161600Y15200D01*
Y16025D01*
X164882Y19307D02*
X165000D01*
X169400Y20760D02*
Y20900D01*
X169300Y21000D02*
X169400Y20900D01*
Y20760D02*
X171030Y19130D01*
X174000D01*
X257307Y18882D02*
Y19000D01*
X234307Y102000D02*
X234404Y102096D01*
X260929Y87559D02*
Y90271D01*
X257583Y82543D02*
Y87559D01*
X260047Y83425D02*
X265063D01*
X260047Y80079D02*
X265063D01*
X260047Y76732D02*
X265063D01*
X260047Y73386D02*
X265063D01*
X260047Y70039D02*
X265063D01*
X260047Y66693D02*
X265063D01*
X260047Y63346D02*
X265063D01*
X260047Y60000D02*
X265063D01*
X260047Y56654D02*
X265063D01*
X260047Y53307D02*
X265063D01*
X260047Y49961D02*
X265063D01*
X260047Y46614D02*
X265063D01*
X260047Y43268D02*
X265063D01*
X260047Y39921D02*
X265063D01*
X260047Y36575D02*
X265063D01*
X250890Y32441D02*
Y37457D01*
D60*
X37675Y20000D02*
X38000D01*
X33400Y19441D02*
X37116D01*
X37675Y20000D01*
X34989Y29989D02*
X38748D01*
X57400Y68100D02*
X66399D01*
X66799Y67700D01*
X54181Y37874D02*
X62516D01*
X54000Y37693D02*
X54181Y37874D01*
X62516D02*
X62697Y38055D01*
X37091Y60000D02*
X54000Y43091D01*
Y37693D02*
Y43091D01*
X37000Y60000D02*
X37091D01*
X35280Y82239D02*
X35861Y82819D01*
X34700Y81658D02*
X35280Y82239D01*
X32280Y79000D02*
Y79492D01*
X32369Y79581D02*
X32861D01*
X34700Y81420D02*
Y81658D01*
X32861Y79581D02*
X34700Y81420D01*
X35861Y82819D02*
X38551D01*
X32280Y79492D02*
X32369Y79581D01*
X38748Y29989D02*
X38900Y30141D01*
X34900Y29900D02*
X34989Y29989D01*
D61*
X32020Y24953D02*
X34408Y27341D01*
X24484Y24953D02*
X32020D01*
X34408Y27341D02*
X34900D01*
X35392D02*
X37433Y25300D01*
X34900Y27341D02*
X35392D01*
X37433Y25300D02*
X42200D01*
X57779Y93314D02*
X59364D01*
X58360Y94717D02*
X59364D01*
Y93314D02*
X59647Y93032D01*
Y95000D02*
X60917D01*
X59647Y93032D02*
X60917D01*
X59364Y94717D02*
X59647Y95000D01*
X57876Y95201D02*
X58360Y94717D01*
X32256Y91128D02*
X34884Y93756D01*
X31387Y91128D02*
X32256D01*
X31000Y90741D02*
X31387Y91128D01*
X36814Y98200D02*
X37300D01*
X31148Y99260D02*
X35754D01*
X36814Y98200D01*
X31087Y99320D02*
X31148Y99260D01*
X29571Y91128D02*
X30612D01*
X24484Y93047D02*
X27652D01*
X29571Y91128D01*
X30612D02*
X31000Y90741D01*
X27652Y98953D02*
X30700D01*
Y99020D01*
X31000Y99320D01*
X27652Y98953D02*
X28575Y98030D01*
X26934Y95305D02*
X27755Y96125D01*
Y97210D01*
X24484Y95016D02*
X24773Y95305D01*
X26934D01*
X27755Y97210D02*
X28575Y98030D01*
X24484Y98953D02*
X27652D01*
X21484Y96984D02*
X24484D01*
X21000Y96500D02*
X21484Y96984D01*
X21000Y94371D02*
Y96500D01*
Y94371D02*
X22035Y93336D01*
X24195D02*
X24484Y93047D01*
X22035Y93336D02*
X24195D01*
X47500Y92000D02*
X50299D01*
X47500Y97000D02*
X50299D01*
X54462Y93445D02*
X54816Y93799D01*
X57295D01*
X57779Y93314D01*
X54462Y92761D02*
Y93445D01*
X53701Y92000D02*
X54462Y92761D01*
Y95555D02*
X54816Y95201D01*
X57876D01*
X53701Y97000D02*
X54462Y96238D01*
Y95555D02*
Y96238D01*
X29677Y20524D02*
X31154Y22000D01*
X28201Y19047D02*
X29677Y20524D01*
X27506Y22695D02*
X29677Y20524D01*
X24484Y22984D02*
X24773Y22695D01*
X27506D01*
X31154Y22000D02*
X33400D01*
X24484Y19047D02*
X28201D01*
X21348Y21305D02*
X24195D01*
X21100Y21553D02*
X21348Y21305D01*
X21100Y21553D02*
Y24600D01*
X24195Y21305D02*
X24484Y21016D01*
X21100Y24600D02*
X21453Y24953D01*
X24484D01*
X188302Y55602D02*
Y59599D01*
X186700Y61201D02*
X188302Y59599D01*
X190900Y61700D02*
X194898D01*
X194998Y61800D01*
X186700Y61201D02*
Y61400D01*
X188302Y55602D02*
X188702Y55202D01*
X192153D01*
X192455Y54900D01*
X194898D01*
X66445Y5000D02*
X66799Y5353D01*
X78155Y31610D02*
X79767D01*
X62500Y5000D02*
X66445D01*
X77802Y30478D02*
Y31256D01*
X78155Y31610D01*
X77802Y30478D02*
X78980Y29300D01*
X79100D01*
X68202Y5353D02*
X68555Y5000D01*
X72500D01*
X66799Y5353D02*
Y10553D01*
X82608Y24378D02*
Y30753D01*
X68202Y9972D02*
X82608Y24378D01*
X68202Y5353D02*
Y9972D01*
X66799Y10553D02*
X81205Y24959D01*
X77574Y33013D02*
X80348D01*
X82608Y30753D01*
X76399Y30178D02*
Y31837D01*
X81205Y24959D02*
Y30172D01*
X75100Y29000D02*
X75220D01*
X76399Y30178D01*
X79767Y31610D02*
X81205Y30172D01*
X76399Y31837D02*
X77574Y33013D01*
X201702Y54900D02*
X205600D01*
X201802Y61800D02*
X202102Y61500D01*
X206000D01*
X198400Y59928D02*
Y61800D01*
Y59928D02*
X199300Y59028D01*
X198300Y54900D02*
X198947Y55547D01*
Y57272D01*
X199300Y57625D01*
Y59028D02*
X208318D01*
X199300Y57625D02*
X208318D01*
X208672Y59382D02*
Y59514D01*
X208318Y59028D02*
X208672Y59382D01*
X209157Y56654D02*
X209945D01*
X208672Y57139D02*
X209157Y56654D01*
Y60000D02*
X209945D01*
X208318Y57625D02*
X208672Y57272D01*
Y57139D02*
Y57272D01*
Y59514D02*
X209157Y60000D01*
D62*
X237756Y102181D02*
X237828D01*
X239000Y103353D01*
X237693Y102000D02*
Y102118D01*
X237756Y102181D01*
X239000Y103353D02*
Y105800D01*
X243303Y102004D02*
X243307Y102000D01*
X243303Y102004D02*
Y105596D01*
X243300Y105600D02*
X243303Y105596D01*
X28500Y86252D02*
X31267D01*
X35280Y82239D01*
X28382Y86370D02*
X28500Y86252D01*
X35399Y82120D02*
X37000Y80519D01*
X35280Y82239D02*
X35399Y82120D01*
X24484Y31449D02*
X24665Y31630D01*
X24303Y31268D02*
X24484Y31449D01*
X234377Y102123D02*
X234404Y102096D01*
X37000Y65000D02*
Y80519D01*
X24665Y86370D02*
X28382D01*
X24484Y86551D02*
X24665Y86370D01*
X38551Y82819D02*
X38614Y82882D01*
Y83000D01*
X17200Y88172D02*
X18820Y86551D01*
X17200Y88172D02*
Y103100D01*
X18820Y86551D02*
X24484D01*
X19549Y105449D02*
X24484D01*
X17200Y103100D02*
X19549Y105449D01*
X27411Y31817D02*
X35712Y40119D01*
X37420D01*
X38592Y41290D02*
X40300D01*
X37420Y40119D02*
X38592Y41290D01*
X26883Y31817D02*
X27411D01*
X24665Y31630D02*
X26696D01*
X26883Y31817D01*
X224504Y66496D02*
X231008D01*
X224500Y66500D02*
X224504Y66496D01*
X223500Y66500D02*
X224500D01*
X18100Y15365D02*
X19100Y14365D01*
X20733Y12732D01*
X24303D01*
X18100Y15365D02*
Y27728D01*
X21639Y31268D01*
X40300Y41290D02*
Y43040D01*
X40040Y43300D02*
X40300Y43040D01*
X21639Y31268D02*
X24303D01*
Y12732D02*
X24484Y12551D01*
X234300Y104900D02*
X234377Y104823D01*
Y102123D02*
Y104823D01*
X201849Y87559D02*
X209945D01*
X200608Y88800D02*
X201849Y87559D01*
X200500Y88800D02*
X200608D01*
X202900Y31300D02*
X204041Y32441D01*
X209945D01*
X260756Y18819D02*
X260874D01*
X260693Y18882D02*
X260756Y18819D01*
X260693Y18882D02*
Y19000D01*
X262500Y5000D02*
Y17193D01*
X260874Y18819D02*
X262500Y17193D01*
X246756Y101819D02*
X247301Y101273D01*
Y100907D02*
X250800Y97408D01*
X247301Y100907D02*
Y101273D01*
X250800Y97300D02*
Y97408D01*
X252500Y14075D02*
X257307Y18882D01*
X252500Y5000D02*
Y14075D01*
X263700Y26400D02*
X265063Y27763D01*
Y32441D01*
X250800Y97300D02*
X250972Y97472D01*
X253551D01*
X253679Y97600D01*
X255800D01*
Y95400D02*
Y97600D01*
Y95400D02*
X260929Y90271D01*
X252370Y102063D02*
Y112370D01*
X252500Y112500D01*
X252307Y102000D02*
X252370Y102063D01*
X262500Y105600D02*
Y112500D01*
X258900Y102000D02*
X262500Y105600D01*
X255693Y102000D02*
X258900D01*
X255800Y97600D02*
X260500D01*
X265063Y87559D02*
Y93037D01*
X260500Y97600D02*
X265063Y93037D01*
X244000Y66496D02*
X250504D01*
X237504D02*
Y73000D01*
X244000Y60000D02*
X250504D01*
X244000Y53504D02*
X250504D01*
X237504Y47000D02*
Y53504D01*
X224504D02*
X231008D01*
X224504Y60000D02*
X231008D01*
X181118Y92299D02*
X183417Y90000D01*
X184500D01*
X181000Y92299D02*
X181118D01*
D63*
X180938Y23362D02*
X181000D01*
X180500Y23800D02*
X180938Y23362D01*
X148740Y60000D02*
X164400Y44340D01*
Y31900D02*
Y44340D01*
X143000Y60000D02*
X148740D01*
D64*
X180500Y23800D02*
Y28657D01*
X178157Y31000D02*
X180500Y28657D01*
X165299Y31000D02*
X178157D01*
X165000Y30701D02*
X165299Y31000D01*
D65*
X68459Y102541D02*
Y105641D01*
X67500Y106600D02*
X68459Y105641D01*
X66458Y84700D02*
X66490Y84733D01*
X68459Y84186D02*
X69045Y83600D01*
X66458Y83800D02*
Y84700D01*
X66490Y84733D02*
Y87459D01*
X68459Y84186D02*
Y87459D01*
X76273Y99210D02*
X78465D01*
X78806Y99551D02*
X80900D01*
X78465Y99210D02*
X78806Y99551D01*
X76000Y98937D02*
X76273Y99210D01*
X124200Y42800D02*
X124350Y42650D01*
X69045Y83600D02*
X69700D01*
X70600Y82700D01*
D66*
X34601Y22709D02*
X37463D01*
X37484Y22689D01*
X41935Y21500D02*
X42000D01*
X40747Y22689D02*
X41935Y21500D01*
X37484Y22689D02*
X40747D01*
X33892Y22000D02*
X34601Y22709D01*
X33400Y22000D02*
X33892D01*
D67*
X202500Y5000D02*
D03*
X212500D02*
D03*
X52500D02*
D03*
X42500D02*
D03*
X232500D02*
D03*
X222500D02*
D03*
X192500D02*
D03*
X182500D02*
D03*
X172500D02*
D03*
X162500D02*
D03*
X152500D02*
D03*
X142500D02*
D03*
X132500D02*
D03*
X122500D02*
D03*
X112500D02*
D03*
X102500D02*
D03*
X92500D02*
D03*
X82500D02*
D03*
X62500Y112500D02*
D03*
X72500D02*
D03*
X82500D02*
D03*
X92500D02*
D03*
X102500D02*
D03*
X112500D02*
D03*
X122500D02*
D03*
X132500D02*
D03*
X142500D02*
D03*
X152500D02*
D03*
X162500D02*
D03*
X172500D02*
D03*
X182500D02*
D03*
X192500D02*
D03*
X202500D02*
D03*
X212500D02*
D03*
X222500D02*
D03*
X232500D02*
D03*
X252500Y5000D02*
D03*
X42500Y112500D02*
D03*
X32500Y5000D02*
D03*
X242500Y112500D02*
D03*
X72500Y5000D02*
D03*
X62500D02*
D03*
X242500D02*
D03*
X52500Y112500D02*
D03*
X252500D02*
D03*
X32500D02*
D03*
D68*
X262500D02*
D03*
Y5000D02*
D03*
D69*
X37000Y60000D02*
D03*
Y55000D02*
D03*
X143000Y60000D02*
D03*
D70*
X37000Y65000D02*
D03*
D71*
X138000Y60000D02*
D03*
D72*
X37000Y13500D02*
D03*
X38000Y20000D02*
D03*
X45200Y38200D02*
D03*
X38900Y30141D02*
D03*
X196300Y73800D02*
D03*
X197900Y77100D02*
D03*
X203500Y76100D02*
D03*
X201100Y83200D02*
D03*
X195600Y85521D02*
D03*
X190800Y75200D02*
D03*
X57400Y68100D02*
D03*
X243300Y105600D02*
D03*
X148700Y54100D02*
D03*
X188200Y21100D02*
D03*
X253900Y91400D02*
D03*
X93300Y101100D02*
D03*
X82900Y102200D02*
D03*
X60600Y87400D02*
D03*
X67500Y106600D02*
D03*
X70500Y97100D02*
D03*
X70700Y92700D02*
D03*
X75100Y105900D02*
D03*
X66100Y97200D02*
D03*
X65800Y92900D02*
D03*
X29800Y82600D02*
D03*
X40300Y77800D02*
D03*
X31300Y103300D02*
D03*
X27900Y108500D02*
D03*
X28700Y75300D02*
D03*
X38400Y88600D02*
D03*
X41000Y97200D02*
D03*
X35800Y94100D02*
D03*
X37300Y98200D02*
D03*
X31100Y96600D02*
D03*
X47500Y92000D02*
D03*
Y97000D02*
D03*
X179200Y62300D02*
D03*
X179400Y66400D02*
D03*
X190900Y61700D02*
D03*
X186700Y61400D02*
D03*
X42200Y25300D02*
D03*
X42000Y21500D02*
D03*
X35100Y48000D02*
D03*
X50400Y40800D02*
D03*
X76200Y66100D02*
D03*
X75100Y29000D02*
D03*
X79100Y29300D02*
D03*
X197700Y49800D02*
D03*
X205600Y54900D02*
D03*
X205500Y51600D02*
D03*
X206000Y61500D02*
D03*
X191200Y52900D02*
D03*
X28200Y37900D02*
D03*
X29100Y9300D02*
D03*
X94200Y44500D02*
D03*
X98700D02*
D03*
X103600Y44300D02*
D03*
X114000D02*
D03*
X108400Y44200D02*
D03*
X94200Y39100D02*
D03*
X98700D02*
D03*
X103600Y38900D02*
D03*
X114000D02*
D03*
X108400Y38800D02*
D03*
Y33100D02*
D03*
X114000Y33200D02*
D03*
X103600D02*
D03*
X98700Y33400D02*
D03*
X94200D02*
D03*
X124350Y42650D02*
D03*
X93200Y89100D02*
D03*
X234300Y104900D02*
D03*
X190100Y67900D02*
D03*
X45800Y103100D02*
D03*
X45900Y86100D02*
D03*
X60800Y72200D02*
D03*
X76700D02*
D03*
X77100Y77300D02*
D03*
X70600Y82700D02*
D03*
X89600Y76700D02*
D03*
Y81800D02*
D03*
X163100Y76000D02*
D03*
X170400Y79000D02*
D03*
X93700Y96900D02*
D03*
X126000Y94700D02*
D03*
X146900Y90200D02*
D03*
X166000Y78400D02*
D03*
X186800Y75300D02*
D03*
X200500Y88800D02*
D03*
X237500Y80200D02*
D03*
X166500Y94500D02*
D03*
X189400Y50000D02*
D03*
X199900Y43300D02*
D03*
X196600Y39900D02*
D03*
X155800Y41300D02*
D03*
X161400Y15000D02*
D03*
X169300Y21000D02*
D03*
X202900Y31300D02*
D03*
X263700Y26400D02*
D03*
X239000Y105800D02*
D03*
X250800Y97300D02*
D03*
X257539Y82500D02*
D03*
X260004Y83469D02*
D03*
Y80122D02*
D03*
Y76776D02*
D03*
Y73429D02*
D03*
Y70083D02*
D03*
Y66736D02*
D03*
Y63390D02*
D03*
Y60043D02*
D03*
Y56697D02*
D03*
Y53350D02*
D03*
Y50004D02*
D03*
Y46657D02*
D03*
Y43311D02*
D03*
Y39965D02*
D03*
Y36618D02*
D03*
X184500Y90000D02*
D03*
X244197Y79004D02*
D03*
X254280Y37500D02*
D03*
X250933D02*
D03*
X214035Y82500D02*
D03*
X214079Y40996D02*
D03*
X244240Y37500D02*
D03*
X247543Y40996D02*
D03*
X237547Y37500D02*
D03*
X240850Y40996D02*
D03*
X230854Y37500D02*
D03*
X234157Y40996D02*
D03*
X224161Y37500D02*
D03*
X227465Y40996D02*
D03*
X217469Y37500D02*
D03*
X220772Y40996D02*
D03*
X220728Y82500D02*
D03*
X217425Y79004D02*
D03*
X227421Y82500D02*
D03*
X224118Y79004D02*
D03*
X234114Y82500D02*
D03*
X230811Y79004D02*
D03*
X240807Y82500D02*
D03*
X247500D02*
D03*
X251508Y66492D02*
D03*
X237508Y74004D02*
D03*
X240800Y63100D02*
D03*
X234200D02*
D03*
X223500Y66500D02*
D03*
X251508Y59996D02*
D03*
X240700Y56700D02*
D03*
X234100D02*
D03*
X251508Y53500D02*
D03*
X214400Y62100D02*
D03*
X223500Y60004D02*
D03*
X213800Y54300D02*
D03*
X223500Y53508D02*
D03*
X237500Y45996D02*
D03*
X75300Y34400D02*
D03*
X72900Y25000D02*
D03*
X55400Y28900D02*
D03*
X50400Y28800D02*
D03*
X45800Y28700D02*
D03*
X55800Y16800D02*
D03*
X51700Y16600D02*
D03*
X47400D02*
D03*
M02*
