M48
;Layer_Color=9474304
;FILE_FORMAT=2:5
INCH,LZ
;TYPE=PLATED
T01F00S00C0.01200
T03F00S00C0.02800
T04F00S00C0.04000
%
T01
X00291Y00093
X0037Y00135
X0038Y002
X0042Y00215
X00422Y00253
X00458Y00287
X00504Y00288
X00554Y00289
X00558Y00168
X00517Y00166
X00474
X00389Y0030141
X00452Y00382
X00504Y00408
X00351Y0048
X00282Y00379
X00287Y00753
X00298Y00826
X00384Y00886
X00358Y00941
X00373Y00982
X0041Y00972
X00475Y0097
Y0092
X00459Y00861
X00403Y00778
X00608Y00722
X00574Y00681
X00762Y00661
X00767Y00722
X00771Y00773
X00706Y00827
X00707Y00927
X00705Y00971
X00661Y00972
X00658Y00929
X00606Y00874
X00458Y01031
X00313Y01033
X00311Y00966
X00829Y01022
X00933Y01011
X00937Y00969
X00932Y00891
X00896Y00818
Y00767
X00942Y00445
X00987
X01036Y00443
X01084Y00442
Y00388
X01036Y00389
X00987Y00391
X00942
Y00334
X00987
X01036Y00332
X01084Y00331
X0114Y00332
Y00389
Y00443
X012435Y004265
X01558Y00413
X01487Y00541
X01469Y00902
X0126Y00947
X00753Y00344
X00751Y0029
X00791Y00293
X00729Y0025
X01614Y0015
X01693Y0021
X01882Y00211
X02029Y00313
X01966Y00399
X01999Y00433
X01977Y00498
X01894Y005
X01912Y00529
X01909Y00617
X01867Y00614
X01792Y00623
X01794Y00664
X01901Y00679
X01908Y00752
X01868Y00753
X01963Y00738
X01979Y00771
X02035Y00761
X02011Y00832
X02005Y00888
X01956Y0085521
X01845Y009
X01665Y00945
X0166Y00784
X01704Y0079
X01631Y0076
X0217425Y0079004
X0224118
X0230811
X0234114Y00825
X02375Y00802
X0240807Y00825
X02475
X0244197Y0079004
X0237508Y0074004
X02408Y00631
X02407Y00567
X02341
X02342Y00631
X02235Y0060004
Y00665
Y0053508
X02138Y00543
X02144Y00621
X0206Y00615
X02056Y00549
X02055Y00516
X0214079Y0040996
X0220772
X0227465
X0234157
X024085
X0247543
X024424Y00375
X0250933
X025428
X0260004Y0036618
Y0039965
Y0043311
Y0046657
Y0050004
Y005335
Y0056697
Y0060043
Y006339
Y0066736
Y0070083
Y0073429
Y0076776
Y0080122
Y0083469
X0257539Y00825
X02539Y00914
X02508Y00973
X0251508Y0066492
Y0059996
Y00535
X02375Y0045996
X0237547Y00375
X0230854
X0224161
X0217469
X0220728Y00825
X0227421
X0214035
X02637Y00264
X02433Y01056
X0239Y01058
X02343Y01049
X00751Y01059
X00675Y01066
X00279Y01085
T03
X0037Y0055
Y006
Y0065
X0138Y006
X0143
T04
X00325Y0005
X00425
X00525
X00625
X00725
X00825
X00925
X01025
X01125
X01225
X01325
X01425
X01525
X01625
X01725
X01825
X01925
X02025
X02125
X02225
X02325
X02425
X02525
X02625
Y01125
X02525
X02425
X02325
X02225
X02125
X02025
X01925
X01825
X01725
X01625
X01525
X01425
X01325
X01225
X01125
X01025
X00925
X00825
X00725
X00625
X00525
X00425
X00325
M30
