G04*
G04 #@! TF.GenerationSoftware,Altium Limited,Altium Designer,24.10.1 (45)*
G04*
G04 Layer_Physical_Order=4*
G04 Layer_Color=16711680*
%FSLAX25Y25*%
%MOIN*%
G70*
G04*
G04 #@! TF.SameCoordinates,F1117688-C2E4-4B3A-BF9F-62EBCE255B8A*
G04*
G04*
G04 #@! TF.FilePolarity,Positive*
G04*
G01*
G75*
%ADD12C,0.00600*%
G04:AMPARAMS|DCode=53|XSize=39.37mil|YSize=70.87mil|CornerRadius=19.68mil|HoleSize=0mil|Usage=FLASHONLY|Rotation=270.000|XOffset=0mil|YOffset=0mil|HoleType=Round|Shape=RoundedRectangle|*
%AMROUNDEDRECTD53*
21,1,0.03937,0.03150,0,0,270.0*
21,1,0.00000,0.07087,0,0,270.0*
1,1,0.03937,-0.01575,0.00000*
1,1,0.03937,-0.01575,0.00000*
1,1,0.03937,0.01575,0.00000*
1,1,0.03937,0.01575,0.00000*
%
%ADD53ROUNDEDRECTD53*%
G04:AMPARAMS|DCode=54|XSize=39.37mil|YSize=86.61mil|CornerRadius=19.68mil|HoleSize=0mil|Usage=FLASHONLY|Rotation=270.000|XOffset=0mil|YOffset=0mil|HoleType=Round|Shape=RoundedRectangle|*
%AMROUNDEDRECTD54*
21,1,0.03937,0.04724,0,0,270.0*
21,1,0.00000,0.08661,0,0,270.0*
1,1,0.03937,-0.02362,0.00000*
1,1,0.03937,-0.02362,0.00000*
1,1,0.03937,0.02362,0.00000*
1,1,0.03937,0.02362,0.00000*
%
%ADD54ROUNDEDRECTD54*%
%ADD59C,0.01500*%
%ADD61C,0.00603*%
%ADD63C,0.04000*%
%ADD67C,0.06400*%
%ADD68R,0.06400X0.06400*%
%ADD69C,0.04000*%
%ADD70R,0.04000X0.04000*%
%ADD71R,0.04000X0.04000*%
%ADD72C,0.02400*%
%ADD80C,0.01000*%
%ADD81C,0.01000*%
D12*
X190100Y81679D02*
X194679Y77100D01*
X197900D01*
X199666Y79934D02*
X203500Y76100D01*
X195366Y79934D02*
X199666D01*
X190100Y81679D02*
Y83593D01*
X201100Y83200D02*
Y83482D01*
X199332Y85250D02*
X201100Y83482D01*
X199332Y85250D02*
Y86150D01*
X195600Y85521D02*
Y85900D01*
X194100Y87400D02*
X195600Y85900D01*
X194100Y87400D02*
Y88553D01*
X192100Y83200D02*
X195366Y79934D01*
X188100Y77900D02*
X190800Y75200D01*
X148700Y65300D02*
X153468Y70068D01*
X148700Y54100D02*
Y65300D01*
X153468Y70068D02*
X156196D01*
X157428Y70472D02*
X159300Y68600D01*
X156600Y70472D02*
X157428D01*
X156196Y70068D02*
X156600Y70472D01*
X80900Y105800D02*
X86950D01*
X75200D02*
X80900D01*
X90300Y96482D02*
Y103497D01*
X88226Y104922D02*
X89714Y104083D01*
X90300Y103497D01*
X92582Y94200D02*
X94818D01*
X100418Y99800D01*
X90300Y96482D02*
X92582Y94200D01*
X75100Y105900D02*
X75200Y105800D01*
X91418Y105888D02*
X91975Y105797D01*
X87032Y108607D02*
X87085Y108554D01*
X86739Y108900D02*
X87032Y108607D01*
X72500Y112500D02*
X76100Y108900D01*
X85522D02*
X86739D01*
X76100D02*
X79478D01*
X91975Y105797D02*
X93972Y103800D01*
X102000D01*
X92800Y107800D02*
X94800Y105800D01*
X84000Y111000D02*
X87792D01*
X88085Y110707D02*
X88209Y110583D01*
X92500Y107800D02*
X92800D01*
X87792Y111000D02*
X88085Y110707D01*
X82500Y112500D02*
X84000Y111000D01*
X124543Y92000D02*
X127118D01*
X100418Y99800D02*
X110722D01*
X143614Y91800D02*
X144200Y91214D01*
X138243Y91800D02*
X143614D01*
X144200Y89082D02*
X145782Y87500D01*
X150512Y88589D02*
X163100Y76000D01*
X149683Y88589D02*
X150512D01*
X144200Y89082D02*
Y91214D01*
X145782Y87500D02*
X148595D01*
X136243Y93800D02*
X138243Y91800D01*
X148595Y87500D02*
X149683Y88589D01*
X130743Y93800D02*
X136243D01*
X130245Y94298D02*
X130743Y93800D01*
X129417Y94298D02*
X130245D01*
X127118Y92000D02*
X129417Y94298D01*
X112722Y97800D02*
X118743D01*
X124543Y92000D01*
X110722Y99800D02*
X112722Y97800D01*
X78118Y86400D02*
X80900D01*
X75318Y83600D02*
X78118Y86400D01*
X57700Y83900D02*
X58000Y83600D01*
X56000Y85600D02*
X57700Y83900D01*
X58000Y83600D02*
X61600Y80000D01*
X71718D02*
X75318Y83600D01*
X80900Y86400D02*
X93105D01*
X56000Y106000D02*
X62500Y112500D01*
X189021Y68600D02*
X189721Y67900D01*
X161350Y70600D02*
X168811D01*
X96739Y82766D02*
X109798D01*
X170800Y72500D02*
X172368Y74068D01*
X188416Y69186D02*
Y70843D01*
X93105Y86400D02*
X96739Y82766D01*
X136867Y63566D02*
X143147D01*
X152082Y72500D02*
X159450D01*
X170711D02*
X170800D01*
X172368Y74068D02*
X180961D01*
X182428Y72600D01*
X186659D01*
X189721Y67900D02*
X190100D01*
X56000Y85600D02*
Y106000D01*
X159450Y72500D02*
X161350Y70600D01*
X189002Y68600D02*
X189021D01*
X109798Y82766D02*
X116098Y76466D01*
X123967D02*
X136867Y63566D01*
X61600Y80000D02*
X71718D01*
X116098Y76466D02*
X123967D01*
X168811Y70600D02*
X170711Y72500D01*
X143147Y63566D02*
X152082Y72500D01*
X186659Y72600D02*
X188416Y70843D01*
Y69186D02*
X189002Y68600D01*
X256980Y35980D02*
Y38618D01*
X254441Y34541D02*
X255541D01*
X256980Y35980D01*
X255000Y44800D02*
X256979Y42821D01*
Y38619D02*
Y42821D01*
X247200Y44800D02*
X255000D01*
X256979Y38619D02*
X256980Y38618D01*
X190072Y91753D02*
X190900D01*
X194100Y88553D01*
X185618Y87300D02*
X190072Y91753D01*
X189302Y8873D02*
X190606Y10177D01*
X191096Y10300D02*
X194972D01*
X188473Y10873D02*
X189186Y11586D01*
X189197Y11597D02*
X189777Y12177D01*
X189779Y12178D02*
X190266Y12300D01*
X187786Y13015D02*
X188949Y14178D01*
X188952Y14178D02*
X189435Y14299D01*
X186817Y14873D02*
X188122Y16178D01*
X188124Y16179D02*
X188605Y16299D01*
X169618Y93800D02*
X180472D01*
X169618D02*
X180472D01*
X191682D01*
X165495Y106677D02*
X168848D01*
X161066D02*
X168848D01*
X160743D02*
X161066D01*
X197763Y107762D02*
X199725Y105800D01*
X197725Y107800D02*
X197763Y107762D01*
X196060Y110093D02*
X196353Y109800D01*
X212372Y105800D02*
X212664Y105507D01*
X214372Y103800D01*
X190200Y42300D02*
X197700Y49800D01*
X196582Y52500D02*
X198841D01*
X188200Y44118D02*
X196582Y52500D01*
X198841D02*
X201141Y50200D01*
X204100D02*
X205500Y51600D01*
X201141Y50200D02*
X204100D01*
X184200Y48618D02*
X188482Y52900D01*
X191200D01*
X188982Y65200D02*
X191218D01*
X186416Y67766D02*
X188982Y65200D01*
X186416Y67766D02*
Y70014D01*
X181600Y70600D02*
X185830D01*
X191759Y65741D02*
X206538D01*
X191218Y65200D02*
X191759Y65741D01*
X185830Y70600D02*
X186416Y70014D01*
X178284Y71488D02*
X180712D01*
X181600Y70600D01*
X177704Y72068D02*
X178284Y71488D01*
X169728Y68600D02*
X173196Y72068D01*
X177704D01*
X159300Y68600D02*
X169728D01*
X206538Y65741D02*
X228979Y43300D01*
X230300D01*
X230696Y43696D02*
X235982D01*
X230300Y43300D02*
X230696Y43696D01*
X235982D02*
X236382Y43296D01*
X239332D01*
X239732Y43696D01*
X246096D01*
X247200Y44800D01*
X252600Y32700D02*
X254441Y34541D01*
X242500Y5000D02*
Y14531D01*
X252600Y24631D01*
Y32700D01*
X93200Y89175D02*
X95426Y91400D01*
X93200Y89100D02*
Y89175D01*
X95426Y91400D02*
X96528D01*
X102928Y97800D01*
X170400Y78982D02*
Y79000D01*
X162179Y72600D02*
X164018D01*
X170400Y78982D01*
X154979Y79800D02*
X162179Y72600D01*
X154843Y79800D02*
X154979D01*
X144953Y85500D02*
X149143D01*
X154843Y79800D01*
X142200Y88253D02*
X144953Y85500D01*
X142200Y88253D02*
Y89214D01*
X136973Y89800D02*
X141614D01*
X142200Y89214D01*
X134973Y91800D02*
X136973Y89800D01*
X129747Y91800D02*
X134973D01*
X127947Y90000D02*
X129747Y91800D01*
X123715Y90000D02*
X127947D01*
X117915Y95800D02*
X123715Y90000D01*
X111422Y95800D02*
X117915D01*
X109422Y97800D02*
X111422Y95800D01*
X102928Y97800D02*
X109422D01*
X102000Y103800D02*
X104000Y101800D01*
X111886D01*
X113886Y99800D01*
X119572D01*
X121572Y97800D01*
X129572D01*
X131572Y95800D02*
X137072D01*
X129572Y97800D02*
X131572Y95800D01*
X137072D02*
X139072Y93800D01*
X148648D01*
X151771Y90677D01*
X152914D01*
X153500Y90091D01*
Y89540D02*
Y90091D01*
Y89540D02*
X161240Y81800D01*
X171760D01*
X172954Y82993D01*
X174893D01*
X178586Y79300D01*
X185514D01*
X186100Y78714D01*
Y77072D02*
Y78714D01*
X186532Y75568D02*
Y76639D01*
X186100Y77072D02*
X186532Y76639D01*
Y75568D02*
X186800Y75300D01*
X137900Y97800D02*
X139900Y95800D01*
X133058Y97800D02*
X137900D01*
X132458Y98400D02*
X133058Y97800D01*
X139900Y95800D02*
X149476D01*
X131800Y98400D02*
X132458D01*
X149476Y95800D02*
X152600Y92677D01*
X130400Y99800D02*
X131800Y98400D01*
X94800Y105800D02*
X103207D01*
X105207Y103800D01*
X112715D01*
X114715Y101800D01*
X120400D01*
X122400Y99800D02*
X130400D01*
X120400Y101800D02*
X122400Y99800D01*
X154914Y92677D02*
X155500Y92091D01*
X152600Y92677D02*
X154914D01*
X155500Y90368D02*
Y92091D01*
Y90368D02*
X162068Y83800D01*
X170932D01*
X172489Y85357D01*
X175357D01*
X179415Y81300D01*
X187514D01*
X188100Y80714D01*
Y77900D02*
Y80714D01*
X191682Y93800D02*
X199332Y86150D01*
X192100Y83200D02*
Y87725D01*
X92500Y112500D02*
X97200Y107800D01*
X104036D01*
X106036Y105800D01*
X113543D01*
X115543Y103800D01*
X121443D01*
X123443Y101800D02*
X131886D01*
X121443Y103800D02*
X123443Y101800D01*
X133886Y99800D02*
X139443D01*
X131886Y101800D02*
X133886Y99800D01*
X139443D02*
X141443Y97800D01*
X150305D01*
X153428Y94677D01*
X156914D01*
X157500Y94091D01*
Y91196D02*
Y94091D01*
Y91196D02*
X162896Y85800D01*
X170104D01*
X172104Y87800D01*
X175743D01*
X180243Y83300D01*
X187807D02*
X188686Y84179D01*
X189514D01*
X190100Y83593D01*
X180243Y83300D02*
X187807D01*
X159500Y92025D02*
Y96091D01*
X163725Y87800D02*
X169275D01*
X171275Y89800D02*
X176572D01*
X159500Y92025D02*
X163725Y87800D01*
X176572Y89800D02*
X181072Y85300D01*
X169275Y87800D02*
X171275Y89800D01*
X190337Y88659D02*
X191166D01*
X192100Y87725D01*
X186978Y85300D02*
X190337Y88659D01*
X181072Y85300D02*
X186978D01*
X183382Y87300D02*
X185618D01*
X180100Y89100D02*
X181582D01*
X183382Y87300D01*
X177400Y91800D02*
X180100Y89100D01*
X161500Y92853D02*
Y98091D01*
Y92853D02*
X164553Y89800D01*
X168447D01*
X170447Y91800D02*
X177400D01*
X168447Y89800D02*
X170447Y91800D01*
X155085Y98677D02*
X160914D01*
X151962Y101800D02*
X155085Y98677D01*
X160914D02*
X161500Y98091D01*
X165382Y91800D02*
X167618D01*
X155913Y100677D02*
X165714D01*
X166300Y99028D02*
Y100091D01*
X163800Y93382D02*
Y96528D01*
X165714Y100677D02*
X166300Y100091D01*
X163800Y96528D02*
X166300Y99028D01*
X163800Y93382D02*
X165382Y91800D01*
X167618D02*
X169618Y93800D01*
X107200Y107800D02*
X114372D01*
X102500Y112500D02*
X107200Y107800D01*
X114372D02*
X116372Y105800D01*
X122272D01*
X124272Y103800D01*
X132715D01*
X134715Y101800D01*
X140272D01*
X142272Y99800D01*
X151133D02*
X154256Y96677D01*
X158914D01*
X159500Y96091D01*
X142272Y99800D02*
X151133D01*
X112500Y112500D02*
X117200Y107800D01*
X123100D01*
X125100Y105800D01*
X133543D01*
X135543Y103800D02*
X141100D01*
X133543Y105800D02*
X135543Y103800D01*
X141100D02*
X143100Y101800D01*
X151962D01*
X127200Y107800D02*
X134372D01*
X122500Y112500D02*
X127200Y107800D01*
X134372D02*
X136372Y105800D01*
X142600D01*
X144600Y103800D01*
X152790D01*
X155913Y100677D01*
X180001Y97100D02*
X181301Y95800D01*
X168984Y98056D02*
X169940Y97100D01*
X180001D01*
X181301Y95800D02*
X192746D01*
X197046Y91500D01*
X166768Y96668D02*
X168156Y98056D01*
X168984D01*
X166500Y94500D02*
X166768Y94768D01*
Y96668D01*
X197046Y91500D02*
X204186D01*
X205886Y89800D01*
X210635D01*
X211335Y89100D01*
Y81382D02*
Y89100D01*
Y81382D02*
X212917Y79800D01*
X213414D01*
X214000Y79214D01*
Y78611D02*
Y79214D01*
Y78611D02*
X216307Y76304D01*
X225236D01*
X226031Y77098D01*
X228898D01*
X229693Y76304D01*
X231948D02*
X233144Y77500D01*
X238857D01*
X229693Y76304D02*
X231948D01*
X238857Y77500D02*
X240361Y79004D01*
X244197D01*
X237500Y80200D02*
X237504Y80204D01*
Y89296D01*
X132500Y112500D02*
X137200Y107800D01*
X143936D01*
X145936Y105800D01*
X153618D01*
X154545Y104873D02*
X156798D01*
X153618Y105800D02*
X154545Y104873D01*
X156798D02*
X158995Y102677D01*
X167191D01*
X170111Y99757D01*
X180172D01*
X182129Y97800D01*
X193575D01*
X197875Y93500D01*
X205015D01*
X206715Y91800D01*
X213450D01*
X214035Y91214D01*
Y82500D02*
Y91214D01*
X47200Y9700D02*
X53936D01*
X42500Y5000D02*
X47200Y9700D01*
X53936D02*
X57936Y13700D01*
X95411D01*
X97411Y15700D02*
X100700D01*
X95411Y13700D02*
X97411Y15700D01*
X100700D02*
X102700Y17700D01*
X114411D01*
X116411Y19700D01*
X121487D01*
X125487Y23700D01*
X141926D01*
X144456Y26230D01*
X148260D01*
X153729Y31700D01*
X158829D01*
X162929Y35800D01*
X174329D01*
X176329Y37800D01*
X183614D01*
X184200Y38386D02*
Y48618D01*
X183614Y37800D02*
X184200Y38386D01*
X52500Y5000D02*
X59200Y11700D01*
X95275D01*
X96171Y11632D02*
X98239Y13700D01*
X95275Y11700D02*
X95343Y11632D01*
X96171D01*
X98239Y13700D02*
X102343D01*
X104343Y15700D01*
X115240D01*
X117240Y17700D01*
X122316D01*
X126316Y21700D01*
X142754D01*
X145285Y24230D02*
X149088D01*
X142754Y21700D02*
X145285Y24230D01*
X149088D02*
X154558Y29700D01*
X159658D01*
X163758Y33800D01*
X175158D01*
X177158Y35800D01*
X185614D01*
X186200Y36386D01*
Y46800D01*
X189400Y50000D01*
X83100Y5000D02*
X86123Y8023D01*
X82500Y5000D02*
X83100D01*
X86123Y8023D02*
X88877D01*
X90553Y9700D01*
X94447D01*
X94600Y9547D01*
X97572D01*
X99725Y11700D01*
X103172D01*
X105172Y13700D01*
X116068D01*
X118068Y15700D01*
X123144D01*
X127144Y19700D01*
X143583D01*
X146113Y22230D01*
X149917D01*
X155386Y27700D01*
X160486D01*
X164586Y31800D01*
X173632D01*
X174395Y31037D01*
X175223D01*
X177986Y33800D01*
X187614D01*
X188200Y34386D01*
Y44118D01*
X93961Y5000D02*
X96508Y7547D01*
X98400D01*
X92500Y5000D02*
X93961D01*
X98400Y7547D02*
X100553Y9700D01*
X104000D01*
X106000Y11700D01*
X115275D01*
X115672Y11304D01*
X116500D01*
X118896Y13700D01*
X123973D01*
X127973Y17700D01*
X144411D01*
X146942Y20230D01*
X150745D01*
X156215Y25700D01*
X161315D01*
X175223Y28209D02*
X178815Y31800D01*
X190200Y32386D02*
Y42300D01*
X174395Y28209D02*
X175223D01*
X172804Y29800D02*
X174395Y28209D01*
X189614Y31800D02*
X190200Y32386D01*
X178815Y31800D02*
X189614D01*
X165415Y29800D02*
X172804D01*
X161315Y25700D02*
X165415Y29800D01*
X151574Y18230D02*
X157043Y23700D01*
X147770Y18230D02*
X151574D01*
X157043Y23700D02*
X162143D01*
X145240Y15700D02*
X147770Y18230D01*
X128801Y15700D02*
X145240D01*
X115672Y8475D02*
X116500D01*
X114447Y9700D02*
X115672Y8475D01*
X107200Y9700D02*
X114447D01*
X102500Y5000D02*
X107200Y9700D01*
X116500Y8475D02*
X119725Y11700D01*
X124801D01*
X128801Y15700D01*
X162143Y23700D02*
X166243Y27800D01*
X171975D01*
X174395Y25380D01*
X175223D01*
X179643Y29800D01*
X191614D01*
X192200Y30386D01*
Y39318D01*
X196182Y43300D01*
X199900D01*
X113533Y6033D02*
X116886D01*
X112500Y5000D02*
X113533Y6033D01*
X116886D02*
X120553Y9700D01*
X124447D01*
X124624Y9523D01*
X125452D01*
X129629Y13700D01*
X146068D01*
X148598Y16230D01*
X152402D01*
X157872Y21700D01*
X162972D01*
X167072Y25800D01*
X171147D01*
X173933Y23014D01*
X175686D02*
X180472Y27800D01*
X173933Y23014D02*
X175686D01*
X180472Y27800D02*
X193614D01*
X194200Y28386D01*
Y37500D01*
X196600Y39900D01*
X200028Y18373D02*
X203655Y22000D01*
X208700D02*
X210986Y24286D01*
X203655Y22000D02*
X208700D01*
X194560Y18373D02*
X200028D01*
X210986Y24286D02*
X223576D01*
X149427Y14230D02*
X153230D01*
X146896Y11700D02*
X149427Y14230D01*
X158700Y19700D02*
X163800D01*
X136372Y11700D02*
X146896D01*
X153230Y14230D02*
X158700Y19700D01*
X164741Y17700D02*
X166241Y16200D01*
X150255Y12230D02*
X154074D01*
X159543Y17700D02*
X164741D01*
X154074Y12230D02*
X159543Y17700D01*
X181300Y25800D02*
X193831D01*
X176373Y20873D02*
X181300Y25800D01*
X170418Y23700D02*
X173245Y20873D01*
X176373D01*
X171779Y16200D02*
X174452Y18873D01*
X180100Y20900D02*
X181800D01*
X166241Y16200D02*
X171779D01*
X178073Y18873D02*
X180100Y20900D01*
X174452Y18873D02*
X178073D01*
X181800Y20900D02*
X184700Y23800D01*
X201886Y15700D02*
X202560Y16373D01*
X206900Y17700D02*
X210300D01*
X205573Y16373D02*
X206900Y17700D01*
X202560Y16373D02*
X205573D01*
X194715Y15700D02*
X201886D01*
X193373Y14358D02*
X194715Y15700D01*
X189438Y14300D02*
X193373Y14358D01*
X194143Y12300D02*
X195543Y13700D01*
X202715D01*
X203388Y14373D01*
X207770Y15700D02*
X211363D01*
X203388Y14373D02*
X206443D01*
X207770Y15700D01*
X196372Y11700D02*
X203543D01*
X207272Y12373D02*
X208598Y13700D01*
X203543Y11700D02*
X204217Y12373D01*
X207272D01*
X195265Y10593D02*
X196372Y11700D01*
X208598Y13700D02*
X212429D01*
X204372Y9700D02*
X205045Y10373D01*
X208100D01*
X192500Y5000D02*
X197200Y9700D01*
X209427Y11700D02*
X213257D01*
X197200Y9700D02*
X204372D01*
X208100Y10373D02*
X209427Y11700D01*
X210300Y17700D02*
X214886Y22286D01*
X211363Y15700D02*
X213363Y17700D01*
X218600D02*
X220600Y19700D01*
X213363Y17700D02*
X218600D01*
X214886Y22286D02*
X226300D01*
X227465Y23450D02*
Y40996D01*
X226300Y22286D02*
X227465Y23450D01*
X223576Y24286D02*
X224161Y24872D01*
Y37500D01*
X211400Y34900D02*
X212800Y33500D01*
X220186D01*
X202500Y34900D02*
X211400D01*
X220772Y34086D02*
Y40996D01*
X220186Y33500D02*
X220772Y34086D01*
X200600Y33000D02*
X202500Y34900D01*
X203643Y41700D02*
X212996D01*
X196200Y34257D02*
X203643Y41700D01*
X213700Y40996D02*
X214079D01*
X212996Y41700D02*
X213700Y40996D01*
X212960Y38296D02*
X215197D01*
X216290Y38300D02*
X217090Y37500D01*
X215201Y38300D02*
X216290D01*
X198200Y33428D02*
X203072Y38300D01*
X212956D01*
X212960Y38296D01*
X215197D02*
X215201Y38300D01*
X217090Y37500D02*
X217469D01*
X131453Y10600D02*
X135272D01*
X136372Y11700D01*
X129177Y8323D02*
X131453Y10600D01*
X127081Y8323D02*
X129177D01*
X122500Y5000D02*
X123758D01*
X127081Y8323D01*
X163800Y19700D02*
X167800Y23700D01*
X170418D01*
X193831Y25800D02*
X194786Y24846D01*
X195614D01*
X196200Y25431D01*
Y34257D01*
X145672Y8475D02*
X146500D01*
X144447Y9700D02*
X145672Y8475D01*
X137200Y9700D02*
X144447D01*
X132500Y5000D02*
X137200Y9700D01*
X146500Y8475D02*
X150255Y12230D01*
X184700Y23800D02*
X189818D01*
X190559Y23059D01*
X194430Y22373D02*
X197614D01*
X193744Y23059D02*
X194430Y22373D01*
X197614D02*
X198200Y22959D01*
X190559Y23059D02*
X193744D01*
X198200Y22959D02*
Y33428D01*
X199200Y20373D02*
X200200Y21373D01*
Y32418D01*
X200600Y32818D02*
Y33000D01*
X200200Y32418D02*
X200600Y32818D01*
X142500Y5000D02*
X143533Y6033D01*
X146886D01*
X150553Y9700D01*
X154372D01*
X156436Y11764D01*
X163607D01*
X165707Y13864D01*
X172272D01*
X175281Y16873D01*
X185700D01*
X191704Y18346D02*
X193731Y20373D01*
X187173Y18346D02*
X191704D01*
X193731Y20373D02*
X199200D01*
X185700Y16873D02*
X187173Y18346D01*
X176109Y14873D02*
X186817D01*
X189423Y16300D02*
X192532Y16346D01*
X188608Y16300D02*
X189423D01*
X192532Y16346D02*
X194560Y18373D01*
X187645Y12873D02*
X187768Y12997D01*
X177545Y12873D02*
X187645D01*
X172500Y5000D02*
X177800Y10300D01*
X185545Y10873D02*
X188473D01*
X190268Y12300D02*
X194143D01*
X177800Y10300D02*
X184972D01*
X185545Y10873D01*
X186373Y8873D02*
X189302D01*
X194972Y10300D02*
X195265Y10593D01*
X157264Y9764D02*
X164436D01*
X152500Y5000D02*
X157264Y9764D01*
X166536Y11864D02*
X173100D01*
X164436Y9764D02*
X166536Y11864D01*
X173100D02*
X176109Y14873D01*
X162500Y5000D02*
X167364Y9864D01*
X174536D01*
X177545Y12873D01*
X220600Y19700D02*
X228400D01*
X230854Y22154D02*
Y37500D01*
X228400Y19700D02*
X230854Y22154D01*
X182500Y5000D02*
X186373Y8873D01*
X212429Y13700D02*
X214429Y15700D01*
X219615D01*
X221615Y17700D01*
X230372D01*
X234157Y21486D01*
Y40996D01*
X213257Y11700D02*
X215257Y13700D01*
X220443D01*
X222443Y15700D01*
X231200D01*
X237547Y22047D01*
Y37500D01*
X205873Y8373D02*
X209227D01*
X202500Y5000D02*
X205873Y8373D01*
X209227D02*
X210553Y9700D01*
X214086D01*
X216086Y11700D01*
X221272D01*
X223272Y13700D02*
X232372D01*
X221272Y11700D02*
X223272Y13700D01*
X232372D02*
X240850Y22179D01*
Y40996D01*
X217200Y9700D02*
X222100D01*
X212500Y5000D02*
X217200Y9700D01*
X222100D02*
X224100Y11700D01*
X233200D01*
X244240Y22740D01*
Y37500D01*
X222700Y5000D02*
X225923Y8223D01*
X229077D01*
X222500Y5000D02*
X222700D01*
X229077Y8223D02*
X230553Y9700D01*
X234300D01*
X234800Y10200D01*
X234887D02*
X247543Y22857D01*
X234800Y10200D02*
X234887D01*
X247543Y22857D02*
Y40996D01*
X230723Y101906D02*
Y106041D01*
X237128Y95500D02*
X244500D01*
X230723Y101906D02*
X237128Y95500D01*
X230723Y106041D02*
X232500Y107818D01*
Y112500D01*
X247500Y82500D02*
Y92500D01*
X244500Y95500D02*
X247500Y92500D01*
X216029Y93800D02*
X217425Y92404D01*
X198703Y95500D02*
X205843D01*
X207543Y93800D01*
X216029D01*
X194403Y99800D02*
X198703Y95500D01*
X182957Y99800D02*
X194403D01*
X201500Y99500D02*
X207500D01*
X196060Y103800D02*
X199860Y100000D01*
X201000D01*
X201500Y99500D01*
X196888Y105800D02*
X200188Y102500D01*
X202000D01*
X203000Y101500D02*
X209500D01*
X202000Y102500D02*
X203000Y101500D01*
X203300Y105000D02*
X204800Y103500D01*
X200700Y105800D02*
X201500Y105000D01*
X199725Y105800D02*
X200700D01*
X201500Y105000D02*
X203300D01*
X204800Y103500D02*
X211000D01*
X158455Y108873D02*
X160743Y106677D01*
X157233Y108873D02*
X158455D01*
X152500Y112500D02*
X157233Y108873D01*
X162500Y112500D02*
X163961D01*
X165535Y110927D01*
X165573D01*
X167823Y108677D02*
X169677D01*
X165573Y110927D02*
X167823Y108677D01*
X176200Y107800D02*
X184372D01*
X172500Y111500D02*
Y112500D01*
Y111500D02*
X176200Y107800D01*
X157627Y106873D02*
X159823Y104677D01*
X154447Y107800D02*
X155373Y106873D01*
X157627D01*
X204372Y107800D02*
X206372Y105800D01*
X200553Y107800D02*
X204372D01*
X198553Y109800D02*
X200553Y107800D01*
X206372Y105800D02*
X212372D01*
X195096Y111914D02*
X195929Y110225D01*
X196353Y109800D02*
X198553D01*
X195929Y110225D02*
X196060Y110093D01*
X194510Y112500D02*
X195096Y111914D01*
X192500Y112500D02*
X194510D01*
X147200Y107800D02*
X154447D01*
X142500Y112500D02*
X147200Y107800D01*
X159823Y104677D02*
X168020D01*
X170939Y101757D01*
X181000D01*
X182957Y99800D01*
X217425Y79004D02*
Y92404D01*
X168848Y106677D02*
X171767Y103757D01*
X182757D01*
X184715Y101800D01*
X195232D01*
X199532Y97500D01*
X206672D01*
X208372Y95800D01*
X216858D01*
X220728Y91930D01*
Y82500D02*
Y91930D01*
X169677Y108677D02*
X172553Y105800D01*
X183543D01*
X185543Y103800D01*
X196060D01*
X207500Y99500D02*
X209200Y97800D01*
X217686D01*
X224118Y91368D01*
Y79004D02*
Y91368D01*
X184372Y107800D02*
X186372Y105800D01*
X196888D01*
X209500Y101500D02*
X211200Y99800D01*
X218515D01*
X227421Y90893D01*
Y82500D02*
Y90893D01*
X211000Y103500D02*
X212700Y101800D01*
X219343D01*
X230811Y90332D01*
Y79004D02*
Y90332D01*
X187200Y107800D02*
X197725D01*
X234114Y82500D02*
Y89857D01*
X220172Y103800D02*
X234114Y89857D01*
X214372Y103800D02*
X220172D01*
X182500Y112500D02*
X187200Y107800D01*
X207200D02*
X213200D01*
X202500Y112500D02*
X207200Y107800D01*
X213200D02*
X214500Y106500D01*
X215000D01*
X215700Y105800D01*
X221000D01*
X237504Y89296D01*
X212500Y112500D02*
X217200Y107800D01*
X222000D01*
X240807Y88993D01*
Y82500D02*
Y88993D01*
D53*
X22220Y113008D02*
D03*
Y39008D02*
D03*
Y78992D02*
D03*
Y4992D02*
D03*
D54*
X6472Y113008D02*
D03*
Y78992D02*
D03*
Y39008D02*
D03*
Y4992D02*
D03*
D59*
X243200Y105700D02*
X243300Y105600D01*
X239000Y105800D02*
X239100Y105700D01*
X243300Y100628D02*
X250103Y93825D01*
X243300Y100628D02*
Y105600D01*
X250103Y93825D02*
X251446D01*
X253871Y91400D01*
X253900D01*
D61*
X42096Y100520D02*
Y103751D01*
X44919Y95701D02*
Y97697D01*
X46322Y98252D02*
Y98278D01*
Y98252D02*
X47500Y97074D01*
X43499Y101102D02*
Y104332D01*
Y101102D02*
X46322Y98278D01*
X47500Y97000D02*
Y97074D01*
X42096Y100520D02*
X44919Y97697D01*
Y95701D02*
X47175Y93445D01*
Y92325D02*
X47500Y92000D01*
X40747Y105100D02*
X42096Y103751D01*
X47175Y92325D02*
Y93445D01*
X35853Y105100D02*
X40747D01*
X35272Y106503D02*
X41328D01*
X43499Y104332D01*
X35500Y99655D02*
Y104747D01*
X34097Y105328D02*
X35272Y106503D01*
X34097Y100236D02*
Y105328D01*
X35500Y104747D02*
X35853Y105100D01*
X35088Y99243D02*
X35500Y99655D01*
X35088Y97436D02*
X35441Y97083D01*
X35088Y97436D02*
Y99243D01*
X37165Y98200D02*
X37300D01*
X36048Y97083D02*
X37165Y98200D01*
X35441Y97083D02*
X36048D01*
X33685Y96855D02*
Y99824D01*
X34097Y100236D01*
X35800Y94100D02*
Y94586D01*
X35256Y95130D02*
X35800Y94586D01*
X34903Y95680D02*
X35256Y95327D01*
Y95130D02*
Y95327D01*
X33685Y96855D02*
X34860Y95680D01*
X34903D01*
X94064Y49603D02*
X123397D01*
X68097Y33981D02*
X75419Y41303D01*
X85764D01*
X86345Y39900D02*
X94645Y48200D01*
X69500Y33400D02*
X76000Y39900D01*
X86345D01*
X85764Y41303D02*
X94064Y49603D01*
X94645Y48200D02*
X122816D01*
X68097Y26481D02*
Y33981D01*
X69500Y25900D02*
Y33400D01*
X42053Y21500D02*
X43252Y22698D01*
X42000Y21500D02*
X42053D01*
X43452Y24102D02*
X65717D01*
X42253Y25300D02*
X43452Y24102D01*
X43252Y22698D02*
X66299D01*
X42200Y25300D02*
X42253D01*
X66299Y22698D02*
X69500Y25900D01*
X65717Y24102D02*
X68097Y26481D01*
X123397Y49603D02*
X130208Y42792D01*
X122816Y48200D02*
X129627Y41389D01*
X145389D01*
X130208Y42792D02*
X144808D01*
X145389Y41389D02*
X151214Y47214D01*
X150633Y48617D02*
X162248D01*
X144808Y42792D02*
X150633Y48617D01*
X151214Y47214D02*
X161667D01*
X162248Y48617D02*
X169255Y41611D01*
X171500D01*
X161667Y47214D02*
X168674Y40208D01*
X172081D01*
X171500Y41611D02*
X173791Y43901D01*
X175492D01*
X176791Y45200D01*
X174372Y42498D02*
X176074D01*
X178194Y44619D01*
X172081Y40208D02*
X174372Y42498D01*
X176791Y56451D02*
X185247Y64907D01*
X189669Y62248D02*
X189866D01*
X190414Y61700D01*
X176791Y45200D02*
Y56451D01*
X190414Y61700D02*
X190900D01*
X185828Y63504D02*
X186428D01*
X178194Y44619D02*
Y55870D01*
X186428Y63504D02*
X186781Y63151D01*
X185247Y64907D02*
X187009D01*
X186700Y61400D02*
X186781Y61481D01*
X178194Y55870D02*
X185828Y63504D01*
X186781Y61481D02*
Y63151D01*
X187009Y64907D02*
X189669Y62248D01*
X77600Y27800D02*
X79100Y29300D01*
X75100Y29000D02*
X76197Y27903D01*
Y17419D02*
Y27903D01*
X77600Y18000D02*
Y27800D01*
X76197Y17419D02*
X77469Y16147D01*
X93331D01*
X78050Y17550D02*
X92750D01*
X77600Y18000D02*
X78050Y17550D01*
X93331Y16147D02*
X94706Y17522D01*
X92750Y17550D02*
X94125Y18925D01*
X94706Y17522D02*
X100257D01*
X94125Y18925D02*
X99676D01*
X100257Y17522D02*
X102037Y19302D01*
X99676Y18925D02*
X101456Y20705D01*
X107720D01*
X102037Y19302D02*
X108302D01*
X107720Y20705D02*
X109720Y22705D01*
X108302Y19302D02*
X110302Y21302D01*
X120086D01*
X109720Y22705D02*
X119505D01*
X124086Y25302D02*
X140181D01*
X120086Y21302D02*
X124086Y25302D01*
X123505Y26705D02*
X139600D01*
X119505Y22705D02*
X123505Y26705D01*
X143190Y30294D02*
X145410D01*
X139600Y26705D02*
X143190Y30294D01*
X140181Y25302D02*
X143771Y28891D01*
X145991D01*
X145410Y30294D02*
X148697Y33581D01*
X150100Y33000D02*
Y39700D01*
X145991Y28891D02*
X150100Y33000D01*
X148697Y33581D02*
Y40281D01*
X154227Y45811D01*
X150100Y39700D02*
X154808Y44408D01*
X154227Y45811D02*
X158189D01*
X154808Y44408D02*
X157608D01*
X158189Y45811D02*
X165196Y38805D01*
X157608Y44408D02*
X164614Y37402D01*
X165196Y38805D02*
X173085D01*
X175085Y40805D02*
X178902D01*
X173085Y38805D02*
X175085Y40805D01*
X178902D02*
X179597Y41500D01*
X175666Y39402D02*
X179483D01*
X181000Y40919D01*
X173666Y37402D02*
X175666Y39402D01*
X164614Y37402D02*
X173666D01*
X181000Y53799D02*
X184700Y57499D01*
X181000Y40919D02*
Y53799D01*
X179597Y54380D02*
X184119Y58902D01*
X179597Y41500D02*
Y54380D01*
X205800Y55100D02*
Y57145D01*
X205941Y61441D02*
X206000Y61500D01*
X205447Y58902D02*
X205941Y59396D01*
X205600Y54900D02*
X205800Y55100D01*
X205447Y57499D02*
X205800Y57145D01*
X184700Y57499D02*
X205447D01*
X205941Y59396D02*
Y61441D01*
X184119Y58902D02*
X205447D01*
D63*
X76837Y91337D02*
Y96137D01*
X60600Y87400D02*
X72900D01*
X76837Y91337D01*
X49300Y60000D02*
X57400Y68100D01*
X43150Y60000D02*
X49300D01*
X76837Y96137D02*
X82900Y102200D01*
X37000Y60000D02*
X43150D01*
X45275Y62125D01*
Y77015D02*
X47400Y79140D01*
X45275Y62125D02*
Y77015D01*
X47400Y79140D02*
Y81660D01*
X52500Y86760D01*
Y112500D01*
D67*
X202500Y5000D02*
D03*
X212500D02*
D03*
X52500D02*
D03*
X42500D02*
D03*
X232500D02*
D03*
X222500D02*
D03*
X192500D02*
D03*
X182500D02*
D03*
X172500D02*
D03*
X162500D02*
D03*
X152500D02*
D03*
X142500D02*
D03*
X132500D02*
D03*
X122500D02*
D03*
X112500D02*
D03*
X102500D02*
D03*
X92500D02*
D03*
X82500D02*
D03*
X62500Y112500D02*
D03*
X72500D02*
D03*
X82500D02*
D03*
X92500D02*
D03*
X102500D02*
D03*
X112500D02*
D03*
X122500D02*
D03*
X132500D02*
D03*
X142500D02*
D03*
X152500D02*
D03*
X162500D02*
D03*
X172500D02*
D03*
X182500D02*
D03*
X192500D02*
D03*
X202500D02*
D03*
X212500D02*
D03*
X222500D02*
D03*
X232500D02*
D03*
X252500Y5000D02*
D03*
X42500Y112500D02*
D03*
X32500Y5000D02*
D03*
X242500Y112500D02*
D03*
X72500Y5000D02*
D03*
X62500D02*
D03*
X242500D02*
D03*
X52500Y112500D02*
D03*
X252500D02*
D03*
X32500D02*
D03*
D68*
X262500D02*
D03*
Y5000D02*
D03*
D69*
X37000Y60000D02*
D03*
Y55000D02*
D03*
X143000Y60000D02*
D03*
D70*
X37000Y65000D02*
D03*
D71*
X138000Y60000D02*
D03*
D72*
X37000Y13500D02*
D03*
X38000Y20000D02*
D03*
X45200Y38200D02*
D03*
X38900Y30141D02*
D03*
X196300Y73800D02*
D03*
X197900Y77100D02*
D03*
X203500Y76100D02*
D03*
X201100Y83200D02*
D03*
X195600Y85521D02*
D03*
X190800Y75200D02*
D03*
X57400Y68100D02*
D03*
X243300Y105600D02*
D03*
X148700Y54100D02*
D03*
X188200Y21100D02*
D03*
X253900Y91400D02*
D03*
X93300Y101100D02*
D03*
X82900Y102200D02*
D03*
X60600Y87400D02*
D03*
X67500Y106600D02*
D03*
X70500Y97100D02*
D03*
X70700Y92700D02*
D03*
X75100Y105900D02*
D03*
X66100Y97200D02*
D03*
X65800Y92900D02*
D03*
X29800Y82600D02*
D03*
X40300Y77800D02*
D03*
X31300Y103300D02*
D03*
X27900Y108500D02*
D03*
X28700Y75300D02*
D03*
X38400Y88600D02*
D03*
X41000Y97200D02*
D03*
X35800Y94100D02*
D03*
X37300Y98200D02*
D03*
X31100Y96600D02*
D03*
X47500Y92000D02*
D03*
Y97000D02*
D03*
X179200Y62300D02*
D03*
X179400Y66400D02*
D03*
X190900Y61700D02*
D03*
X186700Y61400D02*
D03*
X42200Y25300D02*
D03*
X42000Y21500D02*
D03*
X35100Y48000D02*
D03*
X50400Y40800D02*
D03*
X76200Y66100D02*
D03*
X75100Y29000D02*
D03*
X79100Y29300D02*
D03*
X197700Y49800D02*
D03*
X205600Y54900D02*
D03*
X205500Y51600D02*
D03*
X206000Y61500D02*
D03*
X191200Y52900D02*
D03*
X28200Y37900D02*
D03*
X29100Y9300D02*
D03*
X94200Y44500D02*
D03*
X98700D02*
D03*
X103600Y44300D02*
D03*
X114000D02*
D03*
X108400Y44200D02*
D03*
X94200Y39100D02*
D03*
X98700D02*
D03*
X103600Y38900D02*
D03*
X114000D02*
D03*
X108400Y38800D02*
D03*
Y33100D02*
D03*
X114000Y33200D02*
D03*
X103600D02*
D03*
X98700Y33400D02*
D03*
X94200D02*
D03*
X124350Y42650D02*
D03*
X93200Y89100D02*
D03*
X234300Y104900D02*
D03*
X190100Y67900D02*
D03*
X45800Y103100D02*
D03*
X45900Y86100D02*
D03*
X60800Y72200D02*
D03*
X76700D02*
D03*
X77100Y77300D02*
D03*
X70600Y82700D02*
D03*
X89600Y76700D02*
D03*
Y81800D02*
D03*
X163100Y76000D02*
D03*
X170400Y79000D02*
D03*
X93700Y96900D02*
D03*
X126000Y94700D02*
D03*
X146900Y90200D02*
D03*
X166000Y78400D02*
D03*
X186800Y75300D02*
D03*
X200500Y88800D02*
D03*
X237500Y80200D02*
D03*
X166500Y94500D02*
D03*
X189400Y50000D02*
D03*
X199900Y43300D02*
D03*
X196600Y39900D02*
D03*
X155800Y41300D02*
D03*
X161400Y15000D02*
D03*
X169300Y21000D02*
D03*
X202900Y31300D02*
D03*
X263700Y26400D02*
D03*
X239000Y105800D02*
D03*
X250800Y97300D02*
D03*
X257539Y82500D02*
D03*
X260004Y83469D02*
D03*
Y80122D02*
D03*
Y76776D02*
D03*
Y73429D02*
D03*
Y70083D02*
D03*
Y66736D02*
D03*
Y63390D02*
D03*
Y60043D02*
D03*
Y56697D02*
D03*
Y53350D02*
D03*
Y50004D02*
D03*
Y46657D02*
D03*
Y43311D02*
D03*
Y39965D02*
D03*
Y36618D02*
D03*
X184500Y90000D02*
D03*
X244197Y79004D02*
D03*
X254280Y37500D02*
D03*
X250933D02*
D03*
X214035Y82500D02*
D03*
X214079Y40996D02*
D03*
X244240Y37500D02*
D03*
X247543Y40996D02*
D03*
X237547Y37500D02*
D03*
X240850Y40996D02*
D03*
X230854Y37500D02*
D03*
X234157Y40996D02*
D03*
X224161Y37500D02*
D03*
X227465Y40996D02*
D03*
X217469Y37500D02*
D03*
X220772Y40996D02*
D03*
X220728Y82500D02*
D03*
X217425Y79004D02*
D03*
X227421Y82500D02*
D03*
X224118Y79004D02*
D03*
X234114Y82500D02*
D03*
X230811Y79004D02*
D03*
X240807Y82500D02*
D03*
X247500D02*
D03*
X251508Y66492D02*
D03*
X237508Y74004D02*
D03*
X240800Y63100D02*
D03*
X234200D02*
D03*
X223500Y66500D02*
D03*
X251508Y59996D02*
D03*
X240700Y56700D02*
D03*
X234100D02*
D03*
X251508Y53500D02*
D03*
X214400Y62100D02*
D03*
X223500Y60004D02*
D03*
X213800Y54300D02*
D03*
X223500Y53508D02*
D03*
X237500Y45996D02*
D03*
X75300Y34400D02*
D03*
X72900Y25000D02*
D03*
X55400Y28900D02*
D03*
X50400Y28800D02*
D03*
X45800Y28700D02*
D03*
X55800Y16800D02*
D03*
X51700Y16600D02*
D03*
X47400D02*
D03*
D80*
X86950Y105800D02*
G03*
X88226Y104922I5550J6700D01*
G01*
X87085Y108554D02*
G03*
X91418Y105888I5415J3946D01*
G01*
X79478Y108900D02*
G03*
X85522Y108900I3022J3600D01*
G01*
X88209Y110583D02*
G03*
X92500Y107800I4291J1917D01*
G01*
X191096Y10300D02*
G03*
X190606Y10177I2028J-9152D01*
G01*
X189197Y11597D02*
G03*
X189186Y11586I1409J-1420D01*
G01*
X189777Y12177D02*
G03*
X189779Y12178I-241J970D01*
G01*
X188949Y14178D02*
G03*
X188952Y14178I-240J971D01*
G01*
X188122Y16179D02*
G03*
X188124Y16179I-240J971D01*
G01*
X188605Y16299D02*
G03*
X188608Y16300I-243J970D01*
G01*
X191096Y10300D02*
G03*
X190606Y10177I2028J-9152D01*
G01*
X190266Y12300D02*
G03*
X190268Y12300I-243J970D01*
G01*
X189777Y12177D02*
G03*
X189779Y12178I-241J970D01*
G01*
X189197Y11597D02*
G03*
X189186Y11586I1409J-1420D01*
G01*
X189435Y14299D02*
G03*
X189438Y14300I-243J970D01*
G01*
X188950Y14178D02*
G03*
X188952Y14178I-241J971D01*
G01*
X188949Y14178D02*
G03*
X188950Y14178I-240J971D01*
G01*
X187786Y13015D02*
G03*
X187768Y12997I2819J-2837D01*
G01*
X188605Y16299D02*
G03*
X188608Y16300I-243J970D01*
G01*
X188122Y16179D02*
G03*
X188124Y16179I-241J971D01*
G01*
D81*
X87032Y108607D02*
D03*
X88085Y110707D02*
D03*
X188122Y16179D02*
D03*
X196060Y110093D02*
D03*
M02*
