G04*
G04 #@! TF.GenerationSoftware,Altium Limited,Altium Designer,24.10.1 (45)*
G04*
G04 Layer_Physical_Order=3*
G04 Layer_Color=32768*
%FSLAX25Y25*%
%MOIN*%
G70*
G04*
G04 #@! TF.SameCoordinates,F1117688-C2E4-4B3A-BF9F-62EBCE255B8A*
G04*
G04*
G04 #@! TF.FilePolarity,Negative*
G04*
G01*
G75*
%ADD51C,0.06800*%
%ADD74C,0.00010*%
%ADD75C,0.08000*%
G04:AMPARAMS|DCode=76|XSize=100mil|YSize=100mil|CornerRadius=0mil|HoleSize=0mil|Usage=FLASHONLY|Rotation=0.000|XOffset=0mil|YOffset=0mil|HoleType=Round|Shape=Relief|Width=20mil|Gap=10mil|Entries=4|*
%AMTHD76*
7,0,0,0.10000,0.08000,0.02000,45*
%
%ADD76THD76*%
%AMTHOVALD77*
21,1,0.03150,0.08362,0,0,360.0*
1,1,0.08362,-0.01575,0.00000*
1,1,0.08362,0.01575,0.00000*
21,0,0.03150,0.06362,0,0,360.0*
1,0,0.06362,-0.01575,0.00000*
1,0,0.06362,0.01575,0.00000*
4,0,4,-0.00868,-0.00707,-0.03824,-0.03664,-0.05238,-0.02249,-0.02282,0.00707,-0.00868,-0.00707,0.0*
4,0,4,0.02282,-0.00707,0.05238,0.02249,0.03824,0.03664,0.00868,0.00707,0.02282,-0.00707,0.0*
4,0,4,-0.02282,-0.00707,-0.05238,0.02249,-0.03824,0.03664,-0.00868,0.00707,-0.02282,-0.00707,0.0*
4,0,4,0.00868,-0.00707,0.03824,-0.03664,0.05238,-0.02249,0.02282,0.00707,0.00868,-0.00707,0.0*
%
%ADD77THOVALD77*%

%AMTHOVALD78*
21,1,0.04724,0.08362,0,0,360.0*
1,1,0.08362,-0.02362,0.00000*
1,1,0.08362,0.02362,0.00000*
21,0,0.04724,0.06362,0,0,360.0*
1,0,0.06362,-0.02362,0.00000*
1,0,0.06362,0.02362,0.00000*
4,0,4,-0.01655,-0.00707,-0.04612,-0.03664,-0.06026,-0.02249,-0.03069,0.00707,-0.01655,-0.00707,0.0*
4,0,4,0.03069,-0.00707,0.06026,0.02249,0.04612,0.03664,0.01655,0.00707,0.03069,-0.00707,0.0*
4,0,4,-0.03069,-0.00707,-0.06026,0.02249,-0.04612,0.03664,-0.01655,0.00707,-0.03069,-0.00707,0.0*
4,0,4,0.01655,-0.00707,0.04612,-0.03664,0.06026,-0.02249,0.03069,0.00707,0.01655,-0.00707,0.0*
%
%ADD78THOVALD78*%

%ADD79C,0.05200*%
D51*
X37000Y60000D02*
D03*
Y55000D02*
D03*
Y65000D02*
D03*
X143000Y60000D02*
D03*
X138000D02*
D03*
D74*
X0Y0D02*
Y117500D01*
X267500D01*
Y0D02*
Y117500D01*
X0Y0D02*
X267500D01*
D75*
X202500Y5000D02*
D03*
X212500D02*
D03*
X52500D02*
D03*
X42500D02*
D03*
X232500D02*
D03*
X222500D02*
D03*
X192500D02*
D03*
X182500D02*
D03*
X172500D02*
D03*
X162500D02*
D03*
X152500D02*
D03*
X142500D02*
D03*
X132500D02*
D03*
X122500D02*
D03*
X112500D02*
D03*
X102500D02*
D03*
X92500D02*
D03*
X82500D02*
D03*
X62500Y112500D02*
D03*
X72500D02*
D03*
X82500D02*
D03*
X92500D02*
D03*
X102500D02*
D03*
X112500D02*
D03*
X122500D02*
D03*
X132500D02*
D03*
X142500D02*
D03*
X152500D02*
D03*
X162500D02*
D03*
X172500D02*
D03*
X182500D02*
D03*
X192500D02*
D03*
X202500D02*
D03*
X212500D02*
D03*
X222500D02*
D03*
X232500D02*
D03*
X242500D02*
D03*
X72500Y5000D02*
D03*
X62500D02*
D03*
X242500D02*
D03*
X52500Y112500D02*
D03*
X252500D02*
D03*
X262500Y5000D02*
D03*
X32500Y112500D02*
D03*
D76*
X262500D02*
D03*
X252500Y5000D02*
D03*
X42500Y112500D02*
D03*
X32500Y5000D02*
D03*
D77*
X22220Y113008D02*
D03*
Y39008D02*
D03*
Y78992D02*
D03*
Y4992D02*
D03*
D78*
X6472Y113008D02*
D03*
Y78992D02*
D03*
Y39008D02*
D03*
Y4992D02*
D03*
D79*
X197900Y77100D02*
D03*
X203500Y76100D02*
D03*
X201100Y83200D02*
D03*
X195600Y85521D02*
D03*
X190800Y75200D02*
D03*
X57400Y68100D02*
D03*
X243300Y105600D02*
D03*
X148700Y54100D02*
D03*
X188200Y21100D02*
D03*
X253900Y91400D02*
D03*
X93300Y101100D02*
D03*
X82900Y102200D02*
D03*
X60600Y87400D02*
D03*
X75100Y105900D02*
D03*
X35800Y94100D02*
D03*
X37300Y98200D02*
D03*
X47500Y92000D02*
D03*
Y97000D02*
D03*
X190900Y61700D02*
D03*
X186700Y61400D02*
D03*
X42200Y25300D02*
D03*
X42000Y21500D02*
D03*
X76200Y66100D02*
D03*
X75100Y29000D02*
D03*
X79100Y29300D02*
D03*
X197700Y49800D02*
D03*
X205600Y54900D02*
D03*
X205500Y51600D02*
D03*
X206000Y61500D02*
D03*
X191200Y52900D02*
D03*
X93200Y89100D02*
D03*
X190100Y67900D02*
D03*
X163100Y76000D02*
D03*
X170400Y79000D02*
D03*
X186800Y75300D02*
D03*
X237500Y80200D02*
D03*
X166500Y94500D02*
D03*
X189400Y50000D02*
D03*
X199900Y43300D02*
D03*
X196600Y39900D02*
D03*
X239000Y105800D02*
D03*
X184500Y90000D02*
D03*
X244197Y79004D02*
D03*
X214035Y82500D02*
D03*
X214079Y40996D02*
D03*
X244240Y37500D02*
D03*
X247543Y40996D02*
D03*
X237547Y37500D02*
D03*
X240850Y40996D02*
D03*
X230854Y37500D02*
D03*
X234157Y40996D02*
D03*
X224161Y37500D02*
D03*
X227465Y40996D02*
D03*
X217469Y37500D02*
D03*
X220772Y40996D02*
D03*
X220728Y82500D02*
D03*
X217425Y79004D02*
D03*
X227421Y82500D02*
D03*
X224118Y79004D02*
D03*
X234114Y82500D02*
D03*
X230811Y79004D02*
D03*
X240807Y82500D02*
D03*
X247500D02*
D03*
X55800Y16800D02*
D03*
X51700Y16600D02*
D03*
X47400D02*
D03*
M02*
